<?xml version="1.0" encoding="UTF-8"?>
<svg id="Layer_1" data-name="Layer 1" xmlns="http://www.w3.org/2000/svg" viewBox="0 0 305.62 246.23">
  <defs>
    <style>
      .cls-1 {
        fill: none;
        stroke: #a88d83;
        stroke-miterlimit: 10;
      }
    </style>
  </defs>
  <path class="cls-1" d="M153.33,95.99c.11.05.61.59,1.85,1.26.03.02.19.18.62.42.37.21.74.56,1.25.85,1.37.76,3.03,1.4,4.32,2.1.38.21.72.56,1.24.85,2.27,1.24,4.55,2.54,6.81,3.79,1.61.89,3.4,1.67,4.95,2.53,1.02.56,2.08,1.12,3.1,1.68.45.25,1.01.8,1.85,1.26.85.46,1.61.71,1.85.85,1.42.77,3.85,3.35,5.57,2.53.81,2.24,17.12,8.57,20.43,10.73l-4.95.63-50.43-26.91-48.88,26.91c-2.84,1.07-6.13,2.02-9.29,2.53-.4.07-5.11.86-4.64-.42,0-.12.97.71,1.24-1.68,11.63-2.83,18.67-7.27,28.47-12.19,1.53-.77,3.05-1.87,4.33-2.53,1.07-.54,2.5-1.04,3.72-1.68,2.54-1.35,4.92-2.86,7.42-4.21,2.51-1.35,4.95-2.88,7.42-4.21.05-.03.4.02,1.25-.42.64-.34,1.05-.74,1.24-.85.78-.41,1.66-.82,2.47-1.26.19-.11,1.05-.31,1.24-.42,1.45-.78,3.11-1.57,4.32-2.53.24.12,1.01.3,1.24.42h-.03Z"/>
  <path class="cls-1" d="M212.1,119.13c2.98,1.9,1.67,4.86,1.85,7.57l-11.76-1.26,4.95-.63c-3.29-2.15-19.6-8.48-20.43-10.73-.53-1.44-.1-5.56.62-7.15,3.16,3.22,19.68,9.29,24.75,12.19h.02Z"/>
  <path class="cls-1" d="M202.2,125.43l11.76,1.26c.05.69,0,1.41,0,2.1-4.2-.14-8.23.02-12.37.42-1.05.1-2.36-.02-2.47,0l-46.71-26.91-49.18,27.33c-1.02-.03-2.07,0-3.1,0-3.91-.04-7.85.03-11.76,0,.08-.55-.06-1.13,0-1.68.06-.55.62-.39.62-.42-.46,1.28,4.24.49,4.64.42,3.16-.5,6.43-1.45,9.29-2.53l48.88-26.91,50.43,26.91h-.03Z"/>
  <path class="cls-1" d="M100.11,129.64c-.46,1.01-.02,2.23,0,3.36.57,30.84,1.84,61.7,1.85,92.52-3.11.43-1.1.29-1.85,1.26-.13.15-.61.79-.62.85h-6.19c-1.37-25.69,2.47-53.03,0-78.43-.1-.96-.4-6.03-.62-6.31-.62-.76-.97,1.27-3.72-1.48,6.91-2.16,5.41-2.21-.62-3.36.29-2.73-.38-5.71,0-8.41,3.91.03,7.85-.04,11.76,0h.02Z"/>
  <path class="cls-1" d="M213.96,128.79c.02,2.7-.53,5.82.62,8.41-.38.08-6.89,3.08-4.95,3.36l-1.25.21v86.63l-3.72-.21c-.32-.72-.59-.79-.62-.85-.97-2.08-2.04-1.05-2.47-1.89-1.29-30.75,2.89-62.52,1.24-93.15-.05-.99.86-1.24-1.24-2.1,4.15-.4,8.19-.56,12.37-.42h.02Z"/>
  <path class="cls-1" d="M286.35,228.05c.16.05-.85.5,1.24,1.26,3.97,1.44,7.53.68,12.37.85,2.42,3.13,4.02,1,4.95,1.89.67.64-.51,11.83,0,13.67-5.15-.02-10.32.03-15.46,0,.64-.8-.62-2.72-.62-2.94,0-1.73.73-3.6.62-5.47-.1-1.75.08-3.5,0-5.26-.51-.49-5.27-.09-6.49-.21-.53-.05-.24-.83-.3-.85.1-.38-.16-1.02,0-1.26.22-.35,1.74-1.23,1.24-2.1.86.16,1.31.07,2.47.42h-.02Z"/>
  <path class="cls-1" d="M243.04,230.99c3.57.32,7.53-.18,11.14.42-.16,0-2.92.82-3.1.85-1.74.12-6.11-1.42-8.04.42l-1.24,13.04c-1.85-.01-3.72.01-5.57,0-1.39-.01-2.06-.41-2.47-.42.06-1.06-1.24-1.7-1.85-2.53-.37-.51-.41-.92-.62-1.26-.34-.57-.89-1.12-1.25-1.68-.18-.27-.32-.73-.62-1.26-.34-.6.37-2.15-.93-2.94-3.03.35-6.05-.29-8.97-.42.13-1.35-.19-4.77.62-5.89,1.15-1.57,19.6-1.53,16.08,1.89-.59.57-3.41-.3-3.4.63l10.21-.85Z"/>
  <path class="cls-1" d="M288.82,242.77c0,.22,1.24,2.15.62,2.94-11.54-.07-23.11.07-34.64,0-.27-1.09-1.82-1.85-2.47-2.53l36.51-.42h-.02Z"/>
  <path class="cls-1" d="M246.14,237.73c.51.79,1.28,1.82.62,2.73,1.64,1.52,1.17-.76,1.55-.63.62.21-.19.77.93,1.26-.22,1.4.77,2.14,2.47,1.26.05.03.13.34.62.85.65.66,2.2,1.44,2.47,2.53-4.32-.02-8.66.03-12.99,0l1.24-13.04c.78,1.76,2.03,3.37,3.1,5.04h-.02Z"/>
  <path class="cls-1" d="M289.45,237.3c-12.61.55-26.54-.74-38.99,0l.62-5.04c.16-.01,2.92-.84,3.1-.85,6.62-.27,22.52-.82,28.47-.42.06,0-.21.79.3.85,1.23.12,5.98-.27,6.49.21.08,1.75-.1,3.51,0,5.26Z"/>
  <path class="cls-1" d="M289.45,237.3c.11,1.87-.61,3.74-.62,5.47l-36.51.42c-.49-.5-.57-.8-.62-.85-2.25-1.88-1.88-1-2.47-1.26-1.12-.49-.3-1.05-.93-1.26-.38-.13.1,2.15-1.55.63.65-.91-.11-1.94-.62-2.73,1.53.38,3.34-.36,4.32-.42,12.45-.74,26.38.55,38.98,0h.02Z"/>
  <path class="cls-1" d="M282.63,229.73c-.16.24.1.89,0,1.26-5.95-.4-21.83.14-28.47.42-3.61-.61-7.56-.1-11.14-.42-1.04-.1-1.72.18-2.47-.63l1.24-.21h1.85c1.74,0,8.54.49,8.97.42,1.55-.22.29-1.58.62-1.68,2.47-.75,25.21-.04,29.39.85h0Z"/>
  <path class="cls-1" d="M251.08,232.26l-.62,5.04c-.99.05-2.81.8-4.32.42-1.05-1.67-2.31-3.29-3.1-5.04,1.93-1.84,6.3-.29,8.04-.42Z"/>
  <path class="cls-1" d="M251.71,242.35c-1.71.87-2.7.13-2.47-1.26.59.26.22-.62,2.47,1.26Z"/>
  <path class="cls-1" d="M199.11,129.21c-.65.1-1.47-.07-2.17,0l-.93,1.05c.46,1.23.69,2.29.62,3.58-.67,14.09-.51,28.36-.62,42.48-1.87.18-1.2-1.13-1.24-1.89-.73-14.69.54-29.46,0-44.16-11.97-7.3-23.68-15.04-36.51-21.66-2.06-1.06-4.42-3.71-7.12-2.94l-44.86,24.82c-.53-1.15-1.87-.79-3.1-.85l49.18-27.33,46.71,26.91h.03Z"/>
  <path class="cls-1" d="M103.2,129.64c1.23.04,2.57-.3,3.1.85-.53,5.03.08,10.09,0,15.14-1.85.18-1.2-1.13-1.25-1.89-.14-3.5.11-7.02,0-10.51l-4.95-.21c-.02-1.13-.46-2.35,0-3.36,1.02.01,2.07-.03,3.1,0v-.02Z"/>
  <path class="cls-1" d="M199.11,129.21c.13-.02,1.42.1,2.47,0,2.11.87,1.18,1.11,1.24,2.1l-.93,4.63c-1.64-1.2-1.95-3.17-5.27-2.1.06-1.29-.16-2.34-.62-3.58l.93-1.05c.69-.07,1.5.1,2.17,0Z"/>
  <path class="cls-1" d="M99.5,227.63c-1.01,2.46-.48,5.45-.62,7.99-1.71.01-4.21-.42-4.95-.42.56-2.39-.48-4.84-.62-7.15v-.42h6.19Z"/>
  <path class="cls-1" d="M106.3,145.62c-.26,15.56.38,31.13.93,46.68,4.39-15.01,14.94-31.36,39.91-33.65,2.86-.26,5.06-.53,8.04-.42v3.36c-43.07-1.7-47.08,27.9-47.03,49.62,0,4.68-.38,9.68,0,14.3-1.87.17-4.47-.24-6.19,0,0-30.83-1.28-61.68-1.85-92.52l4.95.21c.11,3.5-.14,7.02,0,10.51.03.77-.62,2.07,1.25,1.89v.02Z"/>
  <path class="cls-1" d="M109.39,228.05c.3,2.45-.7,5.21.62,7.57-3.7.02-7.44-.02-11.14,0,.14-2.54-.38-5.52.62-7.99.02-.04.49-.68.62-.85,2.14.53,8.07,1.19,8.04-.85,0,.14.91-.55,1.25,2.1h-.02Z"/>
  <path class="cls-1" d="M101.97,225.52c1.72-.24,4.33.17,6.19,0v.42c.03,2.03-5.9,1.38-8.04.85.75-.97-1.26-.82,1.85-1.26h0Z"/>
  <path class="cls-1" d="M202.83,131.32c1.66,30.63-2.54,62.4-1.24,93.15.43.85,1.5-.19,2.47,1.89h-9.29c2.43-22.25,7.34-62.91-39.59-64.77v-3.36c23.46.91,37.63,16.15,40.53,30.7.59-4.19.27-8.42.3-12.61.11-14.11-.06-28.39.62-42.48,3.3-1.06,3.62.9,5.27,2.1l.93-4.63h0Z"/>
  <path class="cls-1" d="M204.05,226.37s.29.12.62.85c.59,1.3.51,1.65.62,2.94.14,1.81-.1,3.65,0,5.47-3.65-.03-8.23-.84-10.52-.85.22-2.78-.3-5.64,0-8.41h9.29-.02Z"/>
  <path class="cls-1" d="M211.49,228.47v7.15c-2.06-.03-4.13.02-6.19,0-.1-1.81.14-3.66,0-5.47.69-3.1,3.27-1.63,6.19-1.68Z"/>
  <path class="cls-1" d="M194.78,226.37c-.3,2.77.22,5.63,0,8.41-4.4-.01-12.13.86-17.94.85v-3.36c1.31-.11,4.28.41,4.95-.63.38-.6.13-11.42,0-13.04-.03-.34-1.16.02-1.24-.63,1.75.22,1.32-1.18,1.24-1.89-.32-2.54.37-8.59-.93-9.88-.03-.03-.53.53-.93.42-.24-.08-1.07-1.96-3.09.85-.22-2.04.73-2.19-1.25-3.79-.08-.06-1.18.07-1.24,0-.34-.86.59-.79.62-.85,2.12.14,2.12.53,4.32,0,.26,1.11,2.55,2.08,3.72,1.26.19,8.29-.14,16.69,0,25.02,5.63-1.89,5.73-6.26,6.19-10.1,2.3-19.1.05-48.1-34.04-53.2-.19-.03-.42.02-.62,0,1.02-1.26.61-2.82.62-4.21,46.93,1.85,42.03,42.52,39.59,64.77h.02Z"/>
  <path class="cls-1" d="M176.83,200.72c-1.6,1.27-1.96-.33-2.47-1.05-12.18-17.04-33.96-14.13-47.03.63-2.23,2.52-2.86,1.13-3.72,2.53s-1.48,29.88-.62,31.34c.61,1.02,3.81.33,4.95.21v1.26c-3.29,0-6.61-.01-9.89,0-.02-1.69,2.75-.02,3.72-1.68.73-1.26,1.15-26.02,0-27.13-1.02-.99-4.82,1.35-4.33-2.1.72-5.09,2.09-10.78,5.57-15.77-.54,2.1-6.06,14.56.62,12.62,3.78-1.11,2.78-4.81,4.32-6.94,12-16.52,44.49-11.13,48.88,6.1h0Z"/>
  <path class="cls-1" d="M158.27,242.77l-2.17.85h23.51l-2.17-.85h54.45c.61.82,1.92,1.46,1.85,2.53-1.23-.01-2.49.01-3.72,0l2.17-.85c-9.41-.15-19.37-.52-29.07-.42-.21,0-1.29.81-4.02.85-37.28.35-74.73-.86-111.99-.85-2.57-.23-13.69-1.81-12.99,1.26-1.02.03-2.07-.03-3.1,0-.53-.89-.99-2.75.62-2.94.91.65,1.45.23,2.17.85,28.12-.7,56.31-.42,84.45-.42h.02Z"/>
  <path class="cls-1" d="M230.05,245.29c-10.28-.11-20.71.42-30.94-.42,2.73-.02,3.81-.84,4.02-.85,9.7-.11,19.66.27,29.07.42l-2.17.85h.02Z"/>
  <path class="cls-1" d="M87.12,244.03c-.94,2.22-9.38,1.13-12.99,1.26-.7-3.07,10.44-1.49,12.99-1.26Z"/>
  <path class="cls-1" d="M230.05,239.82c.35.57.89,1.11,1.24,1.68H71.03c-.21-.65.65-.88.62-1.68h158.4Z"/>
  <path class="cls-1" d="M231.28,241.51c.19.34.24.76.62,1.26h-73.63c-28.13,0-56.33-.28-84.45.42-.7-.62-1.26-.2-2.17-.85-.1-.07-.56-.65-.62-.85h160.25Z"/>
  <path class="cls-1" d="M230.05,239.82H71.65c-.05-1.04.61-.79.62-.85l157.15-.42c.3.53.45.99.62,1.26h0Z"/>
  <path class="cls-1" d="M177.45,242.77l2.17.83h-23.52l2.17-.83h19.18Z"/>
  <path class="cls-1" d="M205.3,235.62c2.06.02,4.13-.03,6.19,0,1.26.02,3.43-.43,4.32-.42,1.2.02,3.16-.02,3.72,0,2.92.13,5.95.77,8.97.42,1.29.8.59,2.35.93,2.94l-157.15.42c.08-.36-1.85-2.53.3-3.36,3.4-.08,6.83.11,10.21,0,2.25-.08,4.55.03,6.81,0,1.64-.02,3.49-.41,4.32-.42.73,0,3.24.43,4.95.42,3.7-.02,7.44.02,11.14,0,2.67-.01,5.38,0,8.04,0,3.29-.01,6.61,0,9.89,0,16.28-.04,32.6-.03,48.88,0,5.81.01,13.53-.86,17.94-.85,2.28,0,6.86.81,10.52.85h.02Z"/>
  <path class="cls-1" d="M73.83,236.46l154.36,1.05-154.36.63v-1.68Z"/>
  <path class="cls-1" d="M121.76,233.94c-.96,1.66-3.73-.01-3.72,1.68-2.68,0-5.38-.01-8.04,0-1.32-2.36-.32-5.11-.62-7.57l12.37,5.89h.02Z"/>
  <path class="cls-1" d="M158.27,108.61l-1.24,14.3c-1.09-.15-1.52-.37-3.1-.42-11.65-.35-22.29,4.9-23.51,13.04-1.79-.77-3.08,4.51-3.1,4.84-.4,8.59,9.59,17.32,22.9,16.62l-3.1,1.68c-24.97,2.28-35.52,18.63-39.91,33.65-.54-15.55-1.18-31.12-.92-46.68.08-5.06-.53-10.11,0-15.14l44.86-24.82c2.68-.77,5.06,1.88,7.12,2.94h0Z"/>
  <path class="cls-1" d="M158.27,108.61c12.83,6.62,24.54,14.36,36.51,21.66.54,14.7-.73,29.47,0,44.16.03.77-.62,2.07,1.25,1.89-.03,4.2.29,8.43-.3,12.61-2.9-14.54-17.07-29.8-40.53-30.7-2.98-.12-5.19.16-8.04.42l3.1-1.68c6.65-.36,13.6-4.21,17.33-7.57,10.61-9.57,8.51-23.93-10.52-26.5l1.24-14.3h-.03Z"/>
  <path class="cls-1" d="M172.51,61.09h.62v.85c-17.54.15-35.07-.48-52.6-.85,1.98-.3,9.03.41,10.21,0,2.39-.85,12.05-31.42,13.31-35.53,1.07-3.53,4.13-11.73,4.32-14.72,0-.11-.81-1.76-1.24-1.89.22-.51.4-1.13.62-1.68.54-1.31,2.25-3.46,2.47-4.63h.62c0,1.79,1.15,5.1,1.24,6.94.8,17.07-.86,34.22-.62,51.31,6.99.38,14.04.22,21.03.21Z"/>
  <path class="cls-1" d="M152.7.53c.32,2.93,1.47,3.84,2.47,6.31l-1.85,2.31,19.18,51.93c-6.99,0-14.06.17-21.03-.21-.24-17.09,1.4-34.23.62-51.31-.08-1.84-1.24-5.15-1.24-6.94,0-.47.51-2.39,1.85-2.1Z"/>
  <path class="cls-1" d="M155.18,7.25c7.37,17.68,21.16,35.81,30.94,52.99-.06,0,.19.86-.3.85-4.71-.21-8.12,0-12.69,0h-.62l-19.18-51.93,1.85-2.31c.05.13-.05.29,0,.42h0Z"/>
  <path class="cls-1" d="M120.53,61.09c-1.32-.03-4.12-.43-4.32-.42,10.02-16.79,23.33-34.38,30.94-51.73.42.13,1.25,1.79,1.25,1.89-.19,2.99-3.26,11.19-4.32,14.72-1.24,4.12-10.9,34.69-13.31,35.53-1.18.41-8.23-.3-10.21,0h-.02Z"/>
  <path class="cls-1" d="M116.21,60.66c.22-.01,3.02.39,4.32.42,17.51.36,35.06,1,52.6.85l15.46-.42c1.4,2.06,1.6,4.15-1.85,4.63-1.48.21-3.86-.07-5.57,0-1.23.05-2.49-.05-3.72,0-.35-1.78,15.61.15,10.21-2.1-1.76-.73-24.45.55-28.47,0l2.78,2.1c-2.68-.26-24.27-.65-25.68-.42-.93.15-2.73,3.13-2.78,3.36-.78-3.11-7.05.48-7.42,1.89l.62,38.48c-1.21.64-2.65,1.14-3.72,1.68l1.24-45.21c-.89-.84-5.76.24-6.19.21-6.14-.47-3.8-1.59-4.32-4.84.75-.79,1.39-.56,2.47-.63Z"/>
  <path class="cls-1" d="M123.01,111.13c-1.29.66-2.81,1.76-4.33,2.53l-.62-47.52c.43.03,5.28-1.05,6.19-.21l-1.24,45.21h0Z"/>
  <path class="cls-1" d="M186.74,66.13l-.62,40.17c.65.29.73.12,1.24.63-.72,1.58-1.15,5.71-.62,7.15-1.71.84-4.15-1.75-5.57-2.53v-45.42c1.71-.07,4.09.21,5.57,0Z"/>
  <path class="cls-1" d="M188.59,61.51l-15.46.42v-.85c4.56,0,7.98-.21,12.69,0,.49.02.24-.85.3-.85,1.16.04,1.91.44,2.47,1.26h0Z"/>
  <path class="cls-1" d="M177.45,66.13c-2.35.1-4.75-.07-7.12,0-2.06.84-.24,2.17-.3,2.53-2.27,12.02.42,24.54-.62,36.59-2.27-1.25-4.55-2.55-6.81-3.78-.97-5.23,1.36-12.96,0-17.88-.77-2.76-4.79-4.05-6.19-6.1-1.53-2.22-1.55-4.2-1.25-6.73.1-.81-.53-3.03.93-3.36,1.56.53,11.03.68,11.76.42,3.85-1.39-5.41-1.64-5.87-1.68l-2.78-2.1c4.01.55,26.71-.73,28.47,0,5.39,2.26-10.56.33-10.21,2.1h0Z"/>
  <path class="cls-1" d="M133.52,69.08c-.51,2.36.69,7.54.62,10.51-.18,8.51.13,17.12,0,25.65-2.51,1.35-4.88,2.86-7.42,4.21l-.62-38.48c.38-1.42,6.64-5.01,7.42-1.89Z"/>
  <path class="cls-1" d="M161.99,66.13c.48.04,9.73.29,5.87,1.68-.73.26-10.18.11-11.76-.42-1.45.34-.83,2.55-.93,3.36-8.94.88-15.43,4.3-21.03,8.83.06-2.98-1.13-8.15-.62-10.51.05-.23,1.87-3.21,2.78-3.36,1.4-.23,23,.16,25.68.42h.02Z"/>
  <path class="cls-1" d="M177.45,66.13c1.23-.05,2.49.05,3.72,0v45.42c-.24-.13-.99-.37-1.85-.85l.62-41.42-2.47-.21-1.24-1.26-6.19.85c.06-.36-1.76-1.69.3-2.53,2.36-.07,4.77.1,7.12,0Z"/>
  <path class="cls-1" d="M155.18,70.76c-.3,2.53-.29,4.51,1.24,6.72-.86-.05-1.63-.28-2.47-.42-4.63-.77-7.68-.47-10.52,2.31-3.49,3.43-.38,6.49-1.24,10.73-1.18,3.62-.45,7.3-.62,10.93-2.49,1.33-4.9,2.85-7.42,4.21.13-8.54-.18-17.14,0-25.65,5.62-4.53,12.1-7.95,21.03-8.83Z"/>
  <path class="cls-1" d="M176.21,67.81l-1.85,39.95c-1.56-.86-3.34-1.64-4.95-2.53,1.04-12.05-1.64-24.57.62-36.59l6.19-.85h-.02Z"/>
  <path class="cls-1" d="M179.3,110.71c-.85-.47-1.4-1.02-1.85-1.26v-40.37l2.47.21-.62,41.42Z"/>
  <path class="cls-1" d="M177.45,69.08v40.37c-1.02-.56-2.07-1.12-3.1-1.68l1.85-39.95,1.24,1.26Z"/>
  <path class="cls-1" d="M157.04,91.78c-1.12-.3-1.95.42-2.47.42-.4,0-.85-.04-1.24,0-.8.1-3.16-1.58-3.4,1.68-.85-.03,1.82-3.29-5.27-1.68-.21.04-1.47-.8-1.85.21-.77,1.96.56,5.97,0,8.2-.83.44-1.18.39-1.24.42.18-3.63-.56-7.31.62-10.93.02-.05,1.12-.68,1.24-.85-.34.87.61.79.62.85.34,1.87,5.33,1.08,8.35,1.26.89-1.1-1.4-.76-2.78-1.26h.62c.4-.01.83.03,1.24,0,2.55-.18,6.37-.17,4.95-2.53.48.13.88-.73,1.24-.21-.24,1.52.65,2.72.62,4.21,0,.35-1.23.16-1.24.21h-.02Z"/>
  <path class="cls-1" d="M153.33,92.21v3.79c-.22-.12-1.01-.3-1.25-.42-2.71-1.32-3.05.22-4.32,2.53-.19.1-1.04.31-1.25.42-1.85.13-.69-.53-1.24-1.68-.27-.56-1.87-.46-1.24-1.89l2.17,1.48c.24-.91.51-1.65.93-2.53.02-.04,1.2.14,1.24-.21l-.93-.63c-.51.03-.24.84-.3.85-2.55.33-4.01.6-2.47-1.68,7.09-1.61,4.4,1.65,5.27,1.68.24-3.28,2.6-1.58,3.4-1.68v-.02Z"/>
  <path class="cls-1" d="M144.66,92.21c-1.53,2.28-.08,2.01,2.47,1.68-.41.88-.7,1.62-.93,2.53l-2.17-1.48c-.64,1.44.97,1.33,1.24,1.89-1.9.4-1.12,1.84-1.24,2.94-.19.1-.61.5-1.24.85.56-2.23-.77-6.24,0-8.2.4-1.01,1.66-.16,1.85-.21h.02Z"/>
  <path class="cls-1" d="M157.04,91.78c-.18,1.3,1.13,3.16-1.24,3.16,2.5.44,1.21,1.77,1.24,1.89l-1.24.85c-.43-.24-.59-.4-.62-.42l-.62-5.04c.53,0,1.36-.73,2.47-.42h.02Z"/>
  <path class="cls-1" d="M154.55,92.21l.62,5.04c-1.24-.67-1.76-1.2-1.85-1.26v-3.79c.38-.04.83,0,1.24,0h-.02Z"/>
  <path class="cls-1" d="M152.08,95.57c-1.21.95-2.87,1.75-4.32,2.53,1.28-2.3,1.63-3.85,4.32-2.53Z"/>
  <path class="cls-1" d="M146.51,98.52c-.81.43-1.69.85-2.47,1.26.13-1.1-.65-2.55,1.24-2.94.56,1.15-.62,1.81,1.24,1.68h-.02Z"/>
  <path class="cls-1" d="M147.13,93.89s-.21-.81.3-.85l.93.63c-.03.35-1.21.17-1.24.21h.02Z"/>
  <path class="cls-1" d="M153.95,77.06c10.36,5.26,6.37,15.75,7.42,23.55-1.29-.71-2.97-1.35-4.32-2.1,1.21-.99.14-1.08,0-1.68-.03-.13,1.26-1.45-1.25-1.89,2.36,0,1.05-1.85,1.25-3.16,0-.04,1.23.13,1.24-.21.03-1.48-.86-2.69-.62-4.21-.35-.51-.75.35-1.24.21-.19-.05-3.85-.48-4.02-.42-1.47.47-.81,2.08-.92,2.94-.4.03-.83-.01-1.25,0,1.66-4.6-5.71-3.42-3.72-.63.73,1.03,2.54.43,3.1.63,1.39.5,3.69.16,2.78,1.26-3.03-.17-8.01.6-8.35-1.26,2.87-.6.38-3.99-.62-2.73-.26.33.26,1.58,0,1.89-.13.15-1.21.78-1.24.85.85-4.24-2.27-7.29,1.24-10.73,2.84-2.78,5.89-3.08,10.52-2.31h.02Z"/>
  <path class="cls-1" d="M156.42,77.49c1.4,2.05,5.43,3.35,6.19,6.1,1.36,4.91-.97,12.65,0,17.88-.51-.28-.86-.64-1.24-.85-1.05-7.8,2.92-18.29-7.42-23.55.85.14,1.61.37,2.47.42Z"/>
  <path class="cls-1" d="M157.04,98.52c-.49-.28-.86-.64-1.25-.85l1.25-.85c.14.6,1.21.69,0,1.68h0Z"/>
  <path class="cls-1" d="M156.42,87.58c1.42,2.35-2.41,2.34-4.95,2.53.11-.86-.53-2.47.93-2.94.19-.05,3.83.37,4.02.42h0Z"/>
  <path class="cls-1" d="M150.23,90.1h-.62c-.56-.21-2.36.4-3.1-.63-1.99-2.78,5.38-3.96,3.72.63Z"/>
  <path class="cls-1" d="M144.04,90.1s-.96.02-.62-.85c.26-.31-.26-1.56,0-1.89.99-1.26,3.49,2.14.62,2.73Z"/>
  <path class="cls-1" d="M149.61,78.33c.18-.04.41.03.62,0-3.13,1.14-1.72,2.69,1.25,1.89l.3-1.05c1.44.63,2.07,2.89,3.4.42,1.58,1.25,4.93,4.23,1.85,4.41,3.64.69-.26,1.51,1.85,2.1-1.42,1-6.22.26-8.04.21,1.04-3.13-6.06-3.31-4.33,0-.16-.02-2.52.55-3.1-.21-.62-.84.41-2.38.62-3.16,2.44-1.66,1.76-3.79,5.57-4.63h0Z"/>
  <path class="cls-1" d="M155.18,79.59c-1.32,2.46-1.96.21-3.4-.42l-.3,1.05c-2.95.79-4.37-.75-1.25-1.89,1.71-.27,2.28,1.77,2.17-1.26.99.82,1.76,1.71,2.78,2.53h0Z"/>
  <path class="cls-1" d="M150.85,86.32c-1.36-.04-1.61.35-4.32,0-1.74-3.31,5.36-3.13,4.32,0Z"/>
  <path class="cls-1" d="M149.61,78.33c-3.81.85-3.13,2.97-5.57,4.63.53-2.01,2.15-4.32,4.64-5.47,1.83-.85,1.88.02.93.85h0Z"/>
  <path class="cls-1" d="M147.45,81.27c.78-.38,4.92-.03,4.02,1.48-1.15,1.93-6.8-.13-4.02-1.48Z"/>
  <path class="cls-1" d="M153.02,81.27c2.41-.65,2.04,1.83,1.25,2.1-1.77.57-3.22-1.56-1.25-2.1Z"/>
  <path class="cls-1" d="M154.55,165.8c.19.02.42-.03.62,0l-.62,9.25c-13.13-2.34-26.46,6.53-31.55,13.88-3.46,4.99-4.85,10.68-5.57,15.77-.49,3.45,3.3,1.12,4.33,2.11,1.15,1.11.73,25.87,0,27.13l-12.37-5.89c-.33-2.66-1.23-1.96-1.24-2.1s0-.28,0-.42c-.38-4.62,0-9.63,0-14.3,3.54-6.8,1.63-14.5,3.72-21.66,4.17-14.32,19.68-26.76,42.69-23.76Z"/>
  <path class="cls-1" d="M155.18,161.6c0,1.39.4,2.95-.62,4.21-23.01-2.99-38.52,9.45-42.69,23.76-2.09,7.16-.16,14.86-3.72,21.66-.05-21.73,3.94-51.33,47.03-49.62h0Z"/>
  <path class="cls-1" d="M183.02,204.08c-.06-2.9,1.2-6.02.62-9.05-1.74-9-14.28-19.89-28.47-19.56-.03-.01.24-.27-.62-.42l.62-9.25c34.09,5.1,36.34,34.09,34.04,53.2-.46,3.83-.56,8.21-6.19,10.1-.14-8.33.19-16.74,0-25.02Z"/>
  <path class="cls-1" d="M155.8,178c17.47,1.1,24.64,14.33,25.37,24.6-.24.42-1.37.1-1.85.21-2.2.53-2.22.14-4.32,0,1.42-2.62,2.49.39,1.85-2.1-4.39-17.22-36.88-22.63-48.88-6.1-1.55,2.14-.54,5.84-4.32,6.94-1.08-12.76,12.24-24.81,32.17-23.55h-.02Z"/>
  <path class="cls-1" d="M183.02,204.08c-1.16.82-3.46-.15-3.72-1.26.48-.12,1.61.22,1.85-.21-.73-10.27-7.88-23.51-25.37-24.6,2.7-.48,1.45-1.8-.62-2.53,14.17-.34,26.71,10.55,28.47,19.56.59,3.01-.69,6.15-.62,9.05h.02Z"/>
  <path class="cls-1" d="M154.55,175.05c.86.15.57.41.62.42,2.06.73,3.3,2.05.62,2.53-19.93-1.26-33.26,10.79-32.17,23.55-6.69,1.94-1.17-10.51-.62-12.62,5.11-7.34,18.43-16.22,31.55-13.88Z"/>
  <path class="cls-1" d="M130.43,135.53c-1.56,10.42,8.23,18.09,24.13,15.98,4.44-.59,7.84-2.54,11.76-3.79-3.4,2.61-6.75,3.68-11.14,5.26,4.71-.1,8.6-1.93,12.37-3.58-3.73,3.36-10.68,7.21-17.33,7.57-13.29.71-23.3-8.03-22.9-16.62,0-.32,1.29-5.61,3.1-4.84h.02Z"/>
  <path class="cls-1" d="M51.85,229.73c2.66,1.02,8.06.12,11.14.42-.06.37,1.09.73.62,1.05-1.77,1.25-6.03.15-7.42.85-.75.37,1.76,11.01,0,12.62l2.17.21c.69-4.84,9.83-1.72,12.06-3.99,2.84-2.89-3.72-6.96,9.29-6.31-2.09-1.31-1.26-4.5-1.24-6.52,1.31,0,2.95-.46,4.95-.42l-.62,7.99c-3.38.11-6.81-.08-10.21,0-2.17.84-.22,3-.3,3.36,0,.04-.65-.19-.62.85.03.8-.83,1.03-.62,1.68.06.18.53.77.62.85-1.61.19-1.15,2.06-.62,2.94-12.56.43-25.17.29-37.74.42-1.44.01-2.89-.01-4.32,0v-1.26l14.54.42c1.63-.41-.56-3.2-2.17-2.94-.03-.37.56-.42.62-.85.27-1.69-3.51-8.03-3.1-9.68.35-1.39,1.74-1.49,3.1-2.1,2.2-.08,6.7.34,6.19-1.68,4.95.64,1.77,1.36,3.72,2.1h-.02Z"/>
  <path class="cls-1" d="M19.06,243.19l-1.24,2.1c-4.23.04-8.66.39-12.99.42v-2.94c4.72-.42,9.59.47,14.23.42h0Z"/>
  <path class="cls-1" d="M28.97,243.19v2.53c-3.69.04-7.63-.46-11.14-.42l1.24-2.1c2.44-.02,7.96.05,9.89,0Z"/>
  <path class="cls-1" d="M46.28,227.63c.4.02.83-.03,1.24,0,.21,0,.41-.02.62,0,.51,2.03-3.99,1.6-6.19,1.68-4.55.16-22.31.39-25.37-.42-.08-.02-1.02-.67-1.24-.85,10.13-.42,20.79-.89,30.94-.42h0Z"/>
  <path class="cls-1" d="M41.96,229.31c-1.36.62-2.74.72-3.1,2.1-4.12-.06-8.27.09-12.37,0-3.69-.08-7.55-.76-11.44-.42-.59.05-.03,1.19-.62,1.26-1.45.15-4.63.09-6.19,0-.51-.03-.24-.84-.3-.85l1.24-1.26c2.94-.04,5.94.64,7.42-1.26,3.05.8,20.82.57,25.37.42h-.02Z"/>
  <path class="cls-1" d="M26.48,231.41c2.73,4.17,10.96,6.19,15.46,9.68-.06.42-.65.47-.62.85-1.71,1.32-7.58.35-10.84.42-.26,0-.8.81-1.55.85-1.95.05-7.45-.02-9.89,0-4.63.04-9.49-.84-14.23-.42,0-3.58-.27-7.14,0-10.73.77-.77,1.91-.73,3.1-.63.06,0-.21.81.3.85,1.56.09,4.74.15,6.19,0,.59-.07.03-1.22.62-1.26,3.89-.34,7.76.35,11.44.42l.02-.02Z"/>
  <path class="cls-1" d="M78.45,228.05c-.03,2.02-.85,5.21,1.24,6.52-12.99-.66-6.45,3.43-9.29,6.31-2.23,2.27-11.38-.85-12.06,3.99l-2.17-.21c1.76-1.6-.75-12.25,0-12.62,1.39-.69,5.65.4,7.42-.85.46-.32-.69-.68-.62-1.05.11-.6.85-1.08,0-2.1,2.33.22,12.11,0,15.46,0h.02Z"/>
  <path class="cls-1" d="M38.86,231.41c-.41,1.65,3.37,7.98,3.1,9.68-4.5-3.48-12.73-5.5-15.46-9.68,4.12.09,8.27-.06,12.37,0Z"/>
  <path class="cls-1" d="M28.97,244.45v-1.26c.75-.02,1.29-.84,1.55-.85,3.26-.07,9.13.9,10.84-.42,1.6-.26,3.8,2.53,2.17,2.94l-14.54-.42h-.02Z"/>
  <path class="cls-1" d="M52.47,186c.1,12.27,2.76,29.1.62,40.79-.21,1.13-1.47,1.78-1.24,2.94-1.95-.75,1.23-1.46-3.72-2.1-.19-.02-.41,0-.62,0v-2.11c0-2.24.32-5,0-7.15-.06-.45-1.18-1.26-1.24-1.68v-21.03c.35-2.32,1.02-4.57.62-6.94-1.1-.77-2.35.23-2.47.21-5.27-.67-9.81-.85-15.16-.42-1.6.48-.88,8.49-.93,10.1-.11,3.34-.11,6.76,0,10.1-6-2.15-7.95-9.23-14.86-10.1v-11.78l38.98-.85.02.02Z"/>
  <path class="cls-1" d="M13.49,195.66v2.94c0,6.5-1.72,22.71,0,27.96.21.62,1.36,1.11,1.85,1.47.22.16,1.15.82,1.24.85-1.48,1.9-4.48,1.22-7.42,1.26-1.23.02-2.49-.05-3.72,0-.43-3.41-.21-7.08,0-10.51.53-8.63.97-17.26,0-25.87.85-1.84,6.26,1.93,8.04,1.89h0Z"/>
  <path class="cls-1" d="M52.47,183.89v2.1l-38.98.85v-2.53c12.51.42,26.33-.87,38.98-.42Z"/>
  <path class="cls-1" d="M28.35,208.7c.11,3.15-.08,6.31,0,9.46.45.42,6.73.17,8.04.21.32,1.12.27,7.86.62,8.2.94.91,8.38-.87,9.29,1.05-10.13-.47-20.81,0-30.94.42-.49-.37-1.66-.86-1.85-1.48-1.72-5.26,0-21.46,0-27.96,6.91.86,8.86,7.95,14.86,10.1h-.02Z"/>
  <path class="cls-1" d="M44.43,188.94l-.3,7.15c-2.22-1.29-5.74-2.27-8.66-1.68-2.6.52-3.62,4.96-7.12,4.21.05-1.59-.67-9.61.93-10.1,5.35-.43,9.89-.25,15.16.42Z"/>
  <path class="cls-1" d="M39.48,218.37c.96,2.76,4.69,5.57,8.04,7.15v2.11c-.4-.03-.83.02-1.24,0-.89-1.92-8.35-.14-9.29-1.05-.35-.34-.29-7.08-.62-8.2,1.02.03,2.07,0,3.1,0h.02Z"/>
  <path class="cls-1" d="M47.53,218.37c.32,2.16,0,4.9,0,7.15-3.37-1.58-7.09-4.39-8.04-7.15h8.04Z"/>
  <path class="cls-1" d="M43.19,161.18c-2.19,5.93-12.06,14.04-15.46,19.98,2.71.11,9.75.83,11.76-.42,2.95-1.83,5.28-13.1,8.67-15.77,2.04,3.91,2.27,8.29,4.32,12.19v4.21l-47.95,1.26c3.02-1.51,4.85-3.07,7.12-5.04,5.94-5.2,12.19-12.47,16.09-18.5l15.78-.42c1.13.5,0,1.67-.3,2.53h-.02Z"/>
  <path class="cls-1" d="M51.23,151.93h1.24c0,8.41-.08,16.83,0,25.23-2.06-3.91-2.28-8.28-4.32-12.19-.48-.92-2.76-6.21-4.95-3.79.32-.86,1.44-2.03.3-2.53l-15.78.42c1.5-2.32,2.04-4.81,3.4-7.15h20.11Z"/>
  <path class="cls-1" d="M52.47,181.37v2.53c-12.65-.46-26.47.85-38.98.42-1.45-.05-13.01-1-12.99-1.47l11.14-5.26c-2.27,1.99-4.1,3.54-7.12,5.04l47.95-1.26Z"/>
  <path class="cls-1" d="M48.15,164.97c-3.38,2.67-5.71,13.94-8.66,15.77-2.01,1.26-9.03.53-11.76.42,3.41-5.94,13.29-14.05,15.46-19.98,2.19-2.42,4.47,2.86,4.95,3.79h.02Z"/>
  <path class="cls-1" d="M46.28,195.66c-1.01,6.64-.83,13.73,0,21.03.05.42,1.16,1.24,1.24,1.68h-8.04c-1.02,0-2.07.03-3.1,0-1.31-.03-7.6.22-8.04-.21-.08-3.16.11-6.31,0-9.46-.11-3.34-.11-6.76,0-10.1,3.49.75,4.52-3.69,7.12-4.21,2.92-.59,6.45.39,8.67,1.68l.3-7.15c.13.01,1.37-.99,2.47-.21.4,2.36-.27,4.62-.62,6.94h0Z"/>
  <path class="cls-1" d="M46.28,216.69c-.83-7.3-1.01-14.38,0-21.03v21.03Z"/>
  <path class="cls-1" d="M37.62,216.69c.85-.03,6.4.72,6.81.21-1.02-5.54,1.66-16.25-3.1-20.39-1.17,2.69-4.17.11-1.24-.85v-.02c-2.19-.99-1.04-.44-2.47-.42l-.3,2.53-.3-2.53c-.93.15-.8,0-1.85.42,1.99,1.91-1.13,1.99-3.1,2.53-.06.12.05.28,0,.42,1.05.21.62,1.51.62,2.1v.42c-.1,1.01.62,2.32-1.24,2.1v.85c1.1.47,1.91,0,2.47,0v-.85c0-3.35.72-1.55,1.85-1.68,6-.69.51,1.6,3.1,3.99-2.17,1.52-1.66-1.04-2.17-1.89-.48.24-.11.94-.93.85,1.84,2.44-2.07,1.04-3.72,1.68v2.95s-.05,0,0,.42c2.25.56.62,1.21.62,1.68,0,.28.03.57,0,.85-.08.57,1.01,2.32-1.24,2.1-.02.4-.06.86,0,1.26,1.74-.84,1.2.15,1.24,1.26,1.44.6,1.18-.01,1.24,0-.18-2.06,2.41-2.49,1.85,0,1.34.12.86.03,1.85,0ZM37.62,216.69c.38-.02,1.26-.99,1.24-1.05-.24-1.02-2.92-.37-1.24,1.05Z"/>
  <path class="cls-1" d="M33.92,204.08c1.71,0,1.76.41,1.85.42,1.84,2.44-2.07,1.05-3.72,1.68,0-.32-.62-1.11-.62-2.11,1.1.47,1.92,0,2.47,0h.02Z"/>
  <path class="cls-1" d="M32.05,198.19c.56-1.11,1.61-1.92,3.1-2.53,1.99,1.91-1.13,1.97-3.1,2.53Z"/>
  <path class="cls-1" d="M41.34,196.51c-1.15,2.69-4.15.12-1.24-.85.08.03,1.18.79,1.24.85Z"/>
  <path class="cls-1" d="M35.77,216.69c-.53-.04-.21.3-1.85,0-.16-2.06,2.41-2.49,1.85,0Z"/>
  <path class="cls-1" d="M32.67,212.06c-.08.57,1.01,2.32-1.24,2.1.06-1.01-.61-2.33,1.24-2.1Z"/>
  <path class="cls-1" d="M31.44,203.23c.05-.84-.43-1.75,1.24-2.1-.1,1,.64,2.32-1.24,2.1Z"/>
  <path class="cls-1" d="M32.67,211.23c-2.57.09-.57-1.29-.62-1.68,2.25.56.62,1.21.62,1.68Z"/>
  <path class="cls-1" d="M32.05,209.12c-.03-.74.03-1.44,0-2.1v2.1Z"/>
  <path class="cls-1" d="M32.67,216.69c-1.47-.61-.97.32-1.24-1.26,1.74-.84,1.2.16,1.24,1.26Z"/>
  <path class="cls-1" d="M32.67,200.72c-1.77.3-.94-1.12-.62-2.1,1.04.21.62,1.51.62,2.1Z"/>
  <path class="cls-1" d="M37.01,195.25c.18-.03.43,0,.62,0l-.3,2.53-.3-2.53h-.02Z"/>
  <path class="cls-1" d="M35.77,204.5c-.1-.01-.14-.42-1.85-.42v-.85c2.25.23,1.93-.37,1.85-1.68,6-.69.51,1.59,3.1,3.99-2.17,1.51-1.66-1.04-2.17-1.89-.49.24-.11.94-.93.85Z"/>
  <path class="cls-1" d="M34.84,206.6c1.42-.24,2.15,1.64,1.24,2.1-2.04,1.03-3.18-1.78-1.24-2.1Z"/>
  <path class="cls-1" d="M34.22,209.55c1.47-.8,3.35,1.76,1.24,2.1-1.42.23-2.15-1.6-1.24-2.1Z"/>
  <path class="cls-1" d="M40.41,209.55c1.24-.73,3.16,1.82,1.24,2.1-2.14.32-1.91-1.7-1.24-2.1Z"/>
  <path class="cls-1" d="M35.77,201.55c.08,1.31.4,1.91-1.85,1.68,0-3.35.72-1.55,1.85-1.68Z"/>
  <path class="cls-1" d="M34.84,212.06c1.5,0,1.07,1.89.62,2.11-1.95.91-1.98-2.11-.62-2.11Z"/>
  <path class="cls-1" d="M40.41,212.49c1.52-.64,2.17,1.28,1.24,1.68-1.52.64-2.17-1.28-1.24-1.68Z"/>
  <path class="cls-1" d="M37.31,207.02c1.52-.64,2.17,1.28,1.24,1.68-1.52.64-2.17-1.28-1.24-1.68Z"/>
  <path class="cls-1" d="M34.84,198.61c1.09.03.88,2.81-.62,2.1-.86-.4-.1-2.13.62-2.1Z"/>
  <path class="cls-1" d="M37.31,212.48c2.11-.73,1.77,1.69.62,1.68-.57,0-1.5-1.38-.62-1.68Z"/>
  <path class="cls-1" d="M37.94,209.55c.57,0,1.5,1.38.62,1.68-2.11.73-1.77-1.69-.62-1.68Z"/>
  <path class="cls-1" d="M37.31,198.61c1.71.04,1.02,1.73,0,2.1-.51-.52-.51-1.56,0-2.1Z"/>
  <path class="cls-1" d="M39.79,201.55c1.07-.46,1.31,1.46.62,1.68-1.15.36-1.29-1.4-.62-1.68Z"/>
  <path class="cls-1" d="M37.62,216.69c-1.68-1.42.99-2.07,1.24-1.05.02.07-.85,1.03-1.24,1.05Z"/>
  <path class="cls-1" d="M40.41,204.08c.48,0,.48,2.11,0,2.11-.54-.35-.43-2.11,0-2.11Z"/>
  <path class="cls-1" d="M41.64,201.55c.48,0,.48,1.68,0,1.68s-.48-1.68,0-1.68Z"/>
  <path class="cls-1" d="M59.89,109.87c3.24.09,6.49.81,9.89.85,3.86.03,6.29-.36,9.89-.42,5.76-.11,11.57.08,17.33,0,.14,2.03-1.79,1.68-2.47,2.31-.24.23.24,1.49,0,1.68-1.5,1.18-3.34.35-4.02.63-2.36.99-.1,9.06-.3,10.93-.27,2.39-1.23,1.56-1.24,1.68,0,.03-.56-.14-.62.42-6.61-1.5.08,7.72-3.72,9.25-2.27-.49-4.92-.51-7.12-1.26-1.05-1.44,1.96-.49,2.78-1.05.03-.02-.83-.4-.62-.63.05-.05,1.16.15,1.24-.21.19-.93-1.2-4.37-1.24-5.47-.21-5.88,2.89-7.05-4.95-11.14-.1-.06-.51-.93-1.24-.85,1.09-.04,16.07.48,10.21-2.11-2.41-1.06-16.17-.43-18.88.42-.05-1.18-9.19-.62-9.59-.42-.65.32-.18,1.55-.3,2.11l-4.32,1.26c-.11-.8.29-2.7,0-3.16-1.32-2.14-12.43-1.16-8.67-5.26,5.04,1.27,12.06.26,17.94.42h.03Z"/>
  <path class="cls-1" d="M71.03,64.87c.34,2.07.65,3.08,1.24,5.04-1.29-.24-1.16.43-1.24.42-.94-.21-.51-1.34-1.85-.63l.62,41c-3.4-.03-6.67-.76-9.89-.85l-3.72-1.05c3.37-9.24,7.23-18.75,9.29-28.18.4-1.84,1.61-6.13-.62-7.36,1.04-2.84,2.52-5.47,3.1-8.41h3.1-.02Z"/>
  <path class="cls-1" d="M72.28,69.92c1.23,4.14,17.46,37.7,20.11,38.69,1.58.58,4.44-1.27,4.64,1.68-5.76.08-11.57-.11-17.33,0,2.97-.83,3.49.03,3.1-2.73l-11.76-37.21s-.05-.66,1.24-.42Z"/>
  <path class="cls-1" d="M59.89,109.87c-5.87-.15-12.89.86-17.94-.42,1.71-1.84,3.7-.12,5.57-1.05,2.2-1.1,15.88-31.16,17.33-35.12,2.22,1.24,1.02,5.51.62,7.36-2.06,9.43-5.92,18.94-9.29,28.18l3.72,1.05h-.02Z"/>
  <path class="cls-1" d="M77.85,134.26h1.85c-.21.23.65.61.62.63-.83.56-3.83-.39-2.78,1.05,2.2.76,4.85.77,7.12,1.26,1.23.27,1.8.48,3.72.85,6.03,1.15,7.53,1.2.62,3.36-1.9-1.9-1.31-1.25-5.87-1.26-.72,1.12,1.12.41.93,2.1-6.38-.38-15.06-.93-21.35-.42-.18.01-.83,1.25-.93,1.26-2.35.27-5.57-.2-8.04,0,5.11-.37,7.48-.74,11.76-2.73-.85-.92-12.4.29-14.23.21-.06,0,.21-.81-.3-.85-1.8-.11-9,.48-9.59-.63-1.45-2.7,6.4-2.67,8.67-2.31,0,.5-1.5.85.3,1.68,3.7.81,4.36-.81,4.64-.85,6.65-.64,12.4.32,17.33-3.36h5.57-.03Z"/>
  <path class="cls-1" d="M54.95,116.6c-.06.27.03.56,0,.85-.22,1.77.06,3.68,0,5.47-.19,4.89.14,9.83,0,14.72-.27.02-.94,1.65-4.64.85-1.8-.83-.32-1.18-.3-1.68.16-6.16,1.44-12.78.62-18.93l4.32-1.26h0Z"/>
  <path class="cls-1" d="M53.7,143.1h-.62c0-.23-.75-2.05-1.85-1.68v-.85c1.84.08,13.39-1.13,14.23-.21-4.26,2-6.65,2.36-11.76,2.73Z"/>
  <path class="cls-1" d="M53.7,143.1c2.47-.2,5.7.27,8.04,0v.85c0,5.88.05,11.78,0,17.66-2.25-.74-3,3.7-3.1,4.42-2.49,19.44.99,40.56,0,60.14l-5.57.63c2.15-11.69-.51-28.53-.62-40.8v-8.84c-.08-8.41,0-16.83,0-25.23,0-2.86.73-6.08.62-8.83h.62Z"/>
  <path class="cls-1" d="M61.76,161.6c-.19,21.84-1.71,43.6-1.85,65.4.81.65,1.87.93,3.1,1.05.85,1.02.11,1.5,0,2.1-3.08-.3-8.47.6-11.14-.42-.24-1.17,1.04-1.81,1.24-2.94l5.57-.63c.99-19.59-2.49-40.7,0-60.14.1-.72.85-5.16,3.1-4.42h-.02Z"/>
  <path class="cls-1" d="M71.03,70.34l11.76,37.22c.4,2.76-.13,1.9-3.1,2.73-3.61.06-6.05.45-9.89.42l-.62-41c1.34-.72.93.42,1.85.63Z"/>
  <path class="cls-1" d="M73.51,116.6c-7.61.33-7.53.08-12.37,4.63-.05-.76.19-1.17-.93-1.68l-5.27,3.36c.06-1.79-.22-3.7,0-5.47,2.28-.85,6.08-.17,8.35-.85,1.24-.37.49-1.36,1.55-1.68,2.71-.86,16.45-1.49,18.88-.42,5.86,2.58-9.11,2.06-10.21,2.1Z"/>
  <path class="cls-1" d="M88.36,127.96c-.06.55.08,1.13,0,1.68-.38,2.71.29,5.67,0,8.41-1.92-.37-2.49-.58-3.72-.85,3.8-1.53-2.89-10.75,3.72-9.25h0Z"/>
  <path class="cls-1" d="M64.84,114.92c-1.04.33-.3,1.32-1.55,1.68-2.28.67-6.08,0-8.35.85.03-.27-.06-.57,0-.85.13-.55-.34-1.79.3-2.1.4-.19,9.54-.76,9.59.42Z"/>
  <path class="cls-1" d="M61.14,121.22c.11,1.87-1.56,11.92-.62,12.83,3.86.38,7.87.21,11.76.21-4.93,3.69-10.66,2.72-17.33,3.36.14-4.89-.19-9.83,0-14.72l5.27-3.36c1.12.51.88.92.93,1.68Z"/>
  <path class="cls-1" d="M84.02,142.25c-.03.36-.57.74-.62,1.68-7.2-.41-14.44.15-21.65,0v-.85c.1-.01.75-1.25.93-1.26,6.27-.51,14.97.04,21.35.42Z"/>
  <path class="cls-1" d="M88.99,228.05l.62,7.57c-2.25.03-4.56-.08-6.81,0l.62-7.99c2.01.03,3.65.28,5.57.42Z"/>
  <path class="cls-1" d="M88.99,161.6c.35,21.37-.27,42.76,0,64.14l-5.27.63c.24-21.55-1.12-43.24-.93-64.77h6.19Z"/>
  <path class="cls-1" d="M88.99,161.6h-6.19c.05-5.8.34-11.85.62-17.66,1.09.07,5.11-.23,5.57.21.08,5.81-.1,11.64,0,17.45Z"/>
  <path class="cls-1" d="M88.99,228.05c1.4.1,2.92-.08,4.32,0,.14,2.31,1.16,4.76.62,7.15-.83,0-2.7.4-4.32.42l-.62-7.57Z"/>
  <path class="cls-1" d="M73.51,116.6c.72-.09,1.13.79,1.24.85l3.72,4.41-.62,12.41h-5.57c-3.89,0-7.88.17-11.76-.21-.94-.91.73-10.97.62-12.83,4.85-4.55,4.76-4.3,12.37-4.63Z"/>
  <path class="cls-1" d="M74.75,117.45c7.84,4.09,4.74,5.26,4.95,11.14.03,1.1,1.42,4.53,1.24,5.47-.06.36-1.18.16-1.24.21h-1.85l.62-12.41-3.72-4.41h0Z"/>
  <path class="cls-1" d="M66.71,132.16l-.93-2.53c-2.23-.27-1.47.93-1.55,2.11-1.74-.68-.02-2.91,0-3.36,3.65,1.58.93-2.94,0-.42.03-.72-.1-1.22,0-2.1,3.64,1.66,1.15-3.48,0-.85.02-.13-.86-.66,0-2.53,1.6,3.03,1.79-.7,1.85-2.1,3.37-2.55,6.67-2.87,9.29.63,2.62,3.5-.13,8.24,1.85,11.36-.34.32-9.14.13-10.52-.21h0Z"/>
  <path class="cls-1" d="M66.71,132.16c-.67-.16-2.31.38-2.47-.42.08-1.17-.69-2.38,1.55-2.11l.93,2.53Z"/>
  <path class="cls-1" d="M64.23,122.49c.62-1.35.57-1.14,1.85-2.1-.08,1.4-.26,5.13-1.85,2.1Z"/>
  <path class="cls-1" d="M64.23,125.85c.03-.27-.05-.57,0-.85,1.15-2.65,3.64,2.51,0,.85Z"/>
  <path class="cls-1" d="M64.23,128.38v-.42c.93-2.52,3.65,2.01,0,.42Z"/>
  <path class="cls-1" d="M67.63,121.64c1.42-.23,2.15,1.61,1.24,2.11-1.47.8-3.35-1.76-1.24-2.11Z"/>
  <path class="cls-1" d="M70.73,127.11c1.63-.75,2.14,1.69,1.24,2.1-1.63.75-2.14-1.69-1.24-2.1Z"/>
  <path class="cls-1" d="M67.63,124.17c1.23.07,2.33,1.64,1.24,2.1-1.69.74-2.51-2.17-1.24-2.1Z"/>
  <path class="cls-1" d="M67.63,127.11c1.52-.64,2.17,1.28,1.24,1.68-1.52.64-2.17-1.28-1.24-1.68Z"/>
  <path class="cls-1" d="M70.11,119.54c1.32-.4,1.8,1.33.62,1.26-.38-.02-1.48-1-.62-1.26Z"/>
  <path class="cls-1" d="M83.43,143.95c-7.2-.41-14.44.15-21.65,0,0,5.88.05,11.78,0,17.66-.19,21.83-1.71,43.59-1.85,65.4.81.65,1.88.93,3.1,1.05,2.33.22,12.1,0,15.46,0,1.31,0,2.94-.47,4.95-.42,2.01.04,3.65.28,5.57.42,1.4.1,2.9-.08,4.32,0v-.42c-1.37-25.68,2.47-53.03,0-78.43-.1-.96-.4-6.04-.62-6.31-.64-.76-.97,1.27-3.72-1.47h.02c-1.9-1.89-1.29-1.23-5.87-1.25-.73,1.13,1.12.41.93,2.1-.05.36-.57.74-.62,1.68ZM83.43,143.95c-.29,5.81-.57,11.87-.62,17.66-.18,21.53,1.16,43.21.93,64.77l5.27-.63c-.27-21.37.35-42.77,0-64.14-.1-5.81.08-11.64,0-17.45-.46-.44-4.48-.15-5.57-.21Z"/>
  <path class="cls-1" d="M75.98,150.25c2.03,8.35,2.65,16.77,3.1,25.23-3.37-3.32-9-4.93-12.37-.85-.05.05-.53,1.03-.62,1.26-.77,1.93-.45,3.17-.62,5.04-2.06.67-2.46-2.76-2.47-3.16-.29-7.05,1.18-14.35,0-21.44.32-.43,1.68-.1,1.85-.21.32-.2.94.73,1.24.21.7-1.23,1.47-3.96.62-4.84-.27-.28-1.18-.79-1.24-1.26,4.1-.82,6.59-.08,10.52,0h0Z"/>
  <path class="cls-1" d="M79.08,175.48c.4,7.68-.48,15.46,0,23.14h-2.47c-.97-6.73,1.6-14.44-.62-21.03-.75-2.23-2.9-5.29-6.19-3.36-1.52-.86-1.42.24-1.85.42-.14.06-.45-.04-.62,0h-.62c3.37-4.09,9-2.47,12.37.85h.02Z"/>
  <path class="cls-1" d="M75.98,150.25c-3.94-.07-6.41-.82-10.52,0-.69.14-1.12.75-1.24,0,1.74-5.9,11.09-5.2,14.86-.21-.19,1.32-1.99.23-3.1.21Z"/>
  <path class="cls-1" d="M66.71,178.43c.03.41-1.44,1.1,0,2.11-.02.04-.3.24-.62.85-.1.18-.1,1.5,0,1.68.3.62.48.65.62.85-.45.56-.86.99-.62,1.68.29.82.49.67.62.85-.83.74-.56,1.29-.62,2.1-.02.28,0,.56,0,.85,0,.53-.11,1.18,0,1.68.24,1.01.61.79.62.85-.02.69.03,1.41,0,2.1v.42c-.02,1.2-.49,2.58,0,3.79.02.04-1.32.11-.3.85l9.59-.42h3.1c0,.09,1.84.44,1.24,1.47-.51.72-13.66.1-16.09,0,1.95-6.37.65-12.72,1.24-19.13.18-1.89-.16-3.12.62-5.04-.62.76.61,2.36.62,2.53l-.03-.04Z"/>
  <path class="cls-1" d="M64.84,156.14c.13-.66-.19-1.51,0-2.1.24-.73,1.5-1.74,1.85-2.53.86.88.08,3.61-.62,4.84-.3.52-.93-.4-1.24-.21h.02Z"/>
  <path class="cls-1" d="M65.46,150.25c.06.48.96.98,1.24,1.26-.35.78-1.63,1.8-1.85,2.53-1.24-1.2-1.02-2.42-.62-3.79.13.75.56.14,1.24,0h-.02Z"/>
  <path class="cls-1" d="M69.8,174.22c-.19,1.36,3.22.12,3.72,1.47.41,1.14-1.52,1.41-.93,1.89.11.09,4.26,1.81,3.4,0,2.2,6.6-.35,14.31.62,21.03h-.62c-2.09-.05-4.2-.39-6.19-.42.43-.81-.38-.99-.62-1.26-.3-.35-.49-.82-1.24-.85.59-.82,4.87,1.18,3.72-1.48-.06-.16-4.07.73-4.95-.21v-.42c3.24-1.4.05-1.97,0-2.1-.02-.04-.38.16-.62-.85,2.7.45,2.7-2.12,0-1.68,0-.28-.02-.56,0-.85,5.66-1.46.77-1.92.62-2.1-.13-.16-.34-.02-.62-.85,5.92-.16.73-1.52.62-1.68-.13-.18-.3-.23-.62-.85,3.59.49,3.57-2.17,0-1.68.3-.6.59-.79.62-.85.08-.16,4.66-.98,0-2.1,0-.16-1.24-1.77-.62-2.53.1-.23.57-1.2.62-1.26h.62l.3,1.26.3-1.26c.43-.18.35-1.27,1.85-.42l.02.03Z"/>
  <path class="cls-1" d="M75.98,177.58c.86,1.81-3.3.09-3.4,0-.57-.49,1.34-.76.93-1.89-.48-1.34-3.91-.11-3.72-1.47,3.29-1.93,5.44,1.13,6.19,3.36Z"/>
  <path class="cls-1" d="M67.31,174.64c.18-.04.48.06.62,0l-.3,1.26-.3-1.26h-.02Z"/>
  <path class="cls-1" d="M67.94,196.09c-.43.62.3,1.01,1.24.85.24.28,1.05.46.62,1.26-.29,0-2.44.7-3.1,0-.49-1.2-.02-2.58,0-3.78.88.94,4.88.04,4.95.21,1.16,2.65-3.13.64-3.72,1.48Z"/>
  <path class="cls-1" d="M69.8,198.19c1.98.03,4.1.37,6.19.42l-9.59.42c-1.01-.74.32-.8.3-.85.65.7,2.81,0,3.1,0Z"/>
  <path class="cls-1" d="M66.09,188.51c.06-.81-.21-1.37.62-2.1.14.18,5.04.64-.62,2.1Z"/>
  <path class="cls-1" d="M66.09,183.05c-.1-.18-.1-1.5,0-1.68,3.57-.49,3.59,2.17,0,1.68Z"/>
  <path class="cls-1" d="M66.71,180.52c-1.44-1.01.03-1.69,0-2.1,4.66,1.13.08,1.94,0,2.1Z"/>
  <path class="cls-1" d="M66.09,185.57c-.24-.69.18-1.12.62-1.68.11.16,5.3,1.52-.62,1.68Z"/>
  <path class="cls-1" d="M66.09,191.04c-.11-.5,0-1.15,0-1.68,2.7-.45,2.7,2.13,0,1.68Z"/>
  <path class="cls-1" d="M66.71,193.98c.03-.69-.02-1.41,0-2.1.05.13,3.24.71,0,2.1Z"/>
  <path class="cls-1" d="M69.8,193.56c-.1-.05-.1-1.63,0-1.68.51-.27,5.01-.57,4.32,1.48-.05.14-4.16.3-4.32.21Z"/>
  <path class="cls-1" d="M70.11,175.9c3.32-.53.93,3.09-.93,1.47-.37-.32.34-1.38.93-1.47Z"/>
  <path class="cls-1" d="M69.48,178.43l1.24,2.1c-1.56-1.03-1.79-1.1-1.24-2.1Z"/>
  <path class="cls-1" d="M69.48,188.94c.73-.68,1.9,2.64,1.24,2.1-2.19.36-1.82-1.56-1.24-2.1Z"/>
  <path class="cls-1" d="M67.01,176.32c1.84-.85,1.31,1.2.62,1.26-1.28.11-1.23-.98-.62-1.26Z"/>
  <path class="cls-1" d="M69.48,180.94c.48,0,.48,2.1,0,2.1-.54-.35-.43-2.1,0-2.1Z"/>
  <path class="cls-1" d="M70.73,180.94c.48,0,.48,2.1,0,2.1-.54-.35-.43-2.1,0-2.1Z"/>
  <path class="cls-1" d="M69.48,186.41c.48,0,.48,2.1,0,2.1-.54-.35-.43-2.1,0-2.1Z"/>
  <path class="cls-1" d="M69.8,193.56v-1.68c-.1.05-.1,1.63,0,1.68Z"/>
  <path class="cls-1" d="M70.73,186.41c.48,0,.48,1.68,0,1.68s-.48-1.68,0-1.68Z"/>
  <path class="cls-1" d="M69.18,196.93c-.93.17-1.68-.23-1.24-.85.75.02.94.5,1.24.85Z"/>
  <path class="cls-1" d="M295.01,193.56c-1.95,5.87,2.57,28.66,0,32.59-.51.78-4.44.54-3.1,1.68,1.18,1.01,4.92-1.02.93,1.48l6.49-.85c.48.94.54,1.58.62,1.68-4.84-.15-8.41.6-12.37-.85,1.12-11.04.62-22.16.62-33.22,2.09-1.03,4.6-1.69,6.81-2.53h-.02Z"/>
  <path class="cls-1" d="M275.21,155.29c5.86,8.76,11.51,18.74,22.28,25.23-.89-.05-6.05.63-7.42.85-9.16-7.98-18.14-16.09-23.51-25.65,2.28.16,6.1-.78,8.67-.42h-.02Z"/>
  <path class="cls-1" d="M288.2,183.89v12.19c0,11.06.49,22.19-.62,33.22-2.09-.76-1.07-1.22-1.24-1.26.92-10.32.91-20.78.62-31.12-.05-1.48.35-10.62-.3-10.93h-35.57c.02-.7-.01-1.41,0-2.1,12.34-.23,24.8.31,37.12,0Z"/>
  <path class="cls-1" d="M299.34,228.47l-6.5.85c3.99-2.5.26-.47-.92-1.48-1.34-1.15,2.58-.9,3.1-1.68,2.57-3.94-1.95-26.73,0-32.59.13-.04,1.26-1.3,1.85-1.48l1.24.42c1.44,9.98-1.64,21.85-.62,31.54.18,1.6,1.15,3.01,1.85,4.41Z"/>
  <path class="cls-1" d="M275.21,155.29c-2.57-.36-6.37.59-8.66.42-.81-.05-6.11-1-8.67-1.26-1.88-.2-4.01-1.17-6.19-.85.19-.67-.35-1.4,1.25-1.68l20.11-.85c.83,1.41,1.21,2.79,2.17,4.21Z"/>
  <path class="cls-1" d="M290.07,181.79c1.55.28,2.3,1.14.62,1.68-1.4.05-2.35.41-2.47.42-12.33.31-24.78-.23-37.12,0,.02-.55-.02-1.13,0-1.68l12.99-.42c2.49,3.04,6.17.11,10.83,1.68l.3-2.1c2.82,1.24,11.49-.19,14.86.42h-.02Z"/>
  <path class="cls-1" d="M290.67,183.47c1.68-.55.94-1.4-.62-1.68v-.42c1.37-.22,6.53-.9,7.42-.85,1.99.13,3.06.39,4.32,1.47l-.3,1.48c-3.58.3-7.29-.13-10.84,0h.02Z"/>
  <path class="cls-1" d="M257.88,154.45c3.54,9.4,11.68,17.5,16.71,26.5l-10.52.42-12.37-26.91c.05-.27-.08-.57,0-.85,2.19-.33,4.31.64,6.19.85h-.02Z"/>
  <path class="cls-1" d="M264.07,181.37c.08.12-.08.32,0,.42l-12.99.42c.27-7.69.21-15.45.62-23.14.08-1.5-.22-3.19,0-4.63l12.37,26.91h0Z"/>
  <path class="cls-1" d="M286.35,228.05c-1.17-.36-1.61-.26-2.47-.42-6.19-1.15-30.48,1.06-33.1,0-1.01-1.65-.83-3.32-.93-5.04,1.12-.43,6.05-4.26,6.19-4.63,4.72.42,11.43.94,16.09.42.53-.05,1.31,1.04,2.47-.21-1.02-4.77-.7-9.71-.62-14.51l12.99-6.73c.29,10.34.3,20.8-.62,31.12Z"/>
  <path class="cls-1" d="M266.55,155.71c5.38,9.57,14.35,17.67,23.51,25.65v.42c-3.37-.62-12.03.81-14.86-.42-.13-.05-.72.07-.62-.42-5.01-9-13.16-17.09-16.71-26.5,2.55.27,7.85,1.2,8.66,1.26h.02Z"/>
  <path class="cls-1" d="M286.97,196.93l-12.99,6.73c.1-5.11,1.07-10.22.62-15.35-.32-.41-1.33-.12-1.85-.21-1.95-.34-13.02.26-14.86.85-.62.2-1.24.42-1.85.63-1.9,7.25,2.54,22.06,0,28.39-.14.36-5.06,4.19-6.19,4.63-.69-11.52.85-24.9,1.24-36.59h35.57c.65.32.27,9.46.3,10.93h0Z"/>
  <path class="cls-1" d="M274.59,180.94c-.1.49.48.36.62.42l-.3,2.1c-4.64-1.57-8.33,1.36-10.84-1.68-.08-.11.08-.3,0-.42l10.52-.42Z"/>
  <path class="cls-1" d="M262.84,194.83c-.97-.04-.48.71-.62.85-.91.85-2.14.9-3.1,2.53-.06.12.06.29,0,.42-.37.78.05,1.91,0,2.1-.16.57,0,.4,0,.42-.24,1.18.03,1.88,0,2.11-.06.44,0,.8,0,.85-.1,1,.03,1.57,0,2.1-.03.35,0,.4,0,.42-.05.94-.02,1.6,0,2.53v.42c.03.68-.05,1.35,0,2.1,0,.13-.03.48,0,.85.05.67-.13,1.24,0,2.1,0,.02-.14-.14,0,.42.18.67-2.07.98.62,1.68,1.48.39,1.18-.01,1.24,0,.46.09,1.26-.03,1.85,0,.06,0-.3.45,1.25.42.41,0,.83.01,1.24,0,.05,0,.19.78.92.42.59-.28.19-.76.3-.85,1.18.59,2.36.42,3.72.42h1.85v1.26c-4.66.52-11.36,0-16.09-.42,2.54-6.34-1.9-21.14,0-28.39.62-.21,1.25-.43,1.85-.63,1.55,1.76,2.15,3.63,1.85,5.67,1.32,1.03.85-.08,3.1.21v-.03Z"/>
  <path class="cls-1" d="M273.98,203.66c-.1,4.8-.4,9.74.62,14.51-1.18,1.25-1.95.15-2.47.21v-1.26l.62-29.01c.53.09,1.53-.21,1.85.21.45,5.13-.53,10.24-.62,15.35Z"/>
  <path class="cls-1" d="M272.74,188.09l-.62,29.01h-1.85c.54-.48.45-.81.62-1.26,1.36-3.47.38-6.65,0-10.1-.18-1.53.54-3.22-.62-4.63.02-.03.43.16.62-.42.11-.36.1-1.29,0-1.68-.46-1.89-1.77-1.6-1.85-1.68-.45-.51-1.26-1.83-1.85-2.1-2.55-1.17-1.9-.11-4.32-.42-2.25-.29-1.77.83-3.1-.21.3-2.04-.3-3.92-1.85-5.67,1.84-.59,12.89-1.17,14.86-.85h-.03Z"/>
  <path class="cls-1" d="M267.17,195.25c-3.18.48-3.42-.39-3.1,2.31,4.44-2.95.46.66,4.95-.21.08.09,1.4-.21,1.85,1.68l-4.02-.42c-1.29,2.28,1.32,2.25,4.02,2.1-.19.57-.61.39-.62.42-1.18,1.99-1.55.63-1.85.85-.53-.92-1.01-1.01-1.85-.21.64.31.7.54.62,1.05-.08.51-.4.09,0,1.26.17.5-.22,1.67,0,1.89.48.48.75-.36,1.24-.21,1.15.35,1.05.73,2.47,0,.38,3.45,1.36,6.63,0,10.1-5.68-1.3-3.29.09-4.32.85-.11.09.29.55-.3.85-.73.36-.88-.42-.92-.42,1.83-2.48-1.87-2.78-1.24,0-1.53.02-1.17-.41-1.25-.42.22-2.11-2.07-2.11-1.85,0-.06-.01.26.39-1.24,0l-.62-1.68c-.14-.56,0-.4,0-.42,1.23-.58,2.12-2.32,0-2.1-.03-.36,0-.72,0-.85,1.87.29,1.87-2.4,0-2.1v-.42c1.9.22,1.12-1.11,1.24-2.1h.62c-.32,2.64,2.38,1.9,2.47.63.06-.87-1.85-.97-1.85-1.05,0-.14.03-.28,0-.42,0-.04,1.26.13,1.24-.21-.24-3.15-1.85-2.14-1.85.21-.72-.08-.57.41-.62.42-.26.07-.85-.03-1.24,0,0-.02-.03-.08,0-.42,1.04-.58,1.55-1.99,0-2.1,0-.04-.06-.4,0-.85v-2.1s-.16.15,0-.42c1.29-.66,1.8-1.75,0-2.1.06-.13-.06-.3,0-.42,1.66-.38,5.35-.83,3.1-2.53.14-.13-.35-.88.62-.85,2.43.32,1.77-.75,4.32.42l-.02.02Z"/>
  <path class="cls-1" d="M270.89,215.85c-.18.44-.08.78-.62,1.26-1.34,0-2.52.16-3.72-.42,1.04-.76-1.36-2.14,4.32-.85h.02Z"/>
  <path class="cls-1" d="M259.12,198.19c.94-1.63,2.19-1.68,3.1-2.53,2.27,1.69-1.44,2.14-3.1,2.53Z"/>
  <path class="cls-1" d="M260.37,206.59v.42c-.11,1,.65,2.32-1.24,2.1-.02-.92-.05-1.57,0-2.53.38-.03.99.07,1.24,0Z"/>
  <path class="cls-1" d="M259.12,211.65c-.05-.75.03-1.42,0-2.1,1.87-.29,1.87,2.4,0,2.1Z"/>
  <path class="cls-1" d="M265.32,217.12c-.41.01-.83,0-1.24,0-.64-2.78,3.06-2.48,1.24,0Z"/>
  <path class="cls-1" d="M259.12,214.59c-.13-.86.05-1.43,0-2.1,2.12-.22,1.23,1.52,0,2.1Z"/>
  <path class="cls-1" d="M262.84,216.69c-.59-.03-1.39.09-1.85,0-.22-2.1,2.07-2.1,1.85,0Z"/>
  <path class="cls-1" d="M259.12,203.23c.03-.23-.24-.91,0-2.1v2.1Z"/>
  <path class="cls-1" d="M259.12,206.18c.03-.53-.1-1.11,0-2.1,1.55.12,1.04,1.52,0,2.1Z"/>
  <path class="cls-1" d="M259.75,216.69c-2.7-.71-.45-1.01-.62-1.68l.62,1.68Z"/>
  <path class="cls-1" d="M259.12,200.72c.05-.18-.37-1.32,0-2.1,1.8.36,1.29,1.44,0,2.1Z"/>
  <path class="cls-1" d="M270.89,205.76c-1.42.73-1.32.35-2.47,0l-1.24-1.68c-.4-1.18-.08-.78,0-1.26.99.96,1.18-.8,1.24-.85.3-.22.67,1.14,1.85-.85,1.17,1.41.45,3.1.62,4.63Z"/>
  <path class="cls-1" d="M270.89,199.02c.1.39.11,1.32,0,1.68-2.7.14-5.31.17-4.02-2.1l4.02.42Z"/>
  <path class="cls-1" d="M267.17,195.25c.59.27,1.42,1.59,1.85,2.1-4.5.88-.51-2.73-4.95.21-.32-2.71-.08-1.83,3.1-2.31Z"/>
  <path class="cls-1" d="M260.98,207.02c.03-.33.1-.47.62-.42,0,.09,1.93.18,1.85,1.05-.1,1.27-2.79,2.01-2.47-.63Z"/>
  <path class="cls-1" d="M261.3,201.13c1.63-.75,2.14,1.69,1.24,2.1-1.63.75-2.14-1.69-1.24-2.1Z"/>
  <path class="cls-1" d="M264.39,201.13c1.63-.75,2.14,1.69,1.24,2.1-1.63.75-2.14-1.69-1.24-2.1Z"/>
  <path class="cls-1" d="M261.6,206.18h-.62c0-2.34,1.61-3.35,1.85-.21.03.34-1.24.16-1.24.21h.02Z"/>
  <path class="cls-1" d="M261.3,209.55c1.66-.72,2.12,1.64,1.24,2.1-.96.5-2.36-1.62-1.24-2.1Z"/>
  <path class="cls-1" d="M261.92,198.61c2.09-.03.49,2.62-.62,2.1-.83-.39-.14-2.09.62-2.1Z"/>
  <path class="cls-1" d="M264.39,204.08c1.26-.65,2.28,2.1.62,2.1-1.5,0-1.08-1.85-.62-2.1Z"/>
  <path class="cls-1" d="M269.96,207.02c.96.03,1.37,2.22.62,2.53-1.21-.4-2.06-2.57-.62-2.53Z"/>
  <path class="cls-1" d="M264.39,207.02c1.52-.64,2.17,1.28,1.24,1.68-1.52.64-2.17-1.28-1.24-1.68Z"/>
  <path class="cls-1" d="M261.3,212.48c1.52-.64,2.17,1.28,1.24,1.68-1.52.64-2.17-1.28-1.24-1.68Z"/>
  <path class="cls-1" d="M264.39,212.48c1.52-.64,2.17,1.28,1.24,1.68-1.52.64-2.17-1.28-1.24-1.68Z"/>
  <path class="cls-1" d="M264.39,198.61c1.33-.63,2.25,2.12.62,2.1-.73,0-1.47-1.7-.62-2.1Z"/>
  <path class="cls-1" d="M265,209.55c1.16-.01,1.15,2.13,0,2.1-1.15-.02-1.16-2.09,0-2.1Z"/>
  <path class="cls-1" d="M267.47,209.55c.93.26,1.42,1.77.62,2.1-1.15.48-1.28-1.84-.62-2.1Z"/>
  <path class="cls-1" d="M268.41,201.98s-.25,1.81-1.24.85c.08-.51.02-.74-.62-1.05.85-.79,1.32-.72,1.85.21h.02Z"/>
  <path class="cls-1" d="M268.41,205.76c-.49-.15-.75.68-1.24.21-.22-.22.17-1.4,0-1.89l1.24,1.68Z"/>
  <path class="cls-1" d="M267.47,207.02c1.07-.46,1.31,1.46.62,1.68-1.15.36-1.29-1.4-.62-1.68Z"/>
  <path class="cls-1" d="M267.47,212.48c1.12-.48,1.34,1.35,0,1.68-.48-.33-.53-1.45,0-1.68Z"/>
  <path class="cls-1" d="M261.6,206.18c.03.13,0,.28,0,.42-.53-.04-.58.1-.62.42h-.62v-.42s-.1-.5.62-.42h.62Z"/>
  <path class="cls-1" d="M175.6,203.66c1.98,1.6,1.02,1.75,1.25,3.79.83,7.77,0,16.88,0,24.82v3.36c-16.28-.03-32.6-.04-48.88,0v-31.54c.89.43,2.15-.11,2.47.63,1.74,4.05-3.3,28.44-.93,29.65.18.09,2.47.09,2.78-.21,1.26-1.21-.97-26.21,0-29.86l16.08.42.93,29.65c2.14-3.74-.16-27.77,1.55-28.81,1.21-.74,15.93.61,18.56-1.89,1.05,1.04-.14,3.55,0,3.99.08.27,2.31.14,2.47.85,1.12,4.78-1.66,22.66,0,25.23.62.94,2.82.57,4.02.63l-.3-30.7Z"/>
  <path class="cls-1" d="M161.99,192.3c-9.93-.46-21.61-1.18-26.6,6.1,1.61,1.51,6.11-2.71,7.12-2.73,3.3-.07.96,4.53,2.78,5.26,5.15,2.05,1.66-3.66,4.02-4.84-3.59,10.25,14.7,2.17,20.11,7.57-2.63,2.49-17.35,1.15-18.56,1.89-1.71,1.04.59,25.07-1.55,28.81l-.93-29.65-16.08-.42c-.97,3.66,1.26,28.64,0,29.86-.3.29-2.62.3-2.78.21-2.38-1.21,2.67-25.61.93-29.65-.32-.74-1.58-.21-2.47-.63-.24-.12.34-2.05-4.32-1.26.86-1.39,1.48,0,3.72-2.53l1.25,1.47c5.22-9.64,19.55-13.98,33.41-9.46h-.03Z"/>
  <path class="cls-1" d="M127.95,204.08v30.28c-1.13.12-4.34.81-4.95-.21-.86-1.45-.27-29.88.62-31.34,4.66-.79,4.08,1.15,4.32,1.26Z"/>
  <path class="cls-1" d="M179.93,206.6c.22,3.73.24,7.65.62,11.36.06.66,1.21.29,1.24.63.13,1.62.38,12.44,0,13.04-.67,1.04-3.64.52-4.95.63,0-7.93.83-17.04,0-24.82,2.01-2.81,2.86-.91,3.09-.85h-.02Z"/>
  <path class="cls-1" d="M176.83,200.72c.64,2.49-.43-.52-1.85,2.1-.03.04-.96-.02-.62.85-4.39-4.88-2.59-8.17-12.37-11.36-13.87-4.51-28.2-.17-33.41,9.46l-1.25-1.47c13.07-14.76,34.85-17.67,47.03-.63.51.72.88,2.32,2.47,1.05Z"/>
  <path class="cls-1" d="M180.55,217.95c-.38-3.7-.38-7.61-.62-11.36.4.12.89-.46.93-.42,1.29,1.29.61,7.34.93,9.88.1.71.53,2.1-1.24,1.89h.02Z"/>
  <path class="cls-1" d="M161.99,192.3c9.8,3.19,7.98,6.47,12.37,11.36.06.06,1.15-.07,1.24,0l.3,30.7c-1.2-.05-3.42.31-4.02-.63-1.66-2.57,1.12-20.46,0-25.23-.16-.71-2.39-.56-2.47-.85-.14-.46,1.05-2.95,0-3.99-5.41-5.4-23.7,2.68-20.11-7.57-2.36,1.18,1.13,6.89-4.02,4.84-1.82-.73.53-5.33-2.78-5.26-1.01.02-5.51,4.24-7.12,2.73,4.99-7.28,16.68-6.55,26.6-6.1Z"/>
  <path class="cls-1" d="M153.63,196.09c3.35-.91,11.12.89,12.69,3.58-2.49,0-11.66.69-13.31.21-1.84-.54-.7-3.43.62-3.79Z"/>
  <path class="cls-1" d="M252.33,143.93c-.64,2.02-1.56,6.42.62,7.99-1.6.28-1.04,1.01-1.24,1.68-.08.26.05.58,0,.85-.22,1.44.08,3.13,0,4.63l-1.24-.63c-.21,2.74-.22,6.15-.62,8.83-.16,1.04-.94,4.96-1.85,5.89v52.99l-4.95.21c1.63-11.57-.65-29.24-.62-41.64.02-8.63-2.39-34.27,0-40.79,3.29-.02,6.61.02,9.89,0h.02Z"/>
  <path class="cls-1" d="M233.15,69.08l.62,42.05c-3.83-.05-7.96-1.1-11.76-1.26l-1.55-1.26c2.78-9.51,7.6-20.51,8.97-30.07.18-1.23.4-3.12-1.24-3.99,1.07-2.85,3.22-6.43,3.72-9.25,1.15.81.83,2.82,1.24,3.79h0Z"/>
  <path class="cls-1" d="M234.37,66.55c6.56,9.51,10.13,23.8,16.71,34.28.65,1.05,4.44,7.35,4.95,7.57,2.71,1.15,3.26-1.44,4.32,1.89-5.35.12-10.76-.16-16.09,0,.3-.89,2.55-.07,3.1-.63.89-.94-7.08-18.96-8.04-21.87-2.09-6.35-3.62-12.57-6.19-18.71-.4-.97-.1-2.97-1.25-3.79.03-.14-.02-.28,0-.42.96-.17,2.2,1.29,2.47,1.68h.02Z"/>
  <path class="cls-1" d="M222.01,109.87c-3.05-.14-7.72-.51-10.52-.42v-.85c0-3.37,14.31-27.66,16.71-34.07,1.64.87,1.42,2.78,1.24,3.99-1.37,9.56-6.21,20.55-8.97,30.07l1.55,1.26-.02.02Z"/>
  <path class="cls-1" d="M253.56,114.49c1.36,4.07-1.79,18.87,0,21.66.7,1.08,3.11.31,3.72.85.5.85-1.02,1.52-1.24,1.89-2.54-.67-5.95-.5-8.67-.42,4.63-3.18-.78-22.66,2.78-23.97.4-.15,2.52.06,3.4,0h.02Z"/>
  <path class="cls-1" d="M218.29,114.49v22.29c-.4.03-3.48.37-3.72.42-1.13-2.59-.61-5.71-.62-8.41,0-.69.05-1.41,0-2.1-.19-2.71,1.13-5.67-1.85-7.57,1.63-1.33,2.17-2.45,1.85-4.21.21.03,2.82-.44,4.32-.42h.02Z"/>
  <path class="cls-1" d="M229.43,137.21c-1.24,2.6,10.09,1.69,12.37,1.68,2.11,0,4.02-.37,5.57-.42,2.7-.09,6.13-.25,8.67.42-.51.89-1.8,1.58-1.85,1.68-1.71-.69-3.72-.4-5.57-.42-12.99-.12-26.06-.08-38.98.42-1.95-.28,4.56-3.29,4.95-3.36.24-.04,3.32-.39,3.72-.42.57-.04,8.54.47,11.14.42Z"/>
  <path class="cls-1" d="M254.18,140.57c-.64,1.05-1.5,2.26-1.85,3.36-3.29.02-6.61-.02-9.89,0,1.13-3.08,7.09.89,6.19-3.79,1.85.02,3.86-.27,5.57.42h-.02Z"/>
  <path class="cls-1" d="M211.49,108.61v.85c-2.17.06-3.51,1.76-6.19.42.86-2.18,3.37-.99,6.19-1.26h0Z"/>
  <path class="cls-1" d="M251.71,159.08c-.4,7.68-.35,15.44-.62,23.14-.02.55.02,1.13,0,1.68-.02.69.02,1.41,0,2.1-.4,11.68-1.91,25.07-1.24,36.59.1,1.72-.08,3.4.93,5.04,2.62,1.06,26.9-1.15,33.1,0,.51.88-1.01,1.75-1.24,2.1-4.18-.89-26.92-1.58-29.39-.85-.33.1.93,1.46-.62,1.68-.45.07-7.23-.42-8.97-.42l1.85-1.89c-.02-.29-2.92-1.04-3.1-1.05-.34-.87.61-.79.62-.85l4.95-.21v-52.99c.93-.93,1.71-4.85,1.85-5.89.4-2.69.41-6.09.62-8.83l1.25.63h.03Z"/>
  <path class="cls-1" d="M242.42,143.93c-2.39,6.52.01,32.16,0,40.79l-2.17-1.68c-.97.43.75,2.88-1.55,2.53-.42-3.08.94-7.77-.62-10.51,1.61-6.95,1.69-17.49-1.24-24.39-.32-.74.56-2.49-2.47-3.79l-.62-2.53c2.68,0,5.81-.4,8.66-.42h.02Z"/>
  <path class="cls-1" d="M242.42,184.73c-.03,12.39,2.25,30.07.62,41.64,0,.04-.96-.02-.62.85h-.62c-1.34-.5.34-.93-1.85-1.26l1.24-21.24-1.24-.42-1.24,3.58c.18-1.38-.18-2.83,0-4.21,0-.07,1.82.16,1.85-.21.49-4.78-.69-10.55-1.24-15.35-.1-.77-.48-1.55-.62-2.53,2.3.35.57-2.09,1.55-2.53l2.17,1.68h.02Z"/>
  <path class="cls-1" d="M244.27,110.29c-3.56.11-6.86.89-10.52.85l-.62-42.05c2.57,6.14,4.1,12.37,6.19,18.71.96,2.91,8.94,20.92,8.04,21.87-.54.56-2.79-.26-3.1.63Z"/>
  <path class="cls-1" d="M223.86,120.81c.4,2.01-.56,12.7,0,13.24.97.94,9.91-.9,11.14,1.05-1.44.34-3.54.64-4.32,1.68-.59.01-.65.41-1.25.42-2.6.04-10.56-.46-11.14-.42v-14.3l5.27-2.94c.56.14.24.9.3,1.26Z"/>
  <path class="cls-1" d="M232.52,116.6c-6.49.88-3.81,2.58-8.67,4.21-.06-.36.26-1.12-.3-1.26l-5.27,2.94v-7.99c3.94.06,7.9-.54,11.44-.42.48.02.11.74.62.85.27.06,1.72-2.57,2.17,1.68Z"/>
  <path class="cls-1" d="M241.79,138.89c-2.3.01-13.61.92-12.37-1.68.59,0,.65-.41,1.25-.42,3.25-.07,12.4-1.44,11.14,2.1h-.02Z"/>
  <path class="cls-1" d="M211.49,109.45c2.79-.09,7.47.28,10.52.42,3.8.17,7.93,1.21,11.76,1.26,3.83.04,6.96-.74,10.52-.85,5.33-.16,10.75.12,16.08,0,.43,1.31-.59,2.13-2.47,2.53-.62.13-4.32-.3-5.27-.42l1.55,2.1c-.21.01-.41-.01-.62,0-.88.07-3-.15-3.4,0-3.56,1.31,1.85,20.79-2.78,23.97-1.55.04-3.46.41-5.57.42,1.26-3.55-7.88-2.17-11.14-2.1.8-1.04,2.9-1.35,4.32-1.68,3.02-.71,2.62-.57,6.19-.85.81-.07,2.55.22,3.1-.21-2.15-4.46,1.63-12.19-2.47-15.77-2.54-2.21-5.73-2.17-9.29-1.68-.43-4.25-1.9-1.63-2.17-1.68-.51-.11-.13-.82-.62-.85-3.56-.13-7.52.49-11.44.42-1.5-.02-4.12.46-4.32.42-1.34-.24-2.6-2.04-2.78-2.1-1.96-.64-7.47,1.05-5.87-2.94,2.68,1.33,4.01-.35,6.19-.42h-.02Z"/>
  <path class="cls-1" d="M257.88,112.81c.32,3.29-1.96,1.57-3.72,1.68l-1.55-2.1c.94.12,4.63.55,5.27.42Z"/>
  <path class="cls-1" d="M241.79,118.28c4.1,3.58.32,11.31,2.47,15.77-.54.43-2.28.15-3.1.21l.62-15.98Z"/>
  <path class="cls-1" d="M233.45,114.07c1.64-.02,15.14-.16,15.16,1.48.08,1.05-6.18,1.57-6.49,1.48-.88-.28,1.26-1.64-.62-2.1-1.63-.4-8.09.92-8.04-.85Z"/>
  <path class="cls-1" d="M248.61,140.15c.89,4.68-5.06.71-6.19,3.79-2.84.02-5.98.42-8.67.42-4.66,0-9.43-.63-14.23-.42-1.53.06-6.73-.43-7.42.63l.62,80.96c-2.44,3.93,7.93.75,5.57,2.94-.91-.12-2.11.08-3.1,0-1.82-.15-2.12-.03-3.72,0-2.9.07-5.51-1.41-6.19,1.68-.1-1.3-.03-1.65-.62-2.94l3.72.21v-86.63l1.24-.21c12.93-.5,25.99-.54,38.98-.42Z"/>
  <path class="cls-1" d="M219.53,157.39c.24,22.49.29,45.03-.62,67.5.02.1,1.72,1.25,1.85,1.48.06.13-.08.32,0,.42.03.05-1.1.19-.62,1.05,1.18.75,1.75-.22,1.85-.21,6.18.19,12.4.23,18.56.42l1.24,2.1-1.24.21c.75.81,1.44.54,2.47.63l-10.21.85c-.02-.93,2.81-.05,3.4-.63,3.49-3.42-14.94-3.46-16.09-1.89-1.07-.48-.16-.62-1.85-.85,2.36-2.19-8.01.98-5.57-2.94l4.33-1.05c1.63-23.29-2.19-47.94,0-71.08.22-2.32,1.07-4.69,1.85-6.94.94,3.61.57,7.29.62,10.93h.03Z"/>
  <path class="cls-1" d="M218.29,228.47c1.69.22.78.36,1.85.85-.81,1.11-.5,4.53-.62,5.89-.56-.02-2.52.02-3.72,0l-.62-6.73c.97.08,2.19-.12,3.1,0h.02Z"/>
  <path class="cls-1" d="M243.66,230.15h-1.85l-1.25-2.1c.89.03,1.15-.85,1.25-.85h.62c.18,0,3.08.76,3.1,1.05l-1.85,1.89h-.02Z"/>
  <path class="cls-1" d="M236.85,150.67c2.92,6.91,2.86,17.43,1.24,24.39-2.15-3.81-10.18-3.71-14.23-.85-2.03,1.43-2.39.31-3.1,3.58s1.15,6.88,0,10.1c.3.64,9.26.3,10.52.21,1.47.24,7.74,1.52,8.04,0,.56,4.79,1.72,10.57,1.24,15.35-.03.38-1.85.15-1.85.21.1-1.62-1.15-.35-2.47-.42-16.68-.96-15.16-.07-15.16,11.36.62.37,13.28.51,15.16.42.49-.02,1.53.91,2.47.21.22-2.43-.3-4.95,0-7.36l1.25-3.58,1.24.42-1.24,21.24c-5.17-.78-13.71.56-19.18.42-.13-.23-1.84-1.38-1.85-1.48.91-22.47.86-45.01.62-67.5,1.29-.09,3.38-.26,4.32-.85.26-.15,3.05-3.77,3.1-3.99.05-.25-1.2-.59-1.24-.63-.49-.64-1.71-.36-1.24-1.68l12.37.42h0Z"/>
  <path class="cls-1" d="M233.75,144.36l.62,2.53c-3.51-1.5-10.45-.24-11.76,2.31-.67,1.3,1.23.99,1.24,1.05.06.42-.8,2.17.62,2.53-1.72,1.53-.35,1.6-.62,3.79-.96.57-3.05.75-4.32.85-.03-3.64.32-7.32-.62-10.93.26-.75.06-1.74.62-2.53,4.79-.22,9.57.42,14.23.42h-.02Z"/>
  <path class="cls-1" d="M238.09,175.05c1.56,2.76.19,7.44.62,10.51.13.98.53,1.76.62,2.53-.3,1.52-6.57.24-8.04,0,2.23-.17,1.85.37,3.72-.85.11-.08,1.09.17,1.24-.21-1.53-3.18.14-6.69-1.24-9.88-1.47-3.4-3.27-4.45-7.42-3.36-.78.21-1.82.88-2.47,1.26-.65.38-.56.67-1.24.85.11-.54-.06-1.14,0-1.68,4.05-2.86,12.06-2.96,14.23.85h-.02Z"/>
  <path class="cls-1" d="M234.37,146.88c3.03,1.29,2.15,3.05,2.47,3.79l-12.37-.42h-.62c0-.07-1.9.25-1.24-1.05,1.29-2.55,8.25-3.81,11.76-2.31Z"/>
  <path class="cls-1" d="M239.94,225.95c2.19.33.53.77,1.85,1.26-.08,0-.35.87-1.24.85-6.16-.2-12.38-.22-18.56-.42l-1.25-.85c-.08-.11.06-.29,0-.42,5.47.14,14.01-1.19,19.18-.42h.02Z"/>
  <path class="cls-1" d="M238.71,203.66c-.18,1.38.18,2.83,0,4.21-.3,2.42.22,4.93,0,7.36-.96.71-1.98-.24-2.47-.21v-11.78c1.32.08,2.57-1.19,2.47.42h0Z"/>
  <path class="cls-1" d="M219.53,143.93c-.56.78-.37,1.78-.62,2.53-.78,2.26-1.64,4.62-1.85,6.94-2.19,23.14,1.63,47.78,0,71.08l-4.33,1.05-.62-80.96c.7-1.06,5.89-.57,7.42-.63h0Z"/>
  <path class="cls-1" d="M215.19,228.47l.62,6.73c-.89-.01-3.06.43-4.32.42v-7.15c1.6-.03,1.9-.15,3.72,0h-.02Z"/>
  <path class="cls-1" d="M222.01,227.63c-.1,0-.67.96-1.85.21-.48-.86.65-1,.62-1.05l1.24.85h-.02Z"/>
  <path class="cls-1" d="M223.86,175.9c-.05.27.05.56,0,.85-.3,1.97-1.72,8.15,0,9.68.14.13-.14.17.62.42.32.11,1.8,0,2.47,0,.41,0,.83-.02,1.24,0h1.24c1.68.07,4.29-.38,5.57.42-1.87,1.21-1.48.67-3.72.85-1.26.1-10.21.42-10.52-.21,1.15-3.21-.7-6.79,0-10.1.7-3.31,1.07-2.14,3.1-3.58-.06.55.11,1.14,0,1.68h-.02Z"/>
  <path class="cls-1" d="M223.86,156.55c.26-2.18-1.1-2.26.62-3.79.29-.25.48-.87,1.24-.85.03.04,1.29.38,1.24.63-.05.23-2.84,3.85-3.1,3.99h-.02Z"/>
  <path class="cls-1" d="M225.71,151.93c-.75-.03-.96.6-1.25.85-1.4-.36-.56-2.1-.62-2.53h.62c-.48,1.32.73,1.04,1.25,1.68Z"/>
  <path class="cls-1" d="M241.79,118.28l-.62,15.98c-3.57.26-3.18.13-6.19.85-1.23-1.95-10.15-.11-11.14-1.05-.56-.54.4-11.25,0-13.24,4.83-1.62,2.17-3.33,8.66-4.21,3.56-.48,6.73-.53,9.29,1.68Z"/>
  <path class="cls-1" d="M231.31,119.12c-.75.28-.59.4-.62.42-1.02,1.38-2.03,2.08-1.24,3.58l-1.85-1.05c-1.26,2.53-1.47,5.97,0,8.41,1.68-1.99,1.69.64,2.47,1.68,1.09.3.91-.12,1.85,0l-.3-2.53,1.24,2.1c.29.12,2.46-4.23,3.4.42.8-.04,3.57,1.05,4.32-.21-.48-3.12-.26-6.38-1.24-9.46-1.76,1.64-6.69,1.9-5.57-.63l2.17,1.47c2.6-3.38-1.96-1.94-2.17-2.73-.77-2.86,3.57-.34,4.95.21h.02c-1.6-2.24-2.86-3.31-7.12-2.54-.54.11-.22.81-.3.85ZM231.31,119.12c.37,1.68.46,2.09-.62,3.58,1.74,3.45,3.32-2.84.62-3.58Z"/>
  <path class="cls-1" d="M238.71,120.81c.22.3.48,1.27.62,1.68-1.76,1.64-6.69,1.9-5.57-.63l2.17,1.48c2.62-3.39-1.95-1.94-2.17-2.73-.76-2.85,3.57-.32,4.95.21Z"/>
  <path class="cls-1" d="M236.23,132.16c-2.07.12-2.14.27-4.32,0l-.3-2.53,1.24,2.11c.29.12,2.46-4.23,3.4.42h-.02Z"/>
  <path class="cls-1" d="M230.66,119.54c-1.02,1.38-2.03,2.08-1.24,3.58l-1.85-1.05c.49-.99,1.93-1.83,3.1-2.53Z"/>
  <path class="cls-1" d="M230.05,132.16c-.61-.16-1.95.26-2.47-.21-.22-.19.21-1.13,0-1.48,1.68-1.99,1.69.64,2.47,1.68Z"/>
  <path class="cls-1" d="M230.98,127.11h4.32c1.47,3.2-1.45,1.57-4.32,2.1v-2.1Z"/>
  <path class="cls-1" d="M231.28,119.13c2.7.73,1.13,7.02-.62,3.58,1.09-1.49.99-1.9.62-3.58Z"/>
  <path class="cls-1" d="M230.98,124.17c.96-.5,2.36,1.62,1.24,2.1-1.66.72-2.12-1.64-1.24-2.1Z"/>
  <path class="cls-1" d="M228.5,124.17c1.21,0,1.24,2.52,0,2.53-1.24.01-1.24-2.52,0-2.53Z"/>
  <path class="cls-1" d="M228.5,127.11c1.5,0,1.08,1.85.62,2.1-1.26.65-2.28-2.1-.62-2.1Z"/>
  <path class="cls-1" d="M237.17,130.47c1.24-.17,1.21,1.06.62,1.26-.24.08-1.56-1.14-.62-1.26Z"/>
  <path class="cls-1" d="M235,177.16c-.89.24-3.1-1.44-3.72-.21-.62,1.24,4.37,1.15,3.72.21ZM235,177.16c1.39,3.19-.29,6.7,1.25,9.88-.16.38-1.12.14-1.25.21-1.28-.8-3.89-.36-5.57-.42-.08,0,.54-.82-.93-.85-.49,0-.24.85-.3.85-.4-.02-.83,0-1.24,0-2.07-1.37.03-1.8,0-1.89-.7-2.26-3.75-.37-2.47,1.89-.75-.25-.48-.29-.62-.42.08-2.46-.38-4.72.62-7.15.22,3.7,4.29-.58,0-.42.3-.6.27-.46.62-.85.11-.12,4.58-1.26,0-1.26h-1.24c.05-.27-.05-.57,0-.85.69-.16.62-.48,1.24-.85-.1,2.17,4.4-.42,4.32-1.05-.08-.63-2.11,1.55-1.85-.21,4.15-1.08,5.95-.03,7.42,3.36v.02Z"/>
  <path class="cls-1" d="M225.1,175.05c.65-.38,1.69-1.05,2.47-1.26-.25,1.76,1.77-.43,1.85.21.08.64-4.44,3.22-4.32,1.05Z"/>
  <path class="cls-1" d="M225.1,176.74v1.26c-.35.39-.3.25-.62.85-.06.12.05.29,0,.42-1.01,2.43-.54,4.7-.62,7.15-1.72-1.52-.3-7.7,0-9.68h1.24Z"/>
  <path class="cls-1" d="M226.96,186.83c-.67,0-2.15.11-2.47,0-1.28-2.26,1.77-4.15,2.47-1.89.03.1-2.07.53,0,1.89Z"/>
  <path class="cls-1" d="M229.43,186.83h-1.24s-.19-.85.3-.85c1.47.02.85.84.93.85h.02Z"/>
  <path class="cls-1" d="M227.88,178.84c1.08-.57,3.18,1.11,1.85,1.68-1.68.73-3.13-1.01-1.85-1.68Z"/>
  <path class="cls-1" d="M235,177.16c.65.94-4.34,1.04-3.72-.21.62-1.25,2.82.46,3.72.21Z"/>
  <path class="cls-1" d="M224.48,179.26c.05-.13-.06-.3,0-.42,4.29-.15.22,4.12,0,.42Z"/>
  <path class="cls-1" d="M224.78,181.37s1.52.16,1.55.21c1.26,2.68-3.67,1.77-1.55-.21Z"/>
  <path class="cls-1" d="M231.6,178.84c2.31,0,.32,2.79-.93,1.47-.38-.4.48-1.47.93-1.47Z"/>
  <path class="cls-1" d="M228.5,176.32l1.55.21-1.55,1.48v-1.68Z"/>
  <path class="cls-1" d="M231.6,181.37c1.45.03,1.13,1.44.62,1.68-1.18.56-2.15-1.72-.62-1.68Z"/>
  <path class="cls-1" d="M225.1,178v-1.26c4.58,0,.11,1.14,0,1.26Z"/>
  <path class="cls-1" d="M229.12,183.89c1.37.11.73,1.61-1.24,1.26-1.1-.53,1.13-1.27,1.24-1.26Z"/>
  <path class="cls-1" d="M228.5,181.37c1.49.15,1.1,1.09.62,1.68-.41-.47-2.49-1.87-.62-1.68Z"/>
  <path class="cls-1" d="M230.98,184.3c1.58-.19,2.06.34,1.24,1.26l-1.24-1.26Z"/>
  <path class="cls-1" d="M236.23,203.23v11.78c-1.88.09-14.54-.06-15.16-.42,0-11.42-1.52-12.32,15.16-11.36Z"/>
  <path class="cls-1" d="M231.9,212.91l-.3-1.26-.3,1.26c-2.15.15-4.31.42-6.49.42-1.17-.91.35-2.58.3-2.94,2.63,1.27,2.6-1.28,0-1.26.02-.26-.05-.37,0-.85,4.02-.76.06-1.13,0-1.26,0-.03-.49.15-.62-.42,2.89-.84,2.6.08,3.4,1.68l2.47-1.26,1.24,1.68c1.18-1.55-.4-2.13,2.78-2.73-2.76-1.71-3.37-2.47-5.27.21l.3-2.53c8.07-.65,4.82,6.06,5.57,9.46-.99.75-2.79-.25-3.1-.21h.02Z"/>
  <path class="cls-1" d="M229.43,203.66l-.3,2.53c1.9-2.69,2.51-1.92,5.27-.21-3.19.61-1.61,1.18-2.78,2.73l-1.24-1.68-2.47,1.26c-.8-1.6-.53-2.52-3.4-1.68-.32-1.48,2.84-2.78,4.95-2.94h-.02Z"/>
  <path class="cls-1" d="M225.1,210.38c-.08-.71-.06-.6,0-1.26,2.6-.02,2.63,2.53,0,1.26Z"/>
  <path class="cls-1" d="M225.1,208.28c.05-.43-1-.44,0-1.26.06.13,4.02.51,0,1.26Z"/>
  <path class="cls-1" d="M231.9,212.91c-.86.11-.59,0-.62,0l.3-1.26.3,1.26h.02Z"/>
  <path class="cls-1" d="M231.6,209.12c.57-.03,1,1.85,0,1.68-1.29-.23-.93-1.64,0-1.68Z"/>
  <path class="cls-1" d="M153.95,122.49c0,.77,1.15,1.14,1.85,1.68-1.93.24-5.49-.34-7.12,0-.21.04-.19.89-2.78,1.68-3.89,1.19-10.98,4.26-11.76,7.36-.22.88,1.28.54,1.24.85-.48,3.81-1.26,6.31,1.85,9.88-6.18,1,6.97,6.52,8.35,6.73,2.39.36,6.35-.26,8.97,0-.1.23.05.57,0,.85-15.89,2.11-25.69-5.57-24.13-15.98,1.21-8.13,11.86-13.38,23.51-13.04h.02Z"/>
  <path class="cls-1" d="M166.33,129.65c.01.98,2.68,3.13,3.1,4.41,1.26,3.92-.1,8.09-3.72,11.36,3.7.91,3.22-3.17,5.57-3.79-.35,2.45-2.65,4.33-4.95,6.1-3.4,2.61-6.75,3.68-11.14,5.26,4.71-.1,8.59-1.93,12.37-3.58,10.61-9.57,8.51-23.94-10.52-26.5h0c-1.09-.14-1.53-.37-3.1-.41,0,.77,1.15,1.14,1.85,1.68,2.01,1.54,1.72,1.07,3.72,2.1,2.15,1.11,4.56,2.39,6.81,3.36ZM166.33,129.65c.83.36,1.63,1.16,2.47,1.05-.53-1-2.49-2.68-2.47-1.05Z"/>
  <path class="cls-1" d="M155.8,124.17c2.01,1.54,1.71,1.07,3.72,2.1l-.62,1.26c-2.11-.82-2.23-.3-3.1-.42-.05,0,.19-.39-.62-.42-2.27-.08-5.9-1.06-4.64,1.68-4.05-.52,1.82-2.97-4.02-1.68l-.62-.85c2.59-.79,2.59-1.64,2.78-1.68,1.63-.34,5.19.24,7.12,0h.02Z"/>
  <path class="cls-1" d="M166.32,129.64c0-1.63,1.96.05,2.47,1.05-.85.11-1.64-.69-2.47-1.05Z"/>
  <path class="cls-1" d="M155.18,126.7c-.06,2.8-.49,5.62-.62,8.41-7.21.98-3.18-3.17-4.64-6.31l-1.24,6.31-12.06-.42c1.16-3.04,5.33-6.99,9.89-7.99,5.84-1.28-.02,1.16,4.02,1.68-1.26-2.75,2.38-1.77,4.64-1.68h.02Z"/>
  <path class="cls-1" d="M158.9,127.53c4.16,1.63,6.65,3.82,8.04,6.94-12.37,2.35-11.68,0-11.14-7.37.86.11.97-.4,3.1.42Z"/>
  <path class="cls-1" d="M137.86,140.57c-2.81-.64-1.4-3.46-1.25-4.63,6.91.63,14.9-2.51,12.06,4.63-2.68-.37-8.67.5-10.84,0h.02Z"/>
  <path class="cls-1" d="M148.99,148.14c-5.17-.59-10.44-2.97-11.76-6.72,10.85.11,12.94-1.92,11.76,6.72Z"/>
  <path class="cls-1" d="M145.91,125.85l.62.85c-4.56,1.01-8.74,4.96-9.89,7.99-.56,1.46,0,1.2,0,1.26-.16,1.17-1.58,3.98,1.24,4.63-.46.85-.94-.07-.62.85,1.32,3.75,6.59,6.14,11.76,6.73.38.04.83-.02,1.24,0,1.29.07,3.48,1.2,4.95-.21-.73-3.18,2.65-7.55-4.32-6.52,0-.66-.7,0-.62-.85,7.9.66,4.23-1.62,4.33-4.63v-.85c.13-2.79.56-5.62.62-8.41.81.03.57.41.62.42-.54,7.35-1.23,9.71,11.14,7.36-1.39-3.12-3.88-5.31-8.04-6.94l.62-1.26c2.14,1.11,4.55,2.39,6.81,3.36,0,.98,2.68,3.14,3.1,4.42,1.28,3.9-.1,8.09-3.72,11.36,3.7.92,3.22-3.16,5.57-3.79-.37,2.45-2.65,4.33-4.95,6.1-3.93,1.25-7.32,3.2-11.76,3.79.05-.27-.1-.61,0-.85,1.23-3.19-2.87-.65-4.02-.85-3.49-.6-10.95-3.19-13.31-5.89-3.13-3.57-2.35-6.08-1.85-9.88.03-.29-1.45.03-1.24-.85.77-3.1,7.87-6.17,11.76-7.36h-.03Z"/>
  <path class="cls-1" d="M137.24,143.93c2.36,2.7,9.8,5.29,13.31,5.89,1.15.2,5.25-2.34,4.02.85-2.62-.26-6.57.36-8.97,0-1.39-.21-14.52-5.73-8.35-6.73h-.02Z"/>
  <path class="cls-1" d="M156.73,135.95c3.05-.92,13.9-.68,10.83,3.99-.54.82-10.01.88-10.83.63-1.4-.42-1.4-4.2,0-4.63h0Z"/>
  <path class="cls-1" d="M162.29,140.99c11.25-.05-3.99,7.57-5.57,7.15-1.93-5.14-2.82-7.1,5.57-7.15Z"/>
  <path class="cls-1" d="M154.55,135.1v.85c-6-.28-4.04,1.64-4.32,4.63-.08.84.62.18.62.85-.03,2.12-1.24,4.52-.62,6.73-.4-.02-.85.04-1.24,0,1.18-8.66-.91-6.62-11.76-6.73-.32-.9.16,0,.62-.85,2.17.5,8.14-.37,10.84,0,2.84-7.14-5.15-3.99-12.06-4.63,0-.07-.56.2,0-1.26l12.06.42,1.24-6.31c1.47,3.15-2.59,7.28,4.64,6.31h-.02Z"/>
  <path class="cls-1" d="M150.23,148.14c-.62-2.2.59-4.61.62-6.72,6.97-1.03,3.59,3.34,4.32,6.52-1.47,1.41-3.65.28-4.95.21Z"/>
  <path class="cls-1" d="M154.55,135.95c-.1,3.01,3.57,5.28-4.32,4.63.29-2.98-1.68-4.91,4.32-4.63Z"/>
</svg>