<?xml version="1.0" encoding="UTF-8"?>
<svg id="Layer_1" data-name="Layer 1" xmlns="http://www.w3.org/2000/svg" xmlns:xlink="http://www.w3.org/1999/xlink" viewBox="0 0 343 221">
  <defs>
    <style>
      .cls-1, .cls-2 {
        fill: none;
      }

      .cls-2 {
        stroke: #a88d83;
        stroke-miterlimit: 10;
        stroke-width: 2px;
      }

      .cls-3 {
        opacity: .78;
      }

      .cls-4 {
        clip-path: url(#clippath);
      }
    </style>
    <clipPath id="clippath">
      <rect class="cls-1" width="343" height="221"/>
    </clipPath>
  </defs>
  <g class="cls-4">
    <g class="cls-3">
      <path class="cls-2" d="M120.82,119.47c-.09,0-.1,1.38-1.22,1.42-1.54.05-3.46-1.42-3.66-1.42-1.36-2.73,2.42-3.76,4.15-2.83.97.53-.96,2.48.73,2.83Z"/>
      <path class="cls-2" d="M168.64,119.47c-4.33,1.47-3.15.09-4.88,0-.51-4.16,5.26-4.19,4.88,0Z"/>
      <path class="cls-2" d="M220.87,119.47s.15.92-.25.94c-1.85.15-4.36-1.09-4.88.48-1.17-.83-.35-.76-.25-1.42.49-3.14,1.58-3.06,4.64-2.83l.73,2.83Z"/>
      <path class="cls-2" d="M120.82,161.01c.73,0,.91-.94.97-.94,3.9,0,7.82.01,11.71,0,.09,0,.05.95,1.46.94h2.93c10.75-.04,21.49-.44,32.21-.48,0,1.18-.49.89-.49.94-16.42-.04-32.9.05-49.3,0-12.11-.04-24.12.04-36.11-.48,2.67-.03,5.37.04,8.05,0,8-.1,19.22.01,28.55,0h.01Z"/>
      <path class="cls-2" d="M115.93,119.47c.19,0,2.11,1.47,3.66,1.42,1.12-.04,1.13-1.42,1.22-1.42h1.47c2.13,0,4.58.46,6.83.48,2.59,0,5.34-.48,7.8-.48,8.74,0,18.19-.45,26.84,0,1.72.09.56,1.47,4.88,0,.34-.11.61.79,1.46,0v1.89c.04,5.65-.01,11.34,0,16.99v1.42c.03,6.45-.08,12.92,0,19.35v1.42c-10.72.04-21.47.44-32.21.48l1.46-5.89c1.35-1.59,4.1-5.57.49-6.37.18-.5.61-1.73.49-2.12-1.71-2.19-3.59-4.28-5.37-6.37-1.39-1.64-1.48-4.31-3.9-3.77.31-3.64-6.43.41-8.05-1.42-2.37,2.31,2.26,2.11,1.22,4.95l-6.34,2.36c4.12-.48-.31,6.99,0,8.03.04.11,1.92,1.3,1.96,1.42.19.68-1.03,3.59-.97,3.77.31,1.2,1.67-.18,1.96.48.36.87-.27,3.77,0,4.95-9.34.01-20.55-.1-28.55,0-2.68.04-5.38-.02-8.05,0-3.72-.16-7.49.11-11.23,0,.01-1.57.04-3.16,0-4.71,0-.45-.48-.49-.49-.94-.12-3.96,1.28-7.72,0-11.8-.26-.82-.39-2.28-.49-2.36,1.37,1.22.92,2.76,3.18,1.42,1-.6,1.56-4.21,1.71-5.67.38-3.7-.67-7.67.49-11.32,3.92-.21,6.2-.44,4.4-4.25.17-.16.16-1.53,1.71-1.89,5.55-1.29,25.3,0,32.46,0l-.03-.03Z"/>
      <path class="cls-2" d="M137.9,161.01h-2.93c1.53-2.65.39-6.29,1.47-8.73.28-.64,2.94-2.23,3.41-3.54,3.6.8.86,4.78-.49,6.37l-1.46,5.89h.01Z"/>
      <path class="cls-2" d="M238.93,119.47c.34,0,3.28.49,5.86.48.35,0,1.3-.46,2.44-.48,1.14-.01,2.75.48,4.4.48,3.23-.03,6.64-.48,9.76-.48h2.93l10.74,19.11c-2.24.94-5.43,3.84-6.83,5.67-.25.33.91,1.29.49,1.89-.82,1.14-2.36,1.53-2.44,1.65l-2.93-4.71c.01-.31,0-.63,0-.94-.05-5.86-4.18-1.07-3.41-5.67,0-.06,1.21.3.97-.7l-.73-.7c-.43.14-.67.94-.73.94-.29.02-.8.33-1.47.48-.56.11-3.98-1.89-3.9,2.12.05,2.71,2.13,2.22,2.93,2.6.08.04.84,1.15.97,1.42-1.96.08-7.52-.4-8.79,0-2.85.92-3.09,9.02,1.47,9.91.03,1.12-.32,8.35-.73,8.5h-14.88c-5.01-.11-10.18.48-15.13-.48,1.49-.07,9.53.26,9.76-.7l-4.64-12.04c1.93,1.69,5.22,11.99,6.34,12.74.62.43,14.55-.33,14.89-1.18l-20.01-39.89c4.21-.09,8.47,0,12.69,0h-.03Z"/>
      <path class="cls-2" d="M299.45,119.47c.83,2.68,2.06,2.71,0,5.19l1.96.48c.86.2-.17-.46,1.46.48.82.46,1.52,1.13,2.44,1.42.66,3.87.44,7.15.97,10.38.08.48,1.79,5.15,1.96,5.43.04.08,1.39.68,1.46.7v.48l-.49,15.81c-.43.59-14.19.48-14.89.24-1.89-.64-13.38-25.85-15.38-29.49-.65-1.19-1.22-.03-1.46-.48-1.52-2.75-5.24-8.24-3.41-10.62,4.8,0,22.22-.92,25.38,0h0Z"/>
      <path class="cls-2" d="M215.5,119.47c-.1.65-.92.59.25,1.42.52-1.57,3.02-.33,4.88-.48.4-.04.2-.94.25-.94,1.76-.11,3.59.04,5.37,0l20.01,39.89c-.34.85-14.28,1.6-14.89,1.18-1.12-.76-4.41-11.05-6.34-12.74l4.64,12.04c-.23.98-8.27.64-9.76.7-1.92.1-3.92,1.17-5.86,0,.01-.46,0-.95,0-1.42.17-6.42,0-12.92,0-19.35v-1.42c0-5.33-.58-12.39,0-17.47.05-.5.73-.68.49-1.42h.97Z"/>
      <path class="cls-2" d="M274.07,119.47c-1.83,2.38,1.89,7.88,3.41,10.62.25.45.82-.71,1.46.48,1.98,3.65,13.49,28.87,15.38,29.49.7.24,14.46.35,14.89-.24l.49-15.81c-.52,3.74.49,7.68.49,11.32,0,.07-.49.06-.49,1.42v3.77c-12.29.94-24.74.35-37.1.48-2.92.02-5.86,0-8.79,0h-.49c-.53-6.33-.18-8.13,2.93-13.22.08-.13,1.62-.51,2.44-1.65.43-.59-.74-1.57-.49-1.89,1.4-1.83,4.59-4.71,6.83-5.67l-10.74-19.11h9.78Z"/>
      <path class="cls-2" d="M299.45,124.67c.87-.45,1.85.45,1.96.48l-1.96-.48Z"/>
      <path class="cls-2" d="M130.59,104.36c-1.82,3.31,2.02,1.86,2.44,4.01.01.09-.97,1.55-.97,1.65l-1.46-.24c.71.5.53,1.38.49,2.12h-.97c-.09-.59.23-1.89-.97-1.66-.44,1.98-.25,3.49,0,5.43.17,1.3,2.02,1.92,0,4.25-2.26,0-4.71-.48-6.83-.48-.78-4.84.49-10.95-.49-15.57h.49c2.77.2,5.51.36,8.3.48h-.01Z"/>
      <path class="cls-2" d="M136.93,104.84c-1.93-.87-4.27-.39-6.34-.48-2.79-.1-5.52-.28-8.3-.48,1.38-1.14,4.12-.07,5.61-.48,2.18-.58.87-3.96,3.66-4.95-2.4-.03-4.63.18-6.34-1.66,1.75-3.31,3.15-6.95,4.64-10.38.34,3.36,2.05,7.54,3.66,10.62.82,1.55,4.88,5.74,4.88,6.13.03.99-1.41.68-1.47,1.65h0Z"/>
      <path class="cls-2" d="M136.93,104.84c-.25,4.85.18,9.78,0,14.63-2.48,0-5.21.48-7.8.48,2.02-2.33.17-2.94,0-4.25.67-.58,1.09-3.05.97-3.77h.97c-.03.55-.91,4.78.97,4.49v-6.37c0-.1,1-1.56.97-1.65-.41-2.16-4.25-.7-2.44-4.01,2.07.08,4.42-.4,6.34.48h.01Z"/>
      <path class="cls-2" d="M122.29,103.89h-.49c-.01-.07-1.31.21-1.47-.24-.13-.4,4.06-5.29,4.88-6.85,1.71,1.83,3.94,1.63,6.34,1.66-2.8,1-1.48,4.38-3.66,4.95-1.49.39-4.24-.67-5.61.48h.01Z"/>
      <path class="cls-2" d="M132.04,110.03v6.37c-1.88.29-1.01-3.94-.97-4.49.04-.74.22-1.62-.49-2.12l1.46.24Z"/>
      <path class="cls-2" d="M130.09,111.91c.1.73-.3,3.2-.97,3.77-.25-1.94-.44-3.44,0-5.43,1.22-.24.9,1.07.97,1.66Z"/>
      <path class="cls-2" d="M261.87,104.36c-.27,5,.6,10.16-.49,15.1-3.12,0-6.53.45-9.76.48,1.71-1.72,2.01-3.17,2.44-5.19,1.15,1.39,1.92-3.2.49-3.3.52-2.31,1.96-3.77,1.96-4.01-.01-1.84-2.94-.38,0-3.07,1.76,0,3.58.05,5.37,0Z"/>
      <path class="cls-2" d="M261.87,104.36c-1.79.05-3.6,0-5.37,0-3.25,0-6.55.24-9.76-.48.82-1.05,7.47-.95,9.02-.94l.73-1.18c-3.14-.41-1.52-1.79-3.41-3.54l3.41-1.18c-.61-2.08-.75-3.81-2.19-5.43-.4.13-1.21,3.37-1.71,4.01-1.31,1.64-1.89.63-1.96.7l4.15-9.91c-1.63,4.13,8.45,15.81,8.54,16.75.08.87-1.45,1.04-1.47,1.18h.01Z"/>
      <path class="cls-2" d="M253.08,98.23c1.89,1.74.27,3.12,3.41,3.54l-.73,1.18c-1.56,0-8.22-.11-9.02.94-.07.08.04.3,0,.48-2.72.16,2.77-6.77,3.41-7.55.53,1.04,2.81,1.3,2.93,1.42Z"/>
      <path class="cls-2" d="M253.08,98.23c-.12-.11-2.4-.38-2.93-1.42.27-.34.47-.45.49-.48.06-.08.65.94,1.96-.7.51-.64,1.31-3.89,1.71-4.01,1.45,1.62,1.6,3.35,2.19,5.43l-3.41,1.18h-.01Z"/>
      <path class="cls-2" d="M256.5,104.36c-2.94,2.7-.01,1.23,0,3.07,0,.24-1.43,1.71-1.96,4.01-.3,1.3-.27,2.31-.49,3.3-.43,2.02-.73,3.47-2.44,5.19-1.63,0-3.27-.48-4.4-.48l-.49-15.1c.04-.18-.07-.4,0-.48,3.21.71,6.51.46,9.76.48h.01Z"/>
      <path class="cls-2" d="M254.05,114.75c.22-1,.19-1.99.49-3.3,1.44.1.67,4.69-.49,3.3Z"/>
      <path class="cls-2" d="M252.83,110.03c.18,1.76,1.17,4.85-.49,6.13l.49-6.13Z"/>
      <path class="cls-2" d="M262.84,215.76c-3.62.09-14.81-.1-17.32.48-1.69.39-1.25.08-1.22,1.89-2.06-.44-5,.58-5.37-1.42.49-.02,3.94.28,3.66-.94-5.16-.29-10.24.17-15.38.48-2.57.15-5.21.36-7.81.48-1.75-.86-4.4-.46-6.34-.48-.03-10.35,1.71-23.41.49-33.51l1.22-2.83h47.34l.73,35.88v-.02Z"/>
      <path class="cls-2" d="M238.93,216.7c-3.66.2-8.12.23-11.71-.48,5.12-.3,10.22-.75,15.38-.48.29,1.22-3.16.92-3.66.94h-.01Z"/>
      <path class="cls-2" d="M218.68,185.55c1.43.19.31,3.41.49,4.25,2.4.29-.91-5.42,2.68-3.07-2.14,2.78,1.78,5.08-1.71,6.85l-.49-3.3c-.23-.04-1.13,5.24-2.19,1.65-.61-2.04.96-3.11.97-3.3s-2.18-3.39.25-3.07h0Z"/>
      <path class="cls-2" d="M248.93,186.02l.97,4.71c1.04.5.55-7.44,2.19-4.49.26.46-.78,5.42-.25,6.85l-1.46-1.89-.97,2.36c-1.74,1.22-1.41-7.55-.49-7.55h.01Z"/>
      <path class="cls-2" d="M235.51,186.49l-.49,6.37,1.96-.7c-.57,2.97-2.18,3.69-3.41.94,1.92-1.03.6-4.58.97-6.61.29-.03.8-.06.97,0Z"/>
      <path class="cls-2" d="M236.98,192.15l-1.96.7.49-6.37c.07.02.52-1.09,1.47-.24-.38,1.39.21,4.8,0,5.89h0Z"/>
      <path class="cls-2" d="M234.54,186.49c-.38,2.03.95,5.58-.97,6.61-.64-1.4-.93-7.16.73-7.55.38-.09.19.95.25.94Z"/>
      <path class="cls-2" d="M266.25,147.79c-3.11,5.09-3.46,6.88-2.93,13.22h-.49c-1.4-5.22-.36-11.17,0-16.51,0-.07.42-.19.49-1.42l2.93,4.71Z"/>
      <path class="cls-2" d="M259.91,136.47c-.76,4.59,3.37-.19,3.41,5.67-1.83.08-3.53.4-5.37.48-.13-.26-.89-1.38-.97-1.42,1.46-.84,1.91-3.41.97-4.71.66-.14,1.18-.44,1.47-.48l.49.48h0Z"/>
      <path class="cls-2" d="M249.18,142.6c.42.54.35.92.49,1.42.65,2.43.92,5.99.97,8.5-4.54-.89-4.32-9-1.47-9.91h0Z"/>
      <path class="cls-2" d="M263.34,142.12c0,.31.01.64,0,.94-.08,1.23-.48,1.34-.49,1.42-3.35-1.94-9.14.33-13.17-.48-.13-.5-.07-.88-.49-1.42,1.26-.4,6.83.07,8.79,0,1.84-.06,3.54-.39,5.37-.48h0Z"/>
      <path class="cls-2" d="M257.97,136.47c.93,1.3.49,3.89-.97,4.71-.8-.38-2.88.11-2.93-2.6-.07-4.01,3.36-2.01,3.9-2.12Z"/>
      <path class="cls-2" d="M259.91,136.47l-.49-.48s.31-.8.73-.94l.73.7c.23,1-.97.65-.97.7h.01Z"/>
      <path class="cls-2" d="M262.84,144.48c-.36,5.34-1.4,11.31,0,16.51-9.35.04-18.45.21-27.81,0h14.88c.42-.15.75-7.39.73-8.5-.05-2.5-.32-6.07-.97-8.5,4.03.8,9.83-1.47,13.17.48h0Z"/>
      <path class="cls-2" d="M259.42,146.85c1.35.45.74,3.15.97,4.49-3.6.83-4.72-1.83-2.44-4.49.42,1.28,1.4-.02,1.47,0Z"/>
      <path class="cls-2" d="M254.54,151.56c-.23.14-2.18.08-2.44-.24.17-.87.23-1.77.49-2.6l1.96-.24v3.07h-.01Z"/>
      <path class="cls-2" d="M254.54,151.56v-3.07l-1.96.24c.27-.88-.07-3.27,1.96-1.65.45.99,1.02,3.91,0,4.49Z"/>
      <path class="cls-2" d="M259.42,146.85c-.07-.02-1.05,1.28-1.47,0,.19-.23,1.4-.91,1.47,0Z"/>
      <path class="cls-2" d="M309.69,180.36v34.92c-15.4.12-30.96.14-46.37.48,1.01-4.61-1.35-17.39,0-21,.73-1.96,3.19,2.85,4.39-2.12.14-.6-.03-1.63,0-2.36.01-.31.03-.64,0-.94-.09-1,.07-2.06,0-3.07-.82-1.19-.97-.18-1.46-.24-.31-.04-.66,0-.97,0h-.97c-.12-.69-2.45-4.24-.25-6.13,15.22-.31,30.44.23,45.63.48h0Z"/>
      <path class="cls-2" d="M267.72,189.32c-2.28.43-1.28-1.69-1.46-3.3.49.05.64-.95,1.46.24.07,1.02-.09,2.07,0,3.07h0Z"/>
      <path class="cls-2" d="M281.39,186.49c.48,1.27-1.26,7.65,1.46,6.61-.42,3.15-2.33,2.25-3.41,0,2.74-.7.07-3.52,0-3.77,0-.05-.29.16-.49-.94,1.78.25,1.53-.41,1.46-1.89.21-.05.77-.05.97,0Z"/>
      <path class="cls-2" d="M297.01,186.49c-.88,1.77.97,2.91.97,3.07,0,.19-3.01,2.92.49,3.07-.56,2.04-2.48,1.99-3.41.94,2.01-.41.53-5.09.97-7.08.14-.06.67-.01.97,0Z"/>
      <path class="cls-2" d="M296.02,186.49c-.44,1.99,1.04,6.66-.97,7.08-1.5-1.68.47-4.69.49-4.95,0-.12-1.87-.66-.97-2.36.52-.99,1.4.26,1.46.24h-.01Z"/>
      <path class="cls-2" d="M282.85,193.1c-2.72,1.04-.99-5.34-1.46-6.61.08.01,1.01-1.23,1.46-.24.87,1.91-.99,3.59-.97,3.78,0,.19,1.35.25.97,3.07Z"/>
      <path class="cls-2" d="M298.48,192.63c-3.5-.15-.48-2.87-.49-3.07,0-.16-1.85-1.3-.97-3.07.12,0-.22-2.02,1.47-.24.12.3.12,5.92,0,6.37h0Z"/>
      <path class="cls-2" d="M279.44,193.1c-.66-1.37-.83-2.46,0-3.77.07.25,2.74,3.07,0,3.77Z"/>
      <path class="cls-2" d="M280.41,186.49c.07,1.48.31,2.14-1.46,1.89-.69-3.67,1.28-1.84,1.46-1.89Z"/>
      <path class="cls-2" d="M299.94,163.84l.49,3.54c-1.01-2.21-1.71-.74-2.44-.7-.16,0-.35-.04-.49,0-.17.05-.38-.06-.49,0-.3.15-1.15-.26-1.46.24-.18.29-.53,6.28-.49,6.61.05.39.96.19.97.24.67,2.18,1.93,2.4.97,5.67-10.97.19-21.96-.14-32.95,0l-.73-15.34c12.12-1.05,24.43-.19,36.6-.24h.01Z"/>
      <path class="cls-2" d="M281.88,171.39c-.67.55-1.38,0-.97,2.36-.14.1-.21,1.05-.97.24.57-1.17.38-2.32.49-3.54,1.34.26.8-.68.97-.94.05-.08.73.21.97-.24.39-.69-.92-3.46,1.47-2.36.78,2.9-1.27,12.05-.97,4.25-.77-.8-.79.09-.97.24h-.01Z"/>
      <path class="cls-2" d="M266.75,167.14c.7,1.42-1.22,3.7,1.46,3.3v.94c-1.56-.25-2.09,1.99-.97,2.83-.2.46.08.9.49,1.18-1.32.89-2.46.63-2.93-1.18,1.43-.45,1.83-4.24,0-4.25,0-.03-.05.02,0-.48,1.49.24.88-1.24.97-2.36.14-.06.75-.05.97,0h0Z"/>
      <path class="cls-2" d="M268.21,170.45c-2.68.4-.76-1.88-1.46-3.3.08.01,1.02-1.23,1.46-.24.18.41-.03,2.72,0,3.54Z"/>
      <path class="cls-2" d="M264.79,174.22c-.22-.85-.03-3.17,0-4.25,1.83,0,1.43,3.79,0,4.25Z"/>
      <path class="cls-2" d="M268.21,171.39c-.12,3.03-.83,2.47-.97,2.83-1.12-.84-.58-3.08.97-2.83Z"/>
      <path class="cls-2" d="M281.39,169.5c-.18.26.36,1.22-.97.94.13-1.43-.22-3.29.73-4.25l.25,3.3h0Z"/>
      <path class="cls-2" d="M265.77,167.14c-.09,1.12.52,2.61-.97,2.36.08-.71-.18-2.16,0-2.6.42-.99.93.25.97.24Z"/>
      <path class="cls-2" d="M281.88,171.39c.12.93-.19,1.78-.97,2.36-.4-2.36.3-1.81.97-2.36Z"/>
      <path class="cls-2" d="M309.69,163.84c.05,3.76-.66,10.96,0,14.16-3.73,2.23-8.29,1.34-12.69,1.42.96-3.27-.3-3.47-.97-5.67l.97-7.08c.12-.06.33.05.49,0l1.22,3.3-.73-3.3c.73-.04,1.44-1.49,2.44.7l-.49-3.54c3.23-.01,6.51-.12,9.76,0h0Z"/>
      <path class="cls-2" d="M297.01,166.66l-.97,7.08s-.92.16-.97-.24c-.04-.33.31-6.32.49-6.61.31-.5,1.17-.09,1.46-.24h-.01Z"/>
      <path class="cls-2" d="M297.49,166.66c.14-.04.34,0,.49,0l.73,3.3-1.22-3.3Z"/>
      <path class="cls-2" d="M298.23,170.91c1.39-.02.75,3.3,0,3.3l-.73-1.18.73-2.12Z"/>
      <path class="cls-2" d="M62.25,144.48c-1.65,3.07-.88,7.3-1.47,10.86-10.26.29-20.46.76-30.74,0-.09-3.37.05-8.1-.49-11.32,3.19-2.89,2.68.22,3.18.48,1.65.8,4.85-3.69,7.81,0-.03-.58-.71-4.62-.49-4.72,5.46-2.52,1.57,3.67,2.44,4.25,2.57-1.79,3.63-.48,5.37,0,.65-.36-1.78-7.77,3.18-3.54-2.88,4.7,1.01,2.53,4.64,3.54-2.41.34-.19-5.48,1.96-4.71.89.31-1.14,5.58,4.64,5.19v-.03Z"/>
      <path class="cls-2" d="M32.48,125.13c.67.12.45.46.49.48-1.06,6.94.83,6.42,7.08,6.13.58-.4.08-4.21.25-5.19,2.15-.04,4.25.03,6.34,0-1.69,6.88,2.45,4.61,7.56,5.19l.73-4.71c.14,0,1.14-1.38,2.44-1.42.22,0,3.58.95,3.9.94-.56,1.2.56,4.64.49,5.19-.16,1.32-.88,3.67-2.19,4.25-.83.36-3.7-.88-3.66.94-9.92,0-19.88-.28-29.77.48-.86-4.07-.22-8.19-.97-12.28,2.22.15,5.34-.35,7.33,0h-.01Z"/>
      <path class="cls-2" d="M60.79,155.34c3.86-.11,7.82.09,11.71,0,.01.45.48.49.49.94-3.57-.44-7.24.39-10.74.48-10.87.25-21.81-.55-32.7-.48,0-.45.51-.5.49-.94,10.28.76,20.49.29,30.74,0Z"/>
      <path class="cls-2" d="M72.99,156.28c.04,1.57.01,3.16,0,4.71,0,.94.01,1.89,0,2.83-.09,5.1.06,10.23,0,15.34-.56,1.2-10.07.62-12.2.7l.49-9.44c.39,1.62,3.23,2.63,4.64,1.89,1.26-.66,1.44-13.89-1.71-10.14-.3.36.87,8.13-.73,9.2-1.26-2.01,1.52-9.81-2.19-9.44.13-1.47,1.13-3.57.97-5.19,3.5-.07,7.17-.91,10.74-.48h-.01Z"/>
      <path class="cls-2" d="M72.5,143.54c1.28,4.07-.12,7.84,0,11.8-3.89.09-7.84-.11-11.71,0,.58-3.56-.18-7.78,1.47-10.86,1.23-.59-2.2-7.09,3.41-4.49l.25,4.01c1.88-2.22,4.72,2.17,3.41-2.36,1.62-.34,2,1.62.73,2.12l2.44-.24h.01Z"/>
      <path class="cls-2" d="M77.38,125.61c-1.15,3.65-.1,7.62-.49,11.32h-20.99c-.04-1.83,2.83-.58,3.66-.94,1.32-.58,2.05-2.93,2.19-4.25,2.24,1.39,5.73,1.83,6.83-.48.71-1.49.74-4.03.49-5.67,3.22-.24,5.8.14,8.3,0h.01Z"/>
      <path class="cls-2" d="M72.99,180.83v34.46c-4.21-.04-8.54-.44-12.69-.48.18-6.04-.25-12.14,0-18.17,0-.26.97-1.1.97-1.18,9,3.12,4.32-5.34,5.37-10.62l-5.37-.24c-.1-1.59-.6-2.29-.97-3.77,4.24-.06,8.49.05,12.69,0Z"/>
      <path class="cls-2" d="M61.28,170.45c-.31-1.32-.14-6.86,0-8.5,3.71-.38.93,7.44,2.19,9.44,1.59-1.08.43-8.84.73-9.2,3.15-3.75,2.97,9.48,1.71,10.14-1.41.75-4.25-.26-4.64-1.89h.01Z"/>
      <path class="cls-2" d="M69.09,125.61c.25,1.64.22,4.18-.49,5.67l-.73-4.71c-3.99-.85-1.21,4.84-1.96,5.19-4.1-.54-3.18-1.03-3.18-4.71.31,0,.67.05.97,0,1.78-.33,1.47-1.4,1.71-1.42,1.21-.09,2.46.09,3.66,0h.01Z"/>
      <path class="cls-2" d="M62.75,127.02c0,3.7-.93,4.19,3.18,4.71.74-.35-2.04-6.04,1.96-5.19l.73,4.72c-1.1,2.29-4.58,1.87-6.83.48.06-.55-1.04-3.99-.49-5.19,1.66-.07.88.49,1.47.48Z"/>
      <path class="cls-2" d="M72.02,141.18c1.39,1.22.93,2.76,3.18,1.42,1.01-.6,1.56-4.21,1.71-5.67h-20.99.01c-9.92,0-19.88-.28-29.77.46.01.06-1.01.27-.49,1.18,1.17,2.06,2.35.74,2.93,1.42.48.56-.73,2.11-.49,2.83.16.5,1.45,1.09,1.47,1.18,3.19-2.88,2.68.24,3.18.48,1.65.8,4.85-3.69,7.81,0-.04-.56-.71-4.61-.49-4.71,5.46-2.52,1.57,3.67,2.44,4.25,2.57-1.79,3.63-.48,5.37,0,.65-.36-1.76-7.78,3.18-3.54-2.88,4.69,1.01,2.53,4.64,3.54-2.41.35-.19-5.47,1.96-4.72.89.31-1.13,5.58,4.64,5.19,1.23-.6-2.22-7.1,3.41-4.49l.25,4.01c1.87-2.22,4.72,2.17,3.41-2.36,1.62-.35,1.98,1.62.73,2.12l2.44-.24c-.26-.82-.39-2.28-.49-2.36ZM72.02,141.18c-1.39-1.22-1.76-3.46-5.37-1.18-.47,1.67,4.85.79,5.37,1.18Z"/>
      <path class="cls-2" d="M32.73,139.76h3.41l.25,2.12-3.66.24v-2.36Z"/>
      <path class="cls-2" d="M72.02,141.18c-.52-.39-5.83.49-5.37-1.18,3.6-2.28,3.99-.03,5.37,1.18Z"/>
      <path class="cls-2" d="M60.29,180.83c.38,1.48.87,2.18.97,3.77.23,3.32.13,7.49,0,10.86,0,.07-.96.91-.97,1.18-.25,6.04.18,12.14,0,18.17-10.17-.07-20.54.46-30.74.48-.52-11.62.48-23.34.49-34.92,10.07.41,20.16.6,30.26.48h-.01Z"/>
      <path class="cls-2" d="M39.56,184.13c1.69.36,1.58,11.07,1.22,11.56-.39.54-5.42.35-5.86-.48l.49-10.38c.86.11,3.94-.75,4.15-.7Z"/>
      <path class="cls-2" d="M38.1,186.49c1.71-.43.48,6.03.49,6.61-1.17-.48-1.05-6.47-.49-6.61Z"/>
      <path class="cls-2" d="M61.28,195.47c.13-3.37.23-7.52,0-10.86l5.37.24c-1.05,5.28,3.63,13.74-5.37,10.62Z"/>
      <path class="cls-2" d="M63.47,188.38c1.31.79,1.04,4.73,0,5.67-.4-1.79-.4-3.86,0-5.67Z"/>
      <path class="cls-2" d="M63.47,186.49c.41-.26,1.72.34,1.71.7-.06,1.05-3.45.44-1.71-.7Z"/>
      <path class="cls-2" d="M62.25,156.76c.16,1.62-.84,3.72-.97,5.19-.14,1.63-.31,7.19,0,8.5l-.49,9.44c-10.27.45-20.5.69-30.74-.48,0-7.6-.31-15.5-.49-23.12,10.89-.08,21.84.73,32.7.48h0Z"/>
      <path class="cls-2" d="M36.14,161.47c.58-.29,4.29.48,4.64,1.18.23.48.21,10.31-.25,10.62-.79.09-4.91-.43-5.12-.7-.34-.45-.17-10.65.73-11.1Z"/>
      <path class="cls-2" d="M37.6,163.84c1.93-.94.4,6.37.49,6.61-.64-.33-.79-6.46-.49-6.61Z"/>
      <path class="cls-2" d="M54.93,127.02l-.73,4.71c-5.12-.58-9.24,1.69-7.56-5.19,2.53-.02,5.74.56,8.3.48h-.01Z"/>
      <path class="cls-2" d="M51.76,127.49c1.22-.04.8,2.19.49,2.83-.96.56-.95-2.43-.49-2.83Z"/>
      <path class="cls-2" d="M40.29,126.55c-.17.98.35,4.79-.25,5.19-6.24.29-8.14.8-7.08-6.13.08.01-.1,1.17.73,1.42,1.83.54,4.89-.44,6.59-.48h.01Z"/>
      <path class="cls-2" d="M38.59,127.49c.26.7.8,3.21-.49,3.3-.41-1.02-.58-2.57.49-3.3Z"/>
      <path class="cls-2" d="M29.07,114.75c-.92,2.28-2.7,2.52-2.93,2.83.54-1.72-1.62-9.39,1.71-8.97,3.33.43.79,4.19.73,4.49-.26,1.47.52,1.57.49,1.65h0Z"/>
      <path class="cls-2" d="M81.78,121.36c1.8,3.8-.48,4.04-4.4,4.25-2.5.14-5.08-.24-8.3,0-1.21.09-2.45-.09-3.66,0-.23.01.06,1.09-1.71,1.42-.96-9-6.38-17.03-9.27-25.49-.18-.51-.27-1.66-.49-2.36l4.4-1.42c1,4.35,19.38,20.09,22.21,25.49.34-.74.62-1.29,1.22-1.89Z"/>
      <path class="cls-2" d="M50.05,98.7c-.67,2.77-2.46,6.09-3.41,8.97l-11.96,11.8c-3.72-1.22-1.57,1.72-1.71,3.07-.05.51-1.4.74-1.47.94-.35,1.2,2.2.11.97,1.66-1.98-.35-5.11.15-7.33,0-.97-.06-3.02.21-3.66,0-1.62-.55,3.5-5.99,4.64-7.55.23-.31,2.01-.55,2.93-2.83,2.63-1.49,13.95-16.19,15.13-16.51,1.49-.41,4.07.98,5.86.48h-.01Z"/>
      <path class="cls-2" d="M53.95,99.17c.22.7.31,1.84.49,2.36-2.28,8.49,1.74,15.88,2.93,24.08-1.3.04-2.3,1.42-2.44,1.42-2.55.09-5.77-.5-8.3-.48-2.1.03-4.19-.04-6.34,0,1.17-6.63,4.25-12.58,6.34-18.88.95-2.87,2.74-6.19,3.41-8.97.04-.15-.04-.33,0-.48l2.93-.94c.14.56.79,1.29.97,1.89Z"/>
      <path class="cls-2" d="M63.72,127.02c-.3.05-.66,0-.97,0-.58,0,.19-.55-1.47-.48-.32.01-3.68-.95-3.9-.94-1.18-8.19-5.21-15.57-2.93-24.08,2.89,8.46,8.31,16.49,9.27,25.49Z"/>
      <path class="cls-2" d="M46.64,107.68c-2.09,6.31-5.17,12.25-6.34,18.88-1.7.03-4.77,1-6.59.48-.84-.25-.65-1.4-.73-1.42-.04,0,.18-.35-.49-.48,1.22-1.53-1.32-.45-.97-1.65.06-.2,1.41-.44,1.47-.94.14-1.34-2.01-4.29,1.71-3.07l11.96-11.8h-.01Z"/>
      <path class="cls-2" d="M51.52,28.37c.04,4.23.58.65,3.41,2.12-.29,1.66-1.08-.38-1.96.7-.7.87-.32,1.03-.49,1.42-1.65,3.82-1.3,15.04-.49,20.3-.79,6.07,2.46,11.69,4.4,17.23l-2.44.94-2.19-10.14c-3.06,3.41,1.94,12.94-5.61,9.2,2.04-4.31,3.81-9.1,3.41-13.92,1.84-8.36-.7-22.17,1.47-28.31h.49v.48h.01Z"/>
      <path class="cls-2" d="M57.86,76.05c0,4.21-.21,8.54,0,12.74h-13.67c.49-3.75-.05-7.2,0-10.86h.97c-.17,1.12.66,10.52,1.71,10.38,1.96-1.92-1.05-5.45,2.93-4.71.84.6-.75,4.15,1.47,4.25l1.47-4.71c4.07,1.43.56,3.14,2.93,5.19l.25-12.28c.97.03,1.06.65,1.96,0h-.01Z"/>
      <path class="cls-2" d="M49.08,90.68l.97.48c1.48,2.31.58,4.56,0,7.08-.04.15.04.33,0,.48-1.78.51-4.36-.89-5.86-.48.18-1.63-.25-3.64,0-5.19.14-.89-.36-1.69.73-2.36,1.37.05,2.77-.08,4.15,0h.01Z"/>
      <path class="cls-2" d="M58.35,91.15c.17,1.93-.38,4.95,0,6.61l-4.4,1.42c-.18-.6-.83-1.32-.97-1.89-1.3-5.28-2-7.94,5.37-6.13Z"/>
      <path class="cls-2" d="M57.86,88.79c0,.13.41,1.5.49,2.36-7.36-1.81-6.66.85-5.37,6.13l-2.93.94c.58-2.52,1.48-4.77,0-7.08l1.22-.48c-.73-.03-1.48.04-2.19,0-1.37-.08-2.77.05-4.15,0-1.1.66-.58,1.47-.73,2.36-1.3-1.07-.13-3.24,0-4.25h13.67v.03Z"/>
      <path class="cls-2" d="M52.98,32.15c.05-.3-.03-.64,0-.94.88-1.09,1.66.94,1.96-.7-2.84-1.48-3.37,2.09-3.41-2.12,3.36-.74,15.49,1.25,5.86,2.12,7.9,2.03-1.66,3.56-4.4,1.66h-.01Z"/>
      <path class="cls-2" d="M52.98,32.15c-.06.34-.04.53-.49.48.17-.39-.22-.55.49-1.42-.03.3.05.65,0,.94Z"/>
      <path class="cls-2" d="M57.86,76.05c-.88.65-.99.03-1.96,0-2.81-.09-10.28-1.03-10.74,1.89h-.97c.04-2.68-1.01-6.86-.97-7.79.06-1.62,5.46-9.92,6.34-13.92.39,4.82-1.37,9.62-3.41,13.92,7.56,3.74,2.55-5.79,5.61-9.2l2.19,10.14,2.44-.94c-1.93-5.53-5.19-11.16-4.4-17.23.93,6.06,6.46,13.42,6.83,15.81.31,1.99-.97,5.29-.97,7.31Z"/>
      <path class="cls-2" d="M50.79,71.32c1.63-.41,1.87,4.03.97,4.25-2.94,1.2-1.89-4.01-.97-4.25Z"/>
      <path class="cls-2" d="M45.9,71.32c1.31-.5,2.88,2.36,1.47,3.3-2.04,1.37-2.9-2.75-1.47-3.3Z"/>
      <path class="cls-2" d="M55.17,71.32c1.15-.26,1.92,2.93.49,3.3-1.43.36-1.69-3.03-.49-3.3Z"/>
      <path class="cls-2" d="M50.05,91.15l-.97-.48c.73.04,1.47-.03,2.19,0l-1.22.48Z"/>
      <path class="cls-2" d="M55.91,76.05l-.25,12.28c-2.37-2.06,1.14-3.76-2.93-5.19l-1.47,4.71c-2.22-.1-.62-3.64-1.47-4.25-3.98-.74-.97,2.81-2.93,4.71-1.04.14-1.88-9.27-1.71-10.38.45-2.91,7.92-1.97,10.74-1.89h.01Z"/>
      <path class="cls-2" d="M48.59,79.35c.09-.06.57.08.49-.48,2.5,6.46-3.85,2.67-.49.48Z"/>
      <path class="cls-2" d="M53.23,79.35c2.31-.04,1.26,3.29,0,3.3-1.63.03-1.72-3.27,0-3.3Z"/>
      <path class="cls-2" d="M49.08,78.88c.08.54-.39.41-.49.48l.25-1.89c1.61.09.13,1.13.25,1.42Z"/>
      <path class="cls-2" d="M214.04,101.53c-.21,2.21-.43,4.89-.49,7.08h-43.44c-.09-2.42-1.28-5.09,0-7.55l43.93.48h0Z"/>
      <path class="cls-2" d="M197.93,33.09s-1.04-.38-.97.7c.08,1.54,6.73,11.29,4.88,14.87-2.33.06-4.34.51-6.83.48l-2.19-15.57-1.22,15.57c-2.85-.08-5.73.3-8.54-.48-.86-1.12.15-2.51.25-3.3.51-4.24,2.72-8.69,5.37-12.04-.23-1.03-3.36-.36-3.9-.24-.75-.65,0-.9,0-.94l13.42-.48c.7.59-.14.88-.25,1.42Z"/>
      <path class="cls-2" d="M215.5,96.82c-.23,1.58-1.32,3.25-1.47,4.71l-43.93-.48c-2.06-1.37-1.1-3.07-1.46-4.71l46.85.48h.01Z"/>
      <path class="cls-2" d="M183.29,45.37c-2-.01-.36,3.2-1.22,3.77-.65.44-9.49.44-9.52-2.36-.34-3.39-1.48-13.63,2.68-5.67,2.02-2.97,5.82-7.15,9.52-8.03.54-.13,3.67-.79,3.9.24-2.65,3.35-4.86,7.8-5.37,12.04Z"/>
      <path class="cls-2" d="M176.94,64.71c1.85,1.23-4.02,6.45-3.9,6.85,3.06,1.2,6.34.61,9.52.7.38,0,0-.97.73-.94.22,0,1.27.98,3.9.94,2.89-.05,5.91.2,8.79,0,1.13-.08,3.81.45,4.4-.7.01-2.29-1.01-5.73-3.41-6.37.08-.71,1.41-.54,1.96-.48,3.35.4,3.99.39,7.33,0,.31-.04.66,0,.97,0h1.47c.6,2.97,4.55,4.1,5.86,6.85l-2.93,1.66-39.54-.48h-2.19l-.25-1.66c1.79-3.39,4.77-3.15,5.37-6.85.74.58,1.22.36,1.96.48h-.03Z"/>
      <path class="cls-2" d="M208.67,54.81h-1.47c-.01-.31.03-.64,0-.94-.1-1.23-.45-2.34-.25-3.77-2.55-.78-2.98.89-3.18.94-.91.25-2.84-.53-3.41.7-.39.83.53,1.78.49,2.6h-1.47c-2.32-.82-4.86-1.64-7.33-1.89.35-2.8-6.9-2.83-5.86.24.73.94,1.75.15,2.93.24-2.88,2.85-.67,7.69-1.71,11.32-2-2.66.74-9.2-2.68-10.86v-.48c-.05-1.12-.22-1.13-.49-1.89-.25-.7.76-1.23.25-1.42-1.24-.03-8.44-.14-8.54.7-.03.21,2.96,2.98-.97,3.07-.65-5.43-2.17-3.08-2.93-4.49-.54-.99.49-2.02.49-2.12.03,2.81,8.87,2.8,9.52,2.36.87-.58-.78-3.79,1.22-3.77-.09.8-1.1,2.19-.25,3.3,2.81.78,5.68.39,8.54.48,1.13.04,2.28-.03,3.41,0,2.49.05,4.5-.41,6.83-.48,1.88-.05,6.37,1.23,8.3.24-.62-2.26.56-6.36,0-8.03-.22-.66-.82.36-1.47-.24l2.44-2.6c-.76,2.19.82,8.98.49,10.38-.18.78-2.7,1.84-2.93,2.36-.08.19.05,3.31,0,4.01v.04Z"/>
      <path class="cls-2" d="M197.93,33.09c.31.03.67-.05.97,0,3.36.61,7.27,5.25,9.76,7.55.65.6,1.24-.44,1.47.24.56,1.67-.62,5.76,0,8.03-1.93.99-6.42-.29-8.3-.24,1.85-3.59-4.8-13.33-4.88-14.87-.05-1.09.96-.65.97-.7Z"/>
      <path class="cls-2" d="M184.27,51.03c-.93.18-2.68-.25-3.41,0-1.21.41-1.5,11.05-.97,12.04.29.54,3.64,1.13,4.4.7,0,.05.75-.03.49.94-2.85-.08-4.5.48-7.81,0-.74-.11-1.22.1-1.96-.48.34-2.07.26-8.68,0-10.86,3.93-.08.95-2.85.97-3.07.1-.85,7.3-.73,8.54-.7.52.19-.49.71-.25,1.42h-.01Z"/>
      <path class="cls-2" d="M174.02,109.08c-.74,6.76,1.34,3.67,2.19,4.25.69.45,1.58,2.28,1.71,2.36-1.65.53-1.69,2.78-2.44,3.77-.03.03-1.71-.01-.49.48l-4.88,1.42v-1.89c-.04-3.45.1-6.93,0-10.38,1.28.07,2.63-.11,3.9,0Z"/>
      <path class="cls-2" d="M174.5,75.57c-.83,3.27-1.85,7.82,2.93,6.61.09.99.03,1.49,0,2.36-3.99-1.67-4.37,3.74-2.93,4.25-2.15,3.8-3.57,1.97-7.33,1.89.32-2.9,5.21-.3,5.86-2.12.25-.68-.62-12.85-.97-14.4l9.52-.48c-2.92,1.48-6.48-.45-7.08,1.89h0Z"/>
      <path class="cls-2" d="M208.67,54.81c-.17,2.13-.38,8.08,0,9.91h-1.47c-.14-3.29.21-6.63,0-9.91h1.47Z"/>
      <path class="cls-2" d="M214.04,138.35v1.42h-43.93v-1.42h43.93Z"/>
      <path class="cls-2" d="M182.31,119.47h-6.83c.76-.99.8-3.25,2.44-3.77.43.3,4.81.94,4.4,3.77Z"/>
      <path class="cls-2" d="M213.54,109.08c0,3.33,1.01,6.97.49,10.38-1.02.14-1.98.28-2.93.7l2.93.7c-.58,5.08,0,12.14,0,17.47h-43.93c-.01-5.66.04-11.34,0-16.99l4.88-1.42,7.33-.48c.43-2.83-3.97-3.49-4.4-3.77-.12-.09-1.01-1.91-1.71-2.36-.87-.56-2.93,2.51-2.19-4.25,13.19,1.18,26.39-.05,39.54,0h0Z"/>
      <path class="cls-2" d="M213.54,108.62v.48c-13.15-.05-26.35,1.18-39.54,0-1.27-.11-2.62.08-3.9,0v-.48h43.44Z"/>
      <path class="cls-2" d="M214.04,119.47c.16-.03.32,0,.49,0,.23.73-.43.92-.49,1.42l-2.93-.7c.95-.44,1.91-.56,2.93-.7h0Z"/>
      <path class="cls-2" d="M195.49,119c-.31.04-.73-.07-.97,0l-5.86-.7c-1.4-1.68,4.64-7.12,6.83.7Z"/>
      <path class="cls-2" d="M204.03,115.22c1.76-.33,3.42.93,3.66,2.6l-6.09.7c-.47-1.09,1.65-3.16,2.44-3.3Z"/>
      <path class="cls-2" d="M194.51,126.55l-4.88-.94c-.13-4.61,5.72-1.33,4.88.94Z"/>
      <path class="cls-2" d="M205.99,130.32c1.45-1.13,1.52,6.35.49,6.61-2,.51-.78-6.38-.49-6.61Z"/>
      <path class="cls-2" d="M204.03,130.32c.87.2.95,6.13-.97,6.13-.41-.84-.7-6.52.97-6.13Z"/>
      <path class="cls-2" d="M190.85,130.8c.69,0,1.58,6.13-.97,5.19-.27-.1-.19-4.72.97-5.19Z"/>
      <path class="cls-2" d="M192.81,130.8c1.69.4,1.61,5.61.49,5.67-1.83-1.47-.62-3.66-.49-5.67Z"/>
      <path class="cls-2" d="M194.51,119c.25-.08.66.04.97,0,.01.06,1.63-.19.73.94h-8.3c1.45-2.03,4.08-.23,6.59-.94h.01Z"/>
      <path class="cls-2" d="M194.51,126.55c-.09.25.2.73-.25.94-2.87-.38-4.54,1.35-4.64-1.89l4.88.94h.01Z"/>
      <path class="cls-2" d="M203.05,112.39c1.69-.34,3.51.35,5.12.7-2.37,1.13-5.39-1.07-7.08,1.65-.8-.93,1.58-2.28,1.96-2.36Z"/>
      <path class="cls-2" d="M190.36,112.39c.83-.15,4.66,0,4.64,1.18l-5.62.24c-.84-.59.78-1.38.97-1.42Z"/>
      <path class="cls-2" d="M200.62,119.47c2.83.14,5.74-.29,8.54.24,0,.41-7.85.51-8.54-.24Z"/>
      <path class="cls-2" d="M175.48,119.47h6.83l-7.33.48c-1.22-.49.47-.45.49-.48Z"/>
      <path class="cls-2" d="M177.19,130.8c1.91-.45,1.39,2.14.49,2.36-1.28.31-1.7-2.07-.49-2.36Z"/>
      <path class="cls-2" d="M180.12,134.1c1.18.25.91,2.02.49,2.36-1.35,1.1-2.31-2.75-.49-2.36Z"/>
      <path class="cls-2" d="M177.68,133.63c.66.46.42,3.75-.97,2.83-1.14-.74.51-3.16.97-2.83Z"/>
      <path class="cls-2" d="M179.62,130.8c1-.73,1.8,2.37.49,2.36-1.18,0-.86-2.08-.49-2.36Z"/>
      <path class="cls-2" d="M213.54,182.71c1.22,10.11-.52,23.17-.49,33.51-2.63,0-5.82-.39-8.3.48-1.22,0-.92-.48-.97-.48v-16.05c-.17-4.83-2.09-9-7.33-10.86-6.69-2.37-15.27.58-17.08,7.79-1.19,4.75.64,14.81-.49,18.41-.13.43-.82-.11-1.47.7-2.41.01-5.13-.51-7.33-.48v-35.4c14.34.04,28.81-1,43.19-.48.51.35.17,2.16.25,2.83v.02Z"/>
      <path class="cls-2" d="M177.43,82.18c-4.78,1.22-3.76-3.34-2.93-6.61,4.14-.05,2.68,4.05,2.93,6.61Z"/>
      <path class="cls-2" d="M177.43,84.54c-.04,1.44.12,2.63.49,4.01-.27.31-3.01.38-3.41.24-1.44-.51-1.08-5.91,2.93-4.25h-.01Z"/>
      <path class="cls-2" d="M211.6,73.22c-.34,3.75-1.01,8.08-.97,11.8-3.58-2.65-5.61,2.51-4.64,3.3.13.11,2.76.09,3.41.48.51.3-.12,2.02.97,2.36.29.09,4.95-1.04,6.09-.48.05.3-.84,5.19-.97,6.13l-46.85-.48c-.18-.84.1-2.11,0-3.07-.01-.15-1.6-1.38-1.46-2.6,3.76.08,5.17,1.92,7.33-1.89.4.14,3.15.08,3.41-.24-.36-1.38-.53-2.57-.49-4.01.03-.87.09-1.37,0-2.36-.25-2.56,1.21-6.66-2.93-6.61.6-2.34,4.15-.4,7.08-1.89l-9.52.48c-.1-.44.07-.97,0-1.42l39.54.48v.03Z"/>
      <path class="cls-2" d="M210.61,85.02c.08,8,2.18,2.51,5.62,4.25.47.34.17.94.25,1.42-1.15-.56-5.81.56-6.09.48-1.09-.34-.48-2.06-.97-2.36-.65-.39-3.28-.36-3.41-.48-.97-.8,1.06-5.94,4.64-3.3h-.03Z"/>
      <path class="cls-2" d="M207.45,75.57c2.78-1.17,2.97,5.05,2.44,6.61-4.89,1.82-4.23-5.86-2.44-6.61Z"/>
      <path class="cls-2" d="M201.59,76.05c3.55-1.12,4.71,8.56-1.22,5.89.14-1.62-.64-5.32,1.22-5.89Z"/>
      <path class="cls-2" d="M191.83,83.6c4.25-1.87,6.47,7.81-1.22,4.95.95-1.2-.14-4.35,1.22-4.95Z"/>
      <path class="cls-2" d="M180.12,84.54c4.01-1.73,4.65,3.65,2.93,4.25-2.92,1.02-5.38-3.18-2.93-4.25Z"/>
      <path class="cls-2" d="M200.62,84.54c3.93-1.68,4.54,3,3.41,3.77-2.9,1.99-6.18-2.58-3.41-3.77Z"/>
      <path class="cls-2" d="M193.78,76.05c2.13-.35,2.78,4.63,1.96,5.19-3.29,2.29-4.4-4.79-1.96-5.19Z"/>
      <path class="cls-2" d="M182.31,76.51c-2.19.2-.34,4-.49,5.67-4.36.78-2.99-8.15.49-5.67Z"/>
      <path class="cls-2" d="M190.85,75.57c2.01.1,1.18,7.36-.97,5.67-.31-.24-1.18-5.77.97-5.67Z"/>
      <path class="cls-2" d="M182.31,76.51c1.66,1.19.75,3.69.97,5.43-.25.45-1.02.16-1.47.24.16-1.67-1.7-5.45.49-5.67Z"/>
      <path class="cls-2" d="M195,49.14c-1.13-.03-2.28.04-3.41,0l1.22-15.57,2.19,15.57Z"/>
      <path class="cls-2" d="M184.76,64.71c.47,0,.51.46.97.48l-2.44,6.13c-.74-.01-.36.95-.73.94-3.18-.09-6.46.49-9.52-.7-.12-.39,5.76-5.62,3.9-6.85,3.31.48,4.95-.08,7.81,0Z"/>
      <path class="cls-2" d="M207.2,53.87c-2.06,2.8-1.06,7.7-.97,10.86-3.33.39-3.98.4-7.33,0,.09-1.12-.52-2.61.97-2.36.09.53-.26,1.53.25,1.89.17.13,4.03-.54,4.15-.7.54-.75-.44-5.13-.49-6.37-.08-1.71.34-4.26,0-6.13.19-.05.62-1.73,3.18-.94-.21,1.43.13,2.56.25,3.77v-.03Z"/>
      <path class="cls-2" d="M193.04,65.19c-1.17,3.03,3.68,3.8,2.93,7.08-2.88.2-5.89-.05-8.79,0l2.93-7.08c.96.06,1.97-.1,2.93,0Z"/>
      <path class="cls-2" d="M196.96,65.19c2.41.64,3.44,4.09,3.41,6.37-.58,1.15-3.27.63-4.4.7.75-3.27-4.1-4.04-2.93-7.08,1.15.13,2.98-.24,3.9,0h.01Z"/>
      <path class="cls-2" d="M190.13,65.19l-2.93,7.08c-2.63.04-3.68-.94-3.9-.94l2.44-6.13c1.41.04,2.9-.1,4.4,0h0Z"/>
      <path class="cls-2" d="M207.2,53.87c.03.31-.01.64,0,.94.21,3.27-.14,6.63,0,9.91-.32,0-.66-.04-.97,0-.09-3.16-1.09-8.05.97-10.86h0Z"/>
      <path class="cls-2" d="M180.84,51.03l1.71,6.13,2.19-4.25v.48c.05,2.98-1.14,7.35-.49,10.38-.75.43-4.11-.18-4.4-.7-.53-.99-.22-11.62.97-12.04h.01Z"/>
      <path class="cls-2" d="M199.4,54.33h1.47c-.03.46.06.97,0,1.42-.25,1.79-.87,3.4-.97,4.72l-2.19,3.3c0-.78-1.09-8.88-.73-9.2.48-.43,1.75-.24,2.44-.24h-.01Z"/>
      <path class="cls-2" d="M203.79,51.03c.34,1.87-.08,4.43,0,6.13l-2.93-1.42c.06-.45-.03-.95,0-1.42.04-.82-.88-1.77-.49-2.6.58-1.23,2.51-.46,3.41-.7h.01Z"/>
      <path class="cls-2" d="M184.27,51.03c.27.75.44.76.49,1.89l-2.19,4.25-1.71-6.13c.74-.25,2.48.18,3.41,0h0Z"/>
      <path class="cls-2" d="M192.07,52.45c-.14-.01-1.65.56-2.93.48-1.18-.09-2.2.71-2.93-.24-1.05-3.06,6.21-3.03,5.86-.24Z"/>
      <path class="cls-2" d="M214.04,139.76c0,6.43.17,12.93,0,19.35h-43.93c-.08-6.45.03-12.9,0-19.35h43.93Z"/>
      <path class="cls-2" d="M192.57,142.6c-.4,1.54,1.39,2.63-.49,3.07l1.96.24c-.03.43.1,1.18,0,1.42-1.36-.41-1.74-.45-2.44.94-.16,0-.35.02-.49,0l-1.47-.94c-.23-1.05.49-.89.49-.94,1.5.85,1.66-2.71.97-3.77.38-1.17.92-.31,1.46,0h0Z"/>
      <path class="cls-2" d="M177.68,152.51c1.26.75.87,7.16-.97,5.67-.56-.45-.61-5.23.97-5.67Z"/>
      <path class="cls-2" d="M203.55,152.51c1.8-.55.74,5.47.49,5.67-1.65,1.3-1.72-5.28-.49-5.67Z"/>
      <path class="cls-2" d="M179.15,152.98c2.04-1.23,2.05,4.19,1.46,5.19-1.75.54-1.71-5.04-1.46-5.19Z"/>
      <path class="cls-2" d="M190.36,153.46c1.87-.18.99,3.84.49,4.72-1.93-.43-.54-3.57-.49-4.72Z"/>
      <path class="cls-2" d="M192.81,153.46c.82-.48,2.52,6.81-.73,4.49-.19-.14,1.24-3.65.73-4.49Z"/>
      <path class="cls-2" d="M205.99,152.04c1.39.75,1.35,2.58.49,3.77l-.49-3.77Z"/>
      <path class="cls-2" d="M194.03,145.9l-1.96-.24c1.87-.44.09-1.52.49-3.07.18.11,1.15-.07,1.46.7.14.34.03,2.01,0,2.6h0Z"/>
      <path class="cls-2" d="M190.13,146.37c.01-1.35-.49-3.34.97-3.77.69,1.07.53,4.63-.97,3.77Z"/>
      <path class="cls-2" d="M194.03,147.31c-.65,1.44-.52.89-2.44.94.7-1.39,1.09-1.37,2.44-.94Z"/>
      <path class="cls-2" d="M205.99,156.76c1.18-.26,1.65,1.63.49,1.89-.8.18-1.46-1.67-.49-1.89Z"/>
      <path class="cls-2" d="M191.1,148.27c-1.17-.25-1.13.59-1.47-.94l1.47.94Z"/>
      <path class="cls-2" d="M213.54,161.47c-.19,5.72.14,11.5,0,17.23l-43.19.24c.03-5.78-.68-11.72-.73-17.47,0-.05.49.24.49-.94,13.69-.04,27.55-.39,41.25,0,.9.02,2.41-.48,2.19.94h-.01Z"/>
      <path class="cls-2" d="M214.04,159.11c0,.46.01.95,0,1.42-.04,1.19-.49.89-.49.94.21-1.42-1.31-.92-2.19-.94-13.69-.39-27.54-.04-41.25,0v-1.42h43.93Z"/>
      <path class="cls-2" d="M192.81,172.33c1.62.48,1.7,5.35.49,5.67-2.48-.53.07-3.81-.49-5.67Z"/>
      <path class="cls-2" d="M205.99,172.33c1.19-.1,2.1,6.99-.73,4.95,1.14-.85-.57-4.85.73-4.95Z"/>
      <path class="cls-2" d="M178.9,172.81l.49,4.71c-.86.41-.97.83-1.96,0l.49-4.71c1.25-.6.57-.14.97,0Z"/>
      <path class="cls-2" d="M179.39,177.52l-.49-4.71c3.04,1.01,2.92,3.54.49,4.71Z"/>
      <path class="cls-2" d="M204.03,172.33c.12.2.62,6.47-.97,5.19-.45-.36-.79-5.02.97-5.19Z"/>
      <path class="cls-2" d="M190.36,172.81c1.71-1.37.91,4.5.49,4.71-2.14,1.13-.71-4.54-.49-4.71Z"/>
      <path class="cls-2" d="M177.93,172.81l-.49,4.71c-1.56-1.32-1.83-3.59.49-4.71Z"/>
      <path class="cls-2" d="M190.85,162.89c1.48.5.26,4.21-.49,3.77l.49-3.77Z"/>
      <path class="cls-2" d="M192.81,162.89c.71.41,1.49,3.47.97,3.77-1.66.99-1.41-3.27-.97-3.77Z"/>
      <path class="cls-2" d="M190.36,167.14l3.66.7c0,.23-4.38,1.17-3.66-.7Z"/>
      <path class="cls-2" d="M199.4,54.33c-.7,0-1.97-.19-2.44.24-.36.33.74,8.43.73,9.2l2.19-3.3c-.04.55-.09,1.39,0,1.89-1.49-.24-.88,1.24-.97,2.36-.53-.06-1.87-.25-1.96.48-.92-.24-2.76.13-3.9,0-.95-.1-1.97.06-2.93,0-1.48-.1-2.98.04-4.4,0-.47,0-.51-.46-.97-.48.27-.98-.48-.89-.49-.94-.66-3.03.54-7.4.49-10.38,3.42,1.66.69,8.2,2.68,10.86,1.04-3.64-1.17-8.49,1.71-11.32,1.28.09,2.78-.49,2.93-.48,2.46.25,5,1.08,7.33,1.89v-.03Z"/>
      <path class="cls-2" d="M191.83,55.28c3.29-.38,2.16,6.51,1.96,8.5l-3.66-.24c.23-1.86-.92-7.96,1.71-8.26h-.01Z"/>
      <path class="cls-2" d="M203.79,57.17c.05,1.24,1.04,5.63.49,6.37-.12.16-3.98.83-4.15.7-.49-.36-.15-1.35-.25-1.89-.09-.5-.04-1.34,0-1.89.1-1.32.74-2.92.97-4.72l2.93,1.42h0Z"/>
      <path class="cls-2" d="M199.4,19.41c-.6.2-.66.55-1.46.48-2.93-.28-5.81-.78-8.79-.48-1.71-1.19-3.27-2.4-5.37-.94-.22-3.7,3.67-5.68,5.86-8.5-.54,2.16-2.36,3.89-2.44,6.37,2.89,1.23,5.91-.54,8.79.94.3.15-1.49,1.59,1.22,1.18,2.14-.63-3.31-6.58-3.66-7.31-.88-1.87-.67-2.32-.97-4.01,1.45,4.4,7.92,7.22,7.81,11.56,0,.36-.97-.01-.97.7h-.01Z"/>
      <path class="cls-2" d="M192.57,1c-.03,2.23-.42,3.8,0,6.13.3,1.69.09,2.14.97,4.01.35.74,5.8,6.68,3.66,7.31-2.71.41-.92-1.03-1.22-1.18-2.88-1.48-5.9.28-8.79-.94.08-2.48,1.89-4.21,2.44-6.37,1.01-3.98,1.28-4.59,1.47-8.97h1.48Z"/>
      <path class="cls-2" d="M189.14,19.41c2.98-.3,5.85.2,8.79.48l.73,10.86h-13.17c-.22-3.7.91-7.05-.25-10.62.54-1.15,2.85-.6,3.9-.7h0Z"/>
      <path class="cls-2" d="M189.14,19.41c-1.05.11-3.36-.44-3.9.7,1.14,3.57.03,6.91.25,10.62h13.17l-.73-10.86c.8.08.87-.26,1.46-.48-.03,4.53.42,9.22-.49,13.69-.3-.05-.66.03-.97,0,.1-.54.95-.83.25-1.42l-13.42.48c-.75-4.05-.75-9.93-.97-13.69,2.11-1.44,3.66-.25,5.37.94h-.01Z"/>
      <path class="cls-2" d="M187.44,21.77c3.45-.05.58.98.73,1.66.29,1.32,1.92,3.86.25,5.89-2.59.92-.62-6.42-.97-7.55Z"/>
      <path class="cls-2" d="M196.47,26.49c-.1.66,1.89,3.16-1.71,2.83-.52-.41-.14-2.12-.25-2.83h1.96Z"/>
      <path class="cls-2" d="M190.85,26.49c1.61-1.2,2.36,2.16,1.46,2.83-1.61,1.2-2.36-2.16-1.46-2.83Z"/>
      <path class="cls-2" d="M192.57,22.71c.78,5.18-3.36,2.48-1.46-.48l1.46.48Z"/>
      <path class="cls-2" d="M196.47,25.54h-1.46c.03-.18-1.25-3.24,1.22-2.36,1.52.54.21,2.21.25,2.36Z"/>
      <path class="cls-2" d="M196.47,25.54c.25,1.08.09.38,0,.94h-1.96c-.16-1.12.48-.89.49-.94h1.46Z"/>
      <path class="cls-2" d="M195.25,21.3c.47-.3,1.39.21,1.71.7-.84.73-2.8,0-1.71-.7Z"/>
      <path class="cls-2" d="M192.57,22.71l-1.46-.48c.41-.65.79-.39,1.22-.94.47.29.18.98.25,1.42Z"/>
      <path class="cls-2" d="M196.47,189.32c-2.81,5.1-7.75,3.59-11.48,7.55l1.22.48c-2.67,3.54-1.38,14.29-.97,18.88-2.59-.02-5.21-.01-7.81,0,.64-.81,1.34-.28,1.46-.7,1.13-3.6-.7-13.66.49-18.41,1.8-7.21,10.4-10.16,17.08-7.79h0Z"/>
      <path class="cls-2" d="M203.79,200.18c.18,5.18-1.14,10.8-.49,16.05h-4.88c-.71-5.07,2.13-17.42-3.18-20.3-2.85-1.55-7.03-1.22-9.02,1.42l-1.22-.48c3.71-3.96,8.65-2.44,11.48-7.55,5.22,1.84,7.16,6.03,7.33,10.86h-.01Z"/>
      <path class="cls-2" d="M203.79,216.23h-.49c-.65-5.25.66-10.87.49-16.05v16.05Z"/>
      <path class="cls-2" d="M198.41,216.23c-4.38-.04-8.79.04-13.17,0-.4-4.58-1.7-15.34.97-18.88,2-2.63,6.17-2.97,9.02-1.42,5.29,2.88,2.46,15.24,3.18,20.3Z"/>
      <path class="cls-2" d="M170.11,180.36v35.4c-2.16.05-5.13.94-7.56.48.4,1.35,3.94,1.29,5.12,1.42l-13.67,2.36c-.91-.23-1.3.24-1.96.48-.05-3.39,2.61-.69,2.44-3.78.62-.07,1.96.23,1.71-.94-4.24.74-12.67-.99-16.35,0-.36.1-.64.31-.97.48-6.34.43-12.73-.38-19.03-.48.58-5.84.87-12.55.49-18.41l.49-15.57c.09-.61-.23-1.4.25-1.89,16.29-.24,32.73.44,49.05.48h-.01Z"/>
      <path class="cls-2" d="M120.33,197.35c-.08-1.2.51-2.91.49-3.07-.03-.28-.97-1.1-.97-1.18.01-.99.6-1.82.49-3.3,1.14-2.38.14-5.53.49-8.03l-.49,15.57h-.01Z"/>
      <path class="cls-2" d="M154.5,216.7c-4.25.51-10.54.12-14.64-.94,3.68-.99,12.11.74,16.35,0,.25,1.17-1.09.87-1.71.94Z"/>
      <path class="cls-2" d="M133.04,185.56c-1.36.8-1.52,11.98,3.41,8.73.26-.54-.58-.75-.49-1.18-1.7-.2-1.15-5.44-.49-7.08h.01c-.17-.25-.38-.84-.73-.94l-1.71.48ZM133.04,185.56c.56,1.68-.26,4.53,0,5.89.87,4.7,2.14-5.34,0-5.89Z"/>
      <path class="cls-2" d="M164.99,185.55l.49,7.55c-2.4-.12-1.24-7.55-.49-7.55Z"/>
      <path class="cls-2" d="M135.95,193.1c-1.7-.2-1.14-5.43-.49-7.08,1.06,1.52.87,5.27.49,7.08Z"/>
      <path class="cls-2" d="M150.84,186.02c1.52.29.87,7.08.49,7.08l-.49-7.08Z"/>
      <path class="cls-2" d="M148.88,189.32c1.63-.19,1.49,3.37.97,3.77-1.63.19-1.49-3.37-.97-3.77Z"/>
      <path class="cls-2" d="M166.94,186.02c.7,0,1.12,2.38.49,2.83-1.1.8-1.82-2.83-.49-2.83Z"/>
      <path class="cls-2" d="M166.94,189.32c1.56,1.05.05,2.42.49,3.77-1.28-.05-.74-3.06-.49-3.77Z"/>
      <path class="cls-2" d="M149.37,185.55c.44.29.49,3.39-.49,2.83-.48-.89-.48-2.21.49-2.83Z"/>
      <path class="cls-2" d="M136.68,183.19c.38-.05,1.91,1.22.49,1.42-1.21.18-1.4-1.3-.49-1.42Z"/>
      <path class="cls-2" d="M133.02,185.55c2.14.56.87,10.6,0,5.89-.26-1.38.56-4.23,0-5.89Z"/>
      <path class="cls-2" d="M219.9,160.53c4.95.95,10.13.36,15.13.48,9.38.21,18.48.04,27.81,0h9.78c12.34-.11,24.79.46,37.1-.48,0,1.09-.01,2.21,0,3.3-3.25-.12-6.54-.01-9.76,0-12.18.05-24.48-.83-36.6.24l.73,15.34c10.97-.14,21.98.19,32.95,0,4.41-.08,8.95.82,12.69-1.42.16.73-.25,1.32.73,1.89,3.32.12,6.69-.18,10.01,0,6.69.35,13.29.64,20.01.48,4.33-.11,8.79-.89,13.17-.48v.94h-9.27c-11.59,0-23.07-.29-34.65-.48-15.18-.25-30.41-.79-45.63-.48-2.21,1.89.13,5.44.25,6.13.28,1.79-.4,3.88.25,5.67l.73-5.67c.32,0,.66-.04.97,0,.17,1.61-.82,3.74,1.46,3.3.03.3.01.64,0,.94-2.24-.69-2.1,4.02,0,2.36-1.21,4.97-3.66.16-4.39,2.12-1.35,3.61,1.01,16.39,0,21h-.49l-.73-35.88h-47.34l-1.22,2.83c-.08-.68.26-2.48-.25-2.83-14.38-.54-28.85.5-43.19.48-16.31-.04-32.77-.71-49.05-.48-.48.48-.15,1.28-.25,1.89-.35,2.49.66,5.64-.49,8.02-.26-3.46-.83-4.68-1.47-.48h-1.96c-.04-.44-.13-.11,0-.94,1.49.35,1.49-3.18,0-2.83,1.35-1.44,1.6.5,1.71.48,2.37-.71,1.13-3.99.97-6.13-15.04.36-30.09-.18-45.15,0-2.17.02-1.37.94-1.47.94-4.19.05-8.45-.06-12.69,0-10.09.14-20.19-.05-30.26-.48v-.94c10.24,1.17,20.47.93,30.74.48,2.13-.09,11.64.5,12.2-.7.06-5.12-.09-10.23,0-15.34h1.47v14.87c1.24,1.79,11.05.2,13.17.24,10.63.2,21.3.84,31.96.48,2.58-5.73-1.43-2.03-2.68-5.19,2.11-.95-.01-5.81,0-7.55.09-.06,1.06,0,1.47,0l.73,7.55c1.26-2.43.18-5.04.25-7.55,0-.19,2.36-1.64.25-3.3-11.8.26-23.57.36-35.39.48h-2.44l38.56-2.36c16.39.05,32.87-.04,49.3,0,.06,5.74.76,11.69.73,17.47l43.19-.24c.14-5.73-.19-11.5,0-17.23,0-.05.45.24.49-.94,1.94,1.17,3.93.1,5.86,0h.01Z"/>
      <path class="cls-2" d="M120.33,189.8c.1,1.48-.47,2.31-.49,3.3-.03-.23-1.38-1.12-.97-3.77.64-4.21,1.21-3,1.47.48Z"/>
      <path class="cls-2" d="M119.36,166.66c-.07,2.51,1.01,5.12-.25,7.55l-.73-7.55h.97Z"/>
      <path class="cls-2" d="M265.28,186.02l-.73,5.67c-.65-1.79.05-3.86-.25-5.67h.97Z"/>
      <path class="cls-2" d="M272.61,161.01h-8.79c2.92,0,5.86.02,8.79,0Z"/>
      <path class="cls-2" d="M267.72,190.26c-.03.73.14,1.76,0,2.36-2.1,1.67-2.24-3.05,0-2.36Z"/>
      <path class="cls-2" d="M264.55,192.16l.73.24-.73.7-.25-.24.25-.7Z"/>
      <path class="cls-2" d="M218.19,166.2c1.61.89,1.48,6.26.49,7.55-1.23.05-.75-6.42-.49-7.55Z"/>
      <path class="cls-2" d="M221.36,167.62c-.14,1.29.58,2.18.49,2.83-2.8,2.32-2.15-6.31-.49-2.83Z"/>
      <path class="cls-2" d="M221.84,171.39c-.09.74-.38,1.14-.49,1.89-1.66,2.37-2.74-2.77.49-1.89Z"/>
      <path class="cls-2" d="M221.36,173.27c.12-.74.4-1.15.49-1.89.04-.3-.05-.64,0-.94.1-.64-.62-1.54-.49-2.83.05-.5.56-3.67.73-3.77l40.75.24-.73,15.34-42.22-.7c-.31-2.49,1.08-2.92,1.47-5.43Z"/>
      <path class="cls-2" d="M250.15,167.14c.17,1.6-.82,3.74,1.46,3.3.05.58,0,.61,0,.94-1.92-.05-1.45,1.69-1.46,3.07l.97-.24c-.23.8.53,1.13.49,1.18-.97,1.37-2.81.05-3.41-1.18,2.01-.41.53-5.09.97-7.08.29-.04.75-.06.97,0h0Z"/>
      <path class="cls-2" d="M233.32,166.66c1.62-1.29,1.6,7.55.49,7.55l-.49-7.55Z"/>
      <path class="cls-2" d="M249.18,167.14c-.44,1.99,1.04,6.66-.97,7.08-.17-.33-.71-7.02-.49-7.31.69-.86,1.39.25,1.46.24h0Z"/>
      <path class="cls-2" d="M251.61,170.45c-2.28.43-1.28-1.69-1.46-3.3.08.02.52-1.08,1.46-.24.07,1.17-.1,2.38,0,3.54Z"/>
      <path class="cls-2" d="M235.76,166.66c2.26-1.77-.43,3.95.97,3.77-2.68,1.13-1.17-3.62-.97-3.77Z"/>
      <path class="cls-2" d="M251.61,171.39c-.03,1.2-.16,1.68-.49,2.83l-.97.24c0-1.38-.45-3.12,1.46-3.07Z"/>
      <path class="cls-2" d="M235.76,171.39c1.91-.68,1.23,2.36.49,2.83-1.15.73-1.34-2.53-.49-2.83Z"/>
      <path class="cls-2" d="M163.77,173.75c-.21-1.98.42-5.4.49-7.55,4.94-.44,2.49,3.89,2.93,7.31l-1.71-3.07c-.79.83.84,4.87-1.71,3.3h0Z"/>
      <path class="cls-2" d="M165.48,167.62c.84-.5,1.04,1.64.49,1.89-.89.4-1.02-1.57-.49-1.89Z"/>
      <path class="cls-2" d="M164.26,166.2c-.08,2.15-.7,5.57-.49,7.55.23,2.17,2.53,3.22,1.22,5.67h-43.44c-1.46-1.07-.69-13.67-.49-16.05l43.44.48c.86.85-.23,1.92-.25,2.36h.01Z"/>
      <path class="cls-2" d="M132.53,173.75c2.76.51.31-2.43,2.44-3.3.04.94-.6,3.5.97,3.54v-7.31c1.36.66,3.27,11.11-2.68,8.97-1.03-.54-.54-1.3-.73-1.89Z"/>
      <path class="cls-2" d="M134.97,166.66v1.42c-1.32-.3-1.56,1.58,0,1.42,0,.31-.01.63,0,.94-2.13.88.32,3.81-2.44,3.3-.34-1-.52-6.11,0-6.85.62-.9,1.43-.29,2.44-.24h0Z"/>
      <path class="cls-2" d="M150.84,166.66c2.36.85.25,5.67.49,7.55l-.49-7.55Z"/>
      <path class="cls-2" d="M135.95,166.66v7.31c-1.57-.04-.93-2.6-.97-3.54-.01-.31,0-.63,0-.94v-2.83c.31.01.83-.07.97,0Z"/>
      <path class="cls-2" d="M148.88,169.5c2.39.46-.01,6.99-.73,3.07l.73-3.07Z"/>
      <path class="cls-2" d="M148.39,166.66c1.19-.71,1.71,1.44.97,1.89-1.19.71-1.71-1.44-.97-1.89Z"/>
      <path class="cls-2" d="M134.97,168.08v1.42c-1.56.16-1.32-1.72,0-1.42Z"/>
      <path class="cls-2" d="M353.62,180.83c.04,11.49-.22,22.99.49,34.46-4.55-.02-9.12,0-13.67,0-1.67-3.47,2.14-6.14,2.44-7.31.67-2.6-.07-10.13,0-13.46l5.37-.24c1.01-11.39-2.53-13.49-2.68-.7-1.4-2.23-.97-6.12-.25-8.26l-2.44.24c.12-1.65.36-3.36,1.46-4.71h9.27Z"/>
      <path class="cls-2" d="M339.95,136.93c5.86.04,11.72-.11,17.57.48-.57,4.1-1.6,1.68-1.96,2.6-.21.53.19,1.79,0,2.36-.47,1.3-1.44,1.09-1.47,1.18-5.91-.79.78-4.93-6.59-4.25,1.73,2.83,3.33.49,2.68,4.49-6.82-.07-2.96-.89-4.4-3.77-1.71-3.44-2.54,3.54-4.4,3.3.53.53,1.4-.05,1.96.48.03.03-.49.28-.49.7-7.88-.07-.86-5.86-6.83-4.95.45,2.8-1.37,3.06.25,4.95-1.09-1.03-5.01-.49-5.12-.7-.51-.91.86-4.18-.25-4.49-3.9-1.09-.66,4.06-2.44,4.72-1.02.39-2.58-2.14-5.12-.24-.93-1.97,3.97-5.02-2.44-3.77l.25,4.01c-2.13-1.18-2.48-1.22-6.09-.24,4.98-5.92-4.03-6.22-1.22.7-1.44-2.41-3.46-.7-4.15-.94-.08-.02-1.43-.64-1.46-.7-.15-.28-1.87-4.95-1.96-5.43,11.19-.69,22.46-.55,33.67-.48h0Z"/>
      <path class="cls-2" d="M353.62,156.28c-.29,7.81-.01,15.77,0,23.6-4.38-.43-8.84.36-13.17.48l2.44-16.51c.03,5.52-1.97,9.13,5.37,8.26v-9.44l-5.37-.24c.09-2.07.87-4.06.49-6.13,3.41-.08,6.85.05,10.24,0h0Z"/>
      <path class="cls-2" d="M354.11,143.54c-.92,2.97-.35,8.51-.49,11.8-3.75-.41-7.53.36-11.23.48-.22-3.72.48-7.66.49-11.32,0-.44.52-.68.49-.7-.54-.51-1.41.05-1.96-.48,1.85.24,2.68-6.75,4.4-3.3,1.43,2.88-2.44,3.7,4.39,3.77.65-4-.96-1.66-2.68-4.49,7.36-.68.67,3.45,6.59,4.25h0Z"/>
      <path class="cls-2" d="M358.02,125.61c-1.17,3.81.04,8-.49,11.8-5.85-.59-11.71-.43-17.57-.48,2.01-2.27,2.41-2.64,2.44-5.67-.01.65.51.45.97.48,6.55.3,7.42.97,6.83-6.13,3.05-.33,5.13.11,7.8,0h.01Z"/>
      <path class="cls-2" d="M342.39,155.82c3.68-.1,7.48-.89,11.23-.48v.94c-3.41.05-6.85-.08-10.24,0-7.77.18-15.17.21-22.94,0-3.44-.09-7.4-.3-10.74.48,0-1.35.49-1.34.49-1.42,10.7.43,21.5.78,32.21.48h-.01Z"/>
      <path class="cls-2" d="M342.88,144.48c0,3.68-.7,7.61-.49,11.32-10.71.3-21.51-.05-32.21-.48,0-3.66-1.01-7.6-.49-11.32v-.48c.69.24,2.71-1.47,4.15.94-2.81-6.93,6.2-6.62,1.22-.7,3.62-.98,3.97-.94,6.09.24l-.25-4.01c6.41-1.24,1.52,1.81,2.44,3.77,2.54-1.92,4.1.61,5.12.24,1.78-.67-1.45-5.82,2.44-4.72,1.09.31-.26,3.57.25,4.49.12.23,4.03-.33,5.12.7-1.62-1.89.22-2.16-.25-4.95,5.98-.9-1.05,4.89,6.83,4.95h.02Z"/>
      <path class="cls-2" d="M313.11,125.13c.31,1.15.32,6.16.73,6.61.22.25,5.94-.33,6.83,0l.25-5.19c.58-.33.45-.46.49-.48,1.79-.45,4.1.24,5.86.48v4.49c.8,1.33,1.39.23,1.46.24.92.19,6.22.73,6.59.48l.25-5.19c.31-.04.66.04.97,0,1.98-.28,3.88-.09,5.86,0-1.36,1.24,0,3.56,0,4.71-.03,3.01-.43,3.4-2.44,5.67-11.22-.09-22.48-.21-33.67.48-.53-3.24-.31-6.51-.97-10.38-.16-.88.78-.99,0-1.89,2.06-.01,6.05-.34,7.81,0h-.01Z"/>
      <path class="cls-2" d="M343.36,156.28c.38,2.07-.4,4.06-.49,6.13-.01.46,0,.95,0,1.42l-2.44,16.51c-6.72.18-13.32-.12-20.01-.48v-6.61c.73-.09.98-.04,1.46-.7-.87-2.66-.45-5.53-.49-8.26-.05-4-.3-2.41-.97-5.43-.03-.12,1.68-.96,0-2.6,7.77.21,15.17.18,22.94,0h0Z"/>
      <path class="cls-2" d="M320.43,156.28c1.68,1.63-.03,2.47,0,2.6.69,3.02.92,1.43.97,5.43.57-3.03-5.99-2.65-6.34-1.66.47,1.98-.62,9.15,0,10.38.12.24,5.1.26,5.37.24v6.61c-3.31-.18-6.68.12-10.01,0-.99-.56-.58-1.17-.73-1.89-.66-3.2.05-10.41,0-14.16-.01-1.09,0-2.21,0-3.3v-3.77c3.33-.78,7.3-.57,10.74-.48Z"/>
      <path class="cls-2" d="M342.89,194.51c.06-2.96-.2-6.02,0-8.97l2.44-.24c-.73,2.14-1.15,6.03.25,8.26.15-12.79,3.7-10.67,2.68.7l-5.37.24Z"/>
      <path class="cls-2" d="M350.2,125.61c.58,7.11-.29,6.43-6.83,6.13l.49-4.71c.16.03.32-.01.49,0,.88.06,1.79-.05,2.68,0l-.97-1.42c1.36-.1,2.81.14,4.15,0h-.01Z"/>
      <path class="cls-2" d="M320.92,126.55l-.25,5.19c-.89-.33-6.61.25-6.83,0-.4-.45-.43-5.46-.73-6.61.53.1.92,1.57,1.71,1.89,2.8,1.14,4.2-2.57,4.4,3.77l.25-3.54c.47-.26,1-.44,1.46-.7h-.01Z"/>
      <path class="cls-2" d="M343.86,127.02l-.49,4.71c-.47-.02-.99.18-.97-.48,0-1.17-1.36-3.49,0-4.72.32.01.64.38,1.46.48Z"/>
      <path class="cls-2" d="M344.35,180.83c-1.1,1.35-1.35,3.06-1.46,4.71-.2,2.95.06,6.01,0,8.97-.07,3.31.67,10.86,0,13.46-.3,1.17-4.11,3.85-2.44,7.31-10.23.02-20.55-.09-30.74,0v-34.92c11.58.19,23.05.48,34.65.48Z"/>
      <path class="cls-2" d="M317.51,185.07l.73,8.97c-.09-3.51,1.28-6.37.25-8.97.92-.11,2.28-2.48,3.41-.7v10.86c-9.83,3.62-6.24-3.94-6.83-9.91.97-1.55,2.32-.2,2.44-.24h.01Z"/>
      <path class="cls-2" d="M318.48,185.07c1.05,2.61-.34,5.45-.25,8.96l-.73-8.96c1.05-.26.93,0,.97,0Z"/>
      <path class="cls-2" d="M335.56,126.55l-.25,5.19c-.36.25-5.67-.29-6.59-.48l-.49-4.25c.99.2,3.59-.28,4.15,0,.19.1-.96,4.84.97,3.3.96-.76-.56-3.19-.25-3.54.66-.48,1.66-.14,2.44-.24h.01Z"/>
      <path class="cls-2" d="M328.24,127.02l.49,4.25c-.08-.01-.66,1.09-1.46-.24v-4.49c.44.06.51.38.97.48Z"/>
      <path class="cls-2" d="M342.88,163.84c0-.46-.01-.95,0-1.42l5.37.24v9.44c-7.34.87-5.36-2.75-5.37-8.26Z"/>
      <path class="cls-2" d="M358.02,125.61c-2.67.11-4.76-.33-7.8,0-1.34.14-2.79-.1-4.15,0l.97,1.42c-.89-.05-1.8.06-2.68,0-.38-8.9-5.98-17.14-8.79-25.49-.31-.93-.71-1.92-.97-2.83l4.88-.94c.99,4.28,23.66,24.93,23.43,26.67-.45.76-4.14,1.14-4.88,1.18Z"/>
      <path class="cls-2" d="M330.68,99.17c-.97,3.55-2.7,6.55-3.9,9.91.1-1.66-.88-.4-1.22,0-4.16,4.94-7.6,6.9-12.69,10.38-1.04.71-1.32,2.76-1.46,2.83-.48.24-2.46-.24-2.93,0-1.65.87-.57,2.88-5.86,1.89-3.11-.59-.67-1.28-.73-1.42,2.31-.48,3.66-3.14,4.88-4.72.58-.76,1.36.23,2.44-2.83,3.55-1.34,14.24-16.46,16.1-16.99,1.46-.41,3.85.76,5.37.94h.01Z"/>
      <path class="cls-2" d="M326.78,109.08c-1.98,5.57-4.19,11.18-5.37,16.99-.04,0,.09.14-.49.48-.47.26-1,.44-1.46.7l-.25,3.54c-.2-6.34-1.6-2.63-4.4-3.77-.79-.33-1.18-1.78-1.71-1.89-1.75-.34-5.74-.01-7.81,0-.7,0-2.19-.33-2.44.48-1.63-.93-.61-.26-1.46-.48-.1-.02-1.08-.93-1.96-.48,2.06-2.48.83-2.51,0-5.19,1.17.34,1.98,2.3,2.44,3.3.07.14-2.39.83.73,1.42,5.28.99,4.21-1.03,5.86-1.89.45-.24,2.45.24,2.93,0,.14-.08.43-2.12,1.46-2.83,5.08-3.49,8.53-5.44,12.69-10.38.34-.4,1.32-1.65,1.22,0v.03Z"/>
      <path class="cls-2" d="M305.31,125.13c.78.9-.16,1.02,0,1.89-.92-.29-1.63-.95-2.44-1.42.25-.8,1.74-.46,2.44-.48Z"/>
      <path class="cls-2" d="M334.09,97.76s.22.03.49.94.66,1.91.97,2.83c-.53,3.26-.96,8.36-.49,11.56.52,3.57,5.34,10.55,1.46,13.46-.31.04-.66-.04-.97,0-.78.09-1.78-.25-2.44.24-.31.35,1.21,2.77.25,3.54-1.93,1.54-.78-3.21-.97-3.3-.56-.28-3.16.2-4.15,0-.47-.1-.53-.41-.97-.48-1.76-.24-4.07-.92-5.86-.48,1.18-5.81,3.38-11.42,5.37-16.99,1.21-3.36,2.93-6.37,3.9-9.91.18-.65.34-1.2.49-1.89l2.93.48h-.01Z"/>
      <path class="cls-2" d="M344.35,127.02c-.16-.01-.32.03-.49,0-.83-.1-1.14-.45-1.46-.48-1.97-.09-3.88-.28-5.86,0,3.88-2.91-.95-9.87-1.46-13.45-.47-3.2-.05-8.3.49-11.56,2.81,8.35,8.42,16.58,8.79,25.49Z"/>
      <path class="cls-2" d="M332.63,25.54c-.14,9.24-.3,18.63.49,27.85.64,7.39,3.92,12.23,4.39,17.23.55,5.76-3.35,4.8-1.22.24-6.51-.59-.25,4.82-4.88,4.71-.91-.25-.47-4.64,1.22-4.49-.35-.69-4.79.23-5.37-.48-.49-.6,5.08-12.54,3.41-14.87,2.19-10.58-.04-21.48,1.46-32.09h.49v1.89h-.01Z"/>
      <path class="cls-2" d="M331.16,97.28c-.16.69-.31,1.23-.49,1.89-1.52-.18-3.9-1.35-5.37-.94v-7.08l7.33-.24c-2.96.3-.44,1.81-.49,2.36-.1,1.28-.69,2.72-.97,4.01Z"/>
      <path class="cls-2" d="M338.98,90.68c.17,2.07.05,5.2.49,7.08l-4.88.94c-.26-.92-.48-.89-.49-.94-1.28-5.14-2.42-7.84,4.88-7.08Z"/>
      <path class="cls-2" d="M336.05,88.31c.32,0,.66-.04.97,0,.14.02-.47,1.24,1.96.48.04.78-.03,1.58,0,1.89-7.31-.76-6.16,1.94-4.88,7.08l-2.93-.48c.29-1.29.87-2.73.97-4.01.05-.55-2.46-2.06.49-2.36l-7.33.24v-2.83c3.55,1.25,7.16-.13,10.74,0h0Z"/>
      <path class="cls-2" d="M334.09,27.9v-1.42c.71-.39,3.44.41,1.71-1.42l-3.18.48v-1.89c2.1-1.74,13.02.69,7.33,1.66l1.96.94c.69,2.11-6.65,1.68-7.81,1.66h-.01Z"/>
      <path class="cls-2" d="M338.98,76.99c.05,3.91-.22,7.9,0,11.8-2.41.78-1.82-.45-1.96-.48v-12.28c1.13.1,1.3.05,1.96.94h0Z"/>
      <path class="cls-2" d="M334.09,27.9l-.97-.7c.25-.38.61-.5.97-.7v1.42h0Z"/>
      <path class="cls-2" d="M338.98,76.99c-.65-.89-.83-.84-1.96-.94-3.45-.3-7.25.23-10.74,0-.34.16-.96,2.23-.97,2.36.71-2.34-1.1-7.52-.97-9.2.05-.74,5.5-9.37,6.34-13.46,1.66,2.33-3.92,14.27-3.41,14.87.58.7,5.02-.21,5.37.48-1.69-.16-2.13,4.23-1.22,4.49,4.63.1-1.62-5.3,4.88-4.71-2.13,4.56,1.76,5.53,1.22-.24-.48-4.99-3.76-9.84-4.39-17.23-.91,4.26,6.7,13.53,6.83,15.81.08,1.53-1.01,5.03-.97,7.79h0Z"/>
      <path class="cls-2" d="M327.03,71.32c2.24-.61,1.63,3.1.97,4.25l-1.71-3.07c.56-.23.4-1.09.73-1.18h.01Z"/>
      <path class="cls-2" d="M336.05,88.31c-3.58-.13-7.18,1.25-10.74,0,0-3.08-.32-6.95,0-9.91.01-.13.65-2.19.97-2.36.27,3.64.19,20.18,3.18,7.08,3.18.66.6,2.85,2.44,4.71,1.85.48.97-3.49,1.22-4.01,3.95-.83,1.72,1.81,2.93,4.49h0Z"/>
      <path class="cls-2" d="M337.02,76.05v12.28c-.31-.04-.66,0-.97,0-1.21-2.68,1.02-5.3-2.93-4.49-.25.53.64,4.49-1.22,4.01-1.84-1.87.74-4.05-2.44-4.71-2.98,13.09-2.9-3.45-3.18-7.08,3.49.23,7.29-.3,10.74,0Z"/>
      <path class="cls-2" d="M333.85,79.35c2.24-.82,2.04,2.42,1.47,2.83-1.88,1.37-3.29-2.17-1.47-2.83Z"/>
      <path class="cls-2" d="M328.97,79.35c1.41-1.12,3.19,1.94,1.96,2.83-1.79,1.3-3.11-1.92-1.96-2.83Z"/>
      <path class="cls-2" d="M321.41,164.3c.04,2.73-.38,5.59.49,8.26-.48.68-.74.62-1.46.7-.27.04-5.25,0-5.37-.24-.62-1.23.47-8.4,0-10.38.35-.99,6.91-1.38,6.34,1.66Z"/>
      <path class="cls-2" d="M317.74,163.36c1.63-.46.91,6.55,0,7.55-.1-1.07-.93-7.28,0-7.55Z"/>
      <path class="cls-2" d="M84.22,161.01c12.01.51,24,.44,36.11.48l-38.56,2.36h-8.79c.01-.94,0-1.89,0-2.83,3.72.11,7.51-.16,11.23,0h.01Z"/>
      <path class="cls-2" d="M84.22,163.84l-.25,2.83c.88-.51,3.28-1.43,4.15-.48-3.86.16-4.11,5.34-2.19,8.03l.97-3.77,1.71,3.3c-.13,1.84-1.27,3.29-.97,5.19-2.13-.04-11.94,1.56-13.17-.24v-14.87h9.76-.01Z"/>
      <path class="cls-2" d="M116.92,185.55c-.86.92.05,2.5,0,2.83-.13.83-.04.51,0,.94.01.2-1.11,3.37.25,3.77,1.96.58.51-3.1,1.22-3.77h.49c-.4,2.66.95,3.55.97,3.77-.01.73-.96.34-.97.7,0,.35.99.13.97.48-.26,7.16-.67,14.31-.49,21.48-15.26-.24-30.61-.34-45.88-.48l.97-35.4c15.05-.18,30.09.36,45.15,0,.16,2.14,1.4,5.42-.97,6.13-.12.04-.36-1.91-1.71-.48h0Z"/>
      <path class="cls-2" d="M74.45,179.88l-.97,35.4h-.49v-34.46c.09,0-.7-.92,1.47-.94Z"/>
      <path class="cls-2" d="M120.33,197.35c.38,5.86.1,12.57-.49,18.41h-.49c-.19-7.17.23-14.32.49-21.48,0-.35-.99-.13-.97-.48,0-.38.96.01.97-.7,0,.08.95.9.97,1.18.01.15-.57,1.87-.49,3.07h.01Z"/>
      <path class="cls-2" d="M118.38,189.32c-.71.68.74,4.35-1.22,3.77-1.36-.4-.22-3.57-.25-3.77h1.47Z"/>
      <path class="cls-2" d="M116.92,188.38c.05-.34-.86-1.92,0-2.83,1.49-.35,1.49,3.18,0,2.83Z"/>
      <path class="cls-2" d="M87.15,186.02c.14,1.45-.74,4.28,1.47,2.83.05,4.63-.06,3.29-3.41,4.49-.6-.57-1.08-9.61,1.96-7.31h-.01Z"/>
      <path class="cls-2" d="M104.72,187.9c-.31-1.47.09-1.42-1.47-2.36-.66-.4-.7-.96-1.47,0-.03.03-.3-.18-.49.48-6.73-.01,1.89-2.57,4.64-2.36l-.25,8.26-.97-4.01h0Z"/>
      <path class="cls-2" d="M104.72,187.9c.15.76-.16,5.56-.73,5.67l-.73-8.03c1.56.95,1.15.89,1.47,2.36h-.01Z"/>
      <path class="cls-2" d="M101.29,186.02c.19-.65.47-.45.49-.48l.25,7.55c-1.85.14-.93-6.37-.73-7.08h-.01Z"/>
      <path class="cls-2" d="M88.61,188.86c-2.2,1.45-1.32-1.38-1.47-2.83l1.47.24v2.6Z"/>
      <path class="cls-2" d="M119.36,166.66h-.97c-.4,0-1.37-.06-1.47,0-1.06.83-.49,6.29,0,7.55,1.26,3.16,5.26-.54,2.68,5.19-10.66.36-21.33-.28-31.96-.48-.29-1.91.84-3.35.97-5.19.18-2.5-.19-5.09-.49-7.55-.87-.95-3.27-.04-4.15.48l.25-2.83c11.81-.11,23.59-.21,35.39-.48,2.11,1.67-.23,3.11-.25,3.3h0Z"/>
      <path class="cls-2" d="M116.92,174.22c-.49-1.25-1.06-6.72,0-7.55-.01,1.74,2.11,6.61,0,7.55Z"/>
      <path class="cls-2" d="M102.76,166.66v3.54l1.46-.7c.25,1.48,0,1.09,0,1.89-1.72-.16-2.18,2.19-.49,2.83-.69,1.84-1.8,2.27-2.93,0,2.59-.24.53-5.87.49-7.55.05-.04,1.19-.06,1.47,0h0Z"/>
      <path class="cls-2" d="M100.82,174.22c-.39-.78-.14-7.08.49-7.55.04,1.68,2.1,7.31-.49,7.55Z"/>
      <path class="cls-2" d="M104.22,169.5l-1.46.7v-3.54c2.51.59,1.08.5,1.46,2.83Z"/>
      <path class="cls-2" d="M104.22,171.39c-.03,1.32-.03,1.59-.49,2.83-1.69-.64-1.23-3,.49-2.83Z"/>
      <path class="cls-2" d="M88.12,166.2c.3,2.46.66,5.05.49,7.55l-1.71-3.3-.97,3.77c-1.92-2.68-1.67-7.86,2.19-8.03Z"/>
      <path class="cls-2" d="M86.41,168.08c.84-.36,1.04,1.18.49,1.42-.84.36-1.04-1.18-.49-1.42Z"/>
      <path class="cls-2" d="M133.5,156.28v3.77c-3.9.01-7.82,0-11.71,0v-3.77h11.71Z"/>
      <path class="cls-2" d="M131.07,136.47c-.27,3.18-3.71,5.48,3.9,3.77,1.78,2.09,3.66,4.18,5.37,6.37.12.4-.31,1.63-.49,2.12-.47,1.31-3.14,2.9-3.41,3.54-1.08,2.45.06,6.08-1.47,8.73-1.41,0-1.37-.94-1.46-.94v-4.25c0-1.57-.07-3.16,0-4.71,2.27.49,3.99-3.88,1.71-4.71l-1.71,3.77c.08-2.33,0-3.77.49-6.13.03-.1,1.61-1.43.73-1.89-5.38,1.1-9.8-.41-14.89.24-.05.99,1.14.54,1.47,1.66.97,3.32.49,8.25.49,11.8v4.25c-.06,0-.25.94-.97.94-.27-1.19.36-4.1,0-4.95-.27-.64-1.63.73-1.96-.48-.05-.19,1.17-3.1.97-3.77-.04-.11-1.92-1.3-1.96-1.42-.31-1.04,4.12-8.5,0-8.03l6.34-2.36c1.04-2.85-3.59-2.65-1.22-4.95,1.62,1.83,8.38-2.22,8.05,1.42h.01Z"/>
      <path class="cls-2" d="M134.97,140.24c-7.61,1.71-4.19-.59-3.9-3.77,2.43-.54,2.52,2.14,3.9,3.77Z"/>
      <path class="cls-2" d="M134,144.02h-12.69c-.32-1.1-1.52-.67-1.47-1.66,5.08-.65,9.5.87,14.89-.24.87.45-.71,1.79-.73,1.89Z"/>
      <path class="cls-2" d="M125.45,135.99c4.15-1.82,3.66,3.45,1.96,5.67.22-5.22-.73.5-2.68-1.65.16-1.04-.51-3.47.73-4.01Z"/>
      <path class="cls-2" d="M133.5,151.09v-.94l1.71-3.77c2.28.84.56,5.22-1.71,4.71Z"/>
      <path class="cls-2" d="M134,144.01c-.49,2.36-.42,3.81-.49,6.13v.94c-.07,1.56,0,3.16,0,4.71h-11.71c0-3.55.49-8.48-.49-11.8h12.69Z"/>
      <path class="cls-2" d="M133.5,155.82h-11.71v.48h11.71v-.48Z"/>
      <path class="cls-2" d="M129.85,146.37c1.7-.51,4.03,7.76-1.71,4.95l1.71-4.95Z"/>
      <path class="cls-2" d="M124.48,146.37c3.66.06,3.53,5.73.49,6.13-1.75.24-1.53-5.3-.49-6.13Z"/>
      <path class="cls-2" d="M125.45,149.67c.61.86.2,1.96-.49.94-.35-.51.19-.56.49-.94Z"/>
    </g>
  </g>
</svg>