<svg width="324" height="226" viewBox="0 0 324 226" fill="none" xmlns="http://www.w3.org/2000/svg">
<g clip-path="url(#clip0_359_5924)">
<path d="M285.09 7.4834L311.993 93.1638C315.727 104.988 305.46 116.148 305.46 116.148L166.685 39.9566L288.186 6.63677L323.721 114.318C306.583 198.885 87.4898 225.67 87.4898 225.67C87.4898 225.67 -41.72 168.224 14.3689 96.5844C14.3689 96.5844 97.9936 36.6951 144.391 10.8586L161.992 0.28418H268.813L129.104 29.0583L106.641 44.2182L271.976 162.002C271.976 162.002 304.901 146.235 314.013 112.977" stroke="#A88D83" stroke-width="2" stroke-miterlimit="10"/>
<path d="M280.514 39.0701L205.969 61.5257" stroke="#A88D83" stroke-width="2" stroke-miterlimit="10"/>
<path d="M294.73 110.261L278.241 27.6945L282.417 26.0694L282.602 24.0864L284.326 23.1488L284.141 20.4328L282.512 15.3132L283.962 13.3245L311.197 106.642" stroke="#A88D83" stroke-width="2" stroke-miterlimit="10"/>
<path d="M201.74 173.247L112.088 87.3168V61.611L106.636 52.5651V44.2124C26.6867 88.1464 13.3091 119.512 13.3091 119.512L101.421 161.656L19.7685 141.024L111.972 164.321V178.162L49.9459 169.599" stroke="#A88D83" stroke-width="2" stroke-miterlimit="10"/>
<path d="M13.3091 119.512V141.831C13.3091 141.831 13.2036 152.417 19.7685 160.389V141.024C19.7685 141.024 70.9114 195.078 93.327 195.078C93.327 195.078 267.484 175.173 305.46 116.148" stroke="#A88D83" stroke-width="2" stroke-miterlimit="10"/>
<path d="M112.094 61.6111C112.094 61.6111 29.3918 121.944 32.1548 128.398" stroke="#A88D83" stroke-width="2" stroke-miterlimit="10"/>
<path d="M129.104 29.0584L166.943 2.81274L254.233 3.29004" stroke="#A88D83" stroke-width="2" stroke-miterlimit="10"/>
<path d="M77.5132 114.892V140.194L103.652 111.773V90.6692L77.5132 114.892Z" stroke="#A88D83" stroke-width="2" stroke-miterlimit="10"/>
<path d="M286.482 105.732L277.207 44.934V41.2236V40.3997" stroke="#A88D83" stroke-width="2" stroke-miterlimit="10"/>
<path d="M19.7685 160.389C19.7685 160.389 50.0092 203.675 93.8595 219.522C93.8595 219.522 229.645 198.72 271.971 162.002" stroke="#A88D83" stroke-width="2" stroke-miterlimit="10"/>
<path d="M303.799 134.376L294.719 128.802L153.856 44.4L161.992 37.1837L288.191 6.63677L268.818 0.28418" stroke="#A88D83" stroke-width="2" stroke-miterlimit="10"/>
<path d="M106.636 48.0762L253.732 154.564L268.349 164.934" stroke="#A88D83" stroke-width="2" stroke-miterlimit="10"/>
<path d="M114.851 54.0254L115.59 90.6692" stroke="#A88D83" stroke-width="2" stroke-miterlimit="10"/>
<path d="M120.43 58.0654L121.321 96.1639L72.024 147.598" stroke="#A88D83" stroke-width="2" stroke-miterlimit="10"/>
<path d="M126.009 62.1052L126.352 100.982" stroke="#A88D83" stroke-width="2" stroke-miterlimit="10"/>
<path d="M132.31 66.6624L132.922 107.284" stroke="#A88D83" stroke-width="2" stroke-miterlimit="10"/>
<path d="M139.128 72.3445L140.114 114.176" stroke="#A88D83" stroke-width="2" stroke-miterlimit="10"/>
<path d="M146.627 77.0266V120.415" stroke="#A88D83" stroke-width="2" stroke-miterlimit="10"/>
<path d="M153.982 82.3506V127.466" stroke="#A88D83" stroke-width="2" stroke-miterlimit="10"/>
<path d="M161.992 88.1521V135.149" stroke="#A88D83" stroke-width="2" stroke-miterlimit="10"/>
<path d="M171.104 94.749V143.876" stroke="#A88D83" stroke-width="2" stroke-miterlimit="10"/>
<path d="M180.495 101.551V152.883" stroke="#A88D83" stroke-width="2" stroke-miterlimit="10"/>
<path d="M190.646 108.897L189.965 161.957" stroke="#A88D83" stroke-width="2" stroke-miterlimit="10"/>
<path d="M201.112 116.472L200.184 171.753" stroke="#A88D83" stroke-width="2" stroke-miterlimit="10"/>
<path d="M212.523 124.733V170.014V182.236" stroke="#A88D83" stroke-width="2" stroke-miterlimit="10"/>
<path d="M225.505 134.132L224.82 165.985V187.032" stroke="#A88D83" stroke-width="2" stroke-miterlimit="10"/>
<path d="M239.289 144.109V160.667V181.174" stroke="#A88D83" stroke-width="2" stroke-miterlimit="10"/>
<path d="M253.732 154.564V174.179" stroke="#A88D83" stroke-width="2" stroke-miterlimit="10"/>
<path d="M201.74 173.247L218.229 189.43" stroke="#A88D83" stroke-width="2" stroke-miterlimit="10"/>
<path d="M177.289 37.0474V45.7807" stroke="#A88D83" stroke-width="2" stroke-miterlimit="10"/>
<path d="M187.492 34.2517V51.3832" stroke="#A88D83" stroke-width="2" stroke-miterlimit="10"/>
<path d="M196.694 31.7288V56.4345" stroke="#A88D83" stroke-width="2" stroke-miterlimit="10"/>
<path d="M205.405 29.0583L206.349 61.1395" stroke="#A88D83" stroke-width="2" stroke-miterlimit="10"/>
<path d="M213.646 27.0808V59.2131" stroke="#A88D83" stroke-width="2" stroke-miterlimit="10"/>
<path d="M222.326 24.7002V56.5938" stroke="#A88D83" stroke-width="2" stroke-miterlimit="10"/>
<path d="M230.536 22.4443V54.122" stroke="#A88D83" stroke-width="2" stroke-miterlimit="10"/>
<path d="M238.234 20.3362V51.8036" stroke="#A88D83" stroke-width="2" stroke-miterlimit="10"/>
<path d="M246.265 18.1316L245.775 49.5309" stroke="#A88D83" stroke-width="2" stroke-miterlimit="10"/>
<path d="M254.286 15.9326L253.679 47.1501" stroke="#A88D83" stroke-width="2" stroke-miterlimit="10"/>
<path d="M260.966 14.103V44.9568" stroke="#A88D83" stroke-width="2" stroke-miterlimit="10"/>
<path d="M268.074 12.1541L267.436 43.0079" stroke="#A88D83" stroke-width="2" stroke-miterlimit="10"/>
<path d="M274.982 10.2561L274.37 40.9167" stroke="#A88D83" stroke-width="2" stroke-miterlimit="10"/>
<path d="M281.283 8.46069L280.513 27.581" stroke="#A88D83" stroke-width="2" stroke-miterlimit="10"/>
<path d="M166.943 2.81274V7.84708H167.945V9.779H171.12V11.7052L156.302 21.2512" stroke="#A88D83" stroke-width="2" stroke-miterlimit="10"/>
<path d="M134.161 25.5468L247.12 3.27295" stroke="#A88D83" stroke-width="2" stroke-miterlimit="10"/>
<path d="M171.12 11.7051V18.0747" stroke="#A88D83" stroke-width="2" stroke-miterlimit="10"/>
<path d="M178.038 3.07397V16.6712" stroke="#A88D83" stroke-width="2" stroke-miterlimit="10"/>
<path d="M186.944 2.92065V15.1372" stroke="#A88D83" stroke-width="2" stroke-miterlimit="10"/>
<path d="M195.544 2.96606V13.5461" stroke="#A88D83" stroke-width="2" stroke-miterlimit="10"/>
<path d="M204.35 2.87524V11.7052" stroke="#A88D83" stroke-width="2" stroke-miterlimit="10"/>
<path d="M212.956 3.11377V10.08" stroke="#A88D83" stroke-width="2" stroke-miterlimit="10"/>
<path d="M222.326 3.11377V8.15947" stroke="#A88D83" stroke-width="2" stroke-miterlimit="10"/>
<path d="M13.3091 141.831L19.7685 144.109" stroke="#A88D83" stroke-width="2" stroke-miterlimit="10"/>
</g>
<defs>
<clipPath id="clip0_359_5924">
<rect width="324" height="225.954" fill="white"/>
</clipPath>
</defs>
</svg>
