<svg width="493" height="501" viewBox="0 0 493 501" fill="none" xmlns="http://www.w3.org/2000/svg">
<path d="M428.982 300.184C423.659 300.609 418.192 301.879 412.794 302.201C410.404 302.34 406.122 303.579 404.196 301.947C356.574 213.41 306.251 126.336 253.439 40.8317L253.69 36.0426L428.987 300.179L428.982 300.184Z" stroke="#A88D83" stroke-width="2" stroke-miterlimit="10"/>
<path d="M63.7214 293.125C78.6307 300.241 122.341 306.062 140.871 308.752C236.085 322.565 332.8 320.134 428.222 309.255L431.763 303.206C425.644 304.186 419.456 304.626 413.298 305.222C409.841 303.963 411.347 304.284 412.794 302.195C418.192 301.874 423.659 300.604 428.982 300.179C430.251 300.075 429.935 299.676 429.995 299.676C431.535 299.578 437.195 299.568 437.585 300.936C432.419 309.877 407.658 348.184 398.882 350.081H113.047C107.664 349.112 93.6733 334.636 89.5201 330.168C83.0259 323.181 65.6474 303.263 61.6966 295.639C60.8817 294.063 59.3557 292.83 61.4447 291.606C61.9929 292.622 62.8275 292.69 63.7214 293.12V293.125Z" stroke="#A88D83" stroke-width="2" stroke-miterlimit="10"/>
<path d="M413.298 305.222C419.456 304.626 425.644 304.186 431.763 303.206L428.222 309.255C332.795 320.134 236.085 322.565 140.871 308.752C122.341 306.062 78.6258 300.241 63.7214 293.125L59.6718 288.336C91.1745 294.156 123.057 301.003 155.034 305.222C241.364 316.614 326.909 313.608 413.298 305.222Z" stroke="#A88D83" stroke-width="2" stroke-miterlimit="10"/>
<path d="M222.825 160.554C223.827 160.554 228.81 160.336 229.151 160.808C228.015 184.106 228.583 207.455 230.924 230.623H183.875L107.229 234.91C119.057 211.265 130.702 187.423 144.92 165.094C170.862 164.55 196.893 160.663 222.83 160.559L222.825 160.554Z" stroke="#A88D83" stroke-width="2" stroke-miterlimit="10"/>
<path d="M189.944 234.65C203.589 234.345 217.274 234.878 230.924 234.65L236.49 259.353C186.784 253.9 133.858 260.933 87.5002 279.266L104.953 239.693C133.246 238.216 161.607 235.293 189.944 234.65Z" stroke="#A88D83" stroke-width="2" stroke-miterlimit="10"/>
<path d="M149.217 156.522C151.064 152.536 154.876 147.819 157.311 143.922C163.701 133.696 170.59 123.708 177.292 113.679L233.448 108.636L229.146 156.273L147.947 161.062C147.607 160.901 149.059 156.859 149.212 156.527L149.217 156.522Z" stroke="#A88D83" stroke-width="2" stroke-miterlimit="10"/>
<path d="M199.807 82.923C202.883 79.1912 206.108 75.8481 209.417 72.3393C211.837 69.7737 213.58 66.6379 216.247 64.2745L241.794 58.9826L234.203 104.35L180.828 109.139C186.542 100.079 192.982 91.1847 199.802 82.9281L199.807 82.923Z" stroke="#A88D83" stroke-width="2" stroke-miterlimit="10"/>
<path d="M245.088 32.0103C245.912 31.917 246.786 32.0776 247.616 32.0103L242.811 53.9396L219.284 59.7342C223.709 54.9088 239.497 32.6581 245.083 32.0103H245.088Z" stroke="#A88D83" stroke-width="2" stroke-miterlimit="10"/>
<path d="M429.995 299.676C429.94 299.676 430.251 300.081 428.982 300.179L253.685 36.0426L253.434 40.8317C306.246 126.336 356.569 213.41 404.191 301.947C406.117 303.579 410.399 302.34 412.789 302.201C411.347 304.284 409.841 303.968 413.293 305.227C326.904 313.614 241.359 316.62 155.029 305.227C123.048 301.008 91.1695 294.162 59.6669 288.341L63.7164 293.13C62.8226 292.705 61.988 292.638 61.4398 291.617C59.3558 292.84 60.8768 294.074 61.6917 295.649C60.2002 293.514 51.3505 286.325 52.0814 284.309L157.311 143.922C154.876 147.819 151.064 152.541 149.217 156.522L56.1309 283.801C95.466 292.482 135.216 299.671 175.272 304.217C181.06 300.101 190.221 288.74 197.026 287.584C203.13 286.548 247.828 289.191 248.88 286.828V19.1564L209.422 72.3392C206.113 75.8481 202.888 79.1964 199.811 82.923L248.633 16.8862C256.975 13.2944 251.764 30.6108 253.947 34.7832L430 299.676H429.995Z" stroke="#A88D83" stroke-width="2" stroke-miterlimit="10"/>
<path d="M253.685 43.6046C306.394 128.15 355.404 214.919 403.435 302.2L402.932 303.211L367.014 306.238C362.026 301.35 358.273 288.927 350.826 287.59L252.935 286.833L253.695 267.428L376.881 266.168L375.617 263.395L253.443 263.141L253.695 43.615L253.685 43.6046Z" stroke="#A88D83" stroke-width="2" stroke-miterlimit="10"/>
<path d="M262.288 156.522H307.816L333.872 203.148L262.288 201.381V156.522Z" stroke="#A88D83" stroke-width="2" stroke-miterlimit="10"/>
<path d="M262.288 205.413L335.645 207.429L352.085 236.418L262.288 233.645V205.413Z" stroke="#A88D83" stroke-width="2" stroke-miterlimit="10"/>
<path d="M262.288 237.677L354.865 240.699L365.745 259.607L261.78 260.358L262.288 237.677Z" stroke="#A88D83" stroke-width="2" stroke-miterlimit="10"/>
<path d="M256.214 55.7018L304.779 152.484L261.523 152.23L260.007 112.409C262.738 111.663 282.349 112.207 282.773 110.896C282.832 110.719 281.173 107.693 281 107.62C278.269 106.443 260.313 109.196 259.498 107.366L256.209 55.6966L256.214 55.7018Z" stroke="#A88D83" stroke-width="2" stroke-miterlimit="10"/>
<path d="M198.542 290.606H349.3C354.905 291.627 359.364 301.941 362.199 306.487C301.801 310.276 239.798 311.665 180.072 304.471C185.5 301.128 192.246 291.606 198.537 290.606H198.542Z" stroke="#A88D83" stroke-width="2" stroke-miterlimit="10"/>
<path d="M197.53 294.639C198.409 294.416 212.464 294.405 213.215 294.639C215.506 295.354 216.973 303.73 211.698 304.719C210.064 305.025 190.004 304.6 188.932 304.217C188.349 304.004 187.426 302.729 187.668 301.947C187.85 301.361 196.937 294.789 197.535 294.639H197.53Z" stroke="#A88D83" stroke-width="2" stroke-miterlimit="10"/>
<path d="M276.956 294.639C277.726 294.39 292.369 294.405 293.144 294.639C295.905 295.473 295.964 304.341 292.64 305.222C291.895 305.419 278.195 305.419 277.464 305.222C274.091 304.31 274.427 295.463 276.961 294.639H276.956Z" stroke="#A88D83" stroke-width="2" stroke-miterlimit="10"/>
<path d="M250.145 294.638C251.488 294.281 266.116 294.566 266.842 295.141C268.274 296.287 268.481 304.388 265.326 305.222C263.967 305.58 250.09 305.315 249.137 304.719C247.251 303.543 246.782 295.53 250.15 294.638H250.145Z" stroke="#A88D83" stroke-width="2" stroke-miterlimit="10"/>
<path d="M223.334 294.638C224.104 294.39 238.751 294.39 239.522 294.638C241.794 295.38 243.008 304.232 238.51 305.222C237.038 305.549 223.758 305.279 222.825 304.719C220.78 303.486 220.869 295.442 223.329 294.638H223.334Z" stroke="#A88D83" stroke-width="2" stroke-miterlimit="10"/>
<path d="M304.275 294.638C305.046 294.39 319.693 294.39 320.464 294.638C322.498 295.302 322.824 301.864 322.237 303.46C321.363 305.818 305.471 305.772 303.772 304.719C301.841 303.522 301.757 295.457 304.275 294.638Z" stroke="#A88D83" stroke-width="2" stroke-miterlimit="10"/>
<path d="M331.595 294.638C332.301 294.364 346.05 294.41 346.771 294.638C348.258 295.105 351.211 301.579 352.589 302.957C352.189 303.211 351.631 304.123 351.324 304.217C350.144 304.59 333.2 305.03 332.099 304.719C328.835 303.797 329.452 295.463 331.595 294.638Z" stroke="#A88D83" stroke-width="2" stroke-miterlimit="10"/>
</svg>
